<svg width="66" height="101" viewBox="0 0 66 101" fill="none" xmlns="http://www.w3.org/2000/svg">
    <g filter="url(#filter0_d)">
        <path d="M46.0114 56.5698L52.4746 43.6433L55.7063 34.9427L55.8306 28.8523L53.8419 20.7732L50.3616 14.0614L46.7571 9.71107L40.2938 6.60373L34.3277 4.73932L26.7458 4.98791L19.2882 6.47943L14.0679 10.084L8.47464 16.4229L5.98877 26.2421L6.11306 36.8071L16.8023 59.6772L23.6385 70.4907C14.6893 71.4851 7.23171 74.2196 8.47464 78.5698C11.3334 89.2591 48.0001 98.3325 52.4746 77.2026C53.3447 73.2252 46.1357 70.8636 37.3108 70.2421L39.2995 67.632L46.0114 56.5698Z" fill="#002539"/>
        <path d="M49.8644 72.3551C47.6271 71.1121 44.8927 69.9935 41.661 69.372L40.791 69.1234L41.2881 68.3777C44.2712 63.6545 47.0056 58.9313 49.3672 54.5811C54.8362 44.0161 57.4463 35.5641 57.4463 28.9765C57.4463 14.3099 45.5141 2.50195 30.7232 2.50195C15.9322 2.50195 4 14.3099 4 28.8522C4 35.4398 6.61017 43.8918 12.0791 54.4568C14.4407 58.9313 17.0508 63.5302 20.1582 68.2534L20.6554 68.9991L19.7853 69.2477C16.4294 69.9935 13.6949 70.9878 11.5819 72.2308C9.22034 73.598 6.48588 75.9596 6.48588 79.3155C6.48588 81.0556 7.35593 82.7957 8.84746 84.2873C10.2147 85.6545 11.9548 86.6488 14.1921 87.6432C18.6667 89.5076 24.5085 90.502 30.7232 90.502C36.9379 90.502 42.7797 89.5076 47.2542 87.6432C49.6158 86.6488 51.3559 85.5302 52.5989 84.2873C54.0904 82.7957 54.9604 81.0556 54.9604 79.3155C54.9604 76.0839 52.226 73.7223 49.8644 72.3551ZM15.435 52.7166C10.4633 43.146 7.72881 34.694 7.72881 28.8522C7.72881 16.4229 18.0452 6.23077 30.7232 6.23077C43.4011 6.23077 53.7175 16.4229 53.7175 28.8522C53.7175 34.5697 50.983 43.146 46.0113 52.7166C42.4068 59.8014 37.3107 67.7562 31.2203 76.0839L30.7232 76.8296L30.226 76.0839C24.0113 67.7562 19.0395 59.9257 15.435 52.7166ZM49.9887 81.8014C49.1186 82.6714 47.5028 83.6658 45.7627 84.4116C41.9096 86.0274 36.3164 87.0217 30.7232 87.0217C25.1299 87.0217 19.5367 86.0274 15.6836 84.4116C13.8192 83.6658 12.3277 82.6714 11.4576 81.8014C10.5876 80.9313 10.2147 80.3099 10.2147 79.4398C10.2147 78.694 10.5876 77.2025 13.4463 75.5867C15.6836 74.2195 18.9153 73.2251 22.5198 72.6036L22.8927 72.4793L23.1412 72.8522C25.3785 76.0839 27.3672 78.8183 29.2316 81.4285C29.6045 81.9257 30.1017 82.1743 30.7232 82.1743C31.096 82.1743 31.4689 82.05 31.8418 81.8014C31.9661 81.6771 32.0904 81.5528 32.2147 81.4285C34.0791 78.9426 36.0678 76.0839 38.3051 72.8522L38.5537 72.4793L38.9266 72.6036C42.5311 73.2251 45.7627 74.3438 48 75.5867C50.8588 77.2025 51.2316 78.694 51.2316 79.4398C51.2316 80.1856 50.8588 80.9313 49.9887 81.8014Z" fill="white"/>
        <path d="M30.7233 16.7958C23.8872 16.7958 18.2939 22.389 18.2939 29.2252C18.2939 36.0613 23.8872 41.6545 30.7233 41.6545C37.5595 41.6545 43.1527 36.0613 43.1527 29.2252C43.1527 22.389 37.5595 16.7958 30.7233 16.7958ZM30.7233 37.9257C26.0002 37.9257 22.0228 34.0726 22.0228 29.2252C22.0228 24.502 25.8759 20.5246 30.7233 20.5246C35.4465 20.5246 39.4239 24.3777 39.4239 29.2252C39.4239 33.9483 35.4465 37.9257 30.7233 37.9257Z" fill="white"/>
    </g>
    <defs>
        <filter id="filter0_d" x="0" y="0.501953" width="65.4463" height="100" filterUnits="userSpaceOnUse" color-interpolation-filters="sRGB">
            <feFlood flood-opacity="0" result="BackgroundImageFix"/>
            <feColorMatrix in="SourceAlpha" type="matrix" values="0 0 0 0 0 0 0 0 0 0 0 0 0 0 0 0 0 0 127 0"/>
            <feOffset dx="2" dy="4"/>
            <feGaussianBlur stdDeviation="3"/>
            <feColorMatrix type="matrix" values="0 0 0 0 0 0 0 0 0 0 0 0 0 0 0 0 0 0 0.25 0"/>
            <feBlend mode="normal" in2="BackgroundImageFix" result="effect1_dropShadow"/>
            <feBlend mode="normal" in="SourceGraphic" in2="effect1_dropShadow" result="shape"/>
        </filter>
    </defs>
</svg>
