<svg width="97" height="95" viewBox="0 0 97 95" fill="none" xmlns="http://www.w3.org/2000/svg">
    <g filter="url(#filter0_d)">
        <path d="M88.8227 37.0842C88.372 38.5153 87.7712 40.4737 87.1703 42.3567C83.7152 52.4497 80.1851 62.4675 76.73 72.5605C75.8287 75.1214 74.2514 76.7032 71.5474 77.2304C63.6608 78.8121 55.6992 80.3939 47.8126 81.9756C43.8318 82.8042 39.7758 83.5574 35.7199 84.3106C33.3164 84.7625 31.2133 84.0093 29.5609 82.1263C23.1765 74.7448 16.7171 67.3633 10.3327 59.9819C8.60518 58.0235 6.95276 56.0652 5.37545 54.0315C3.94836 52.2238 3.64792 50.0395 4.39902 47.8552C8.30474 36.557 12.2105 25.3341 16.0411 14.036C17.0175 11.1738 18.8953 9.44137 21.8997 8.8388C33.5417 6.57917 45.2589 4.39485 56.9009 2.13522C59.4547 1.68329 61.708 2.36118 63.3604 4.31953C71.247 13.4334 79.1335 22.6226 87.0201 31.7364C88.2969 33.0922 88.7476 34.7493 88.8227 37.0842Z" fill="#002539"/>
        <path d="M87.095 31.7356C79.2085 22.6217 71.3219 13.4326 63.4353 4.31871C61.7829 2.36036 59.5296 1.68247 56.9759 2.1344C45.2587 4.31871 33.6167 6.57834 21.9746 8.83798C19.0453 9.44055 17.0925 11.0976 16.116 14.0351C12.2854 25.3333 8.30458 36.5562 4.47397 47.8543C3.72287 50.0386 4.02331 52.223 5.4504 54.0307C7.02771 56.0643 8.68013 58.0227 10.4077 59.981C16.792 67.3625 23.2515 74.744 29.6358 82.1255C31.2882 84.0085 33.3913 84.7617 35.7949 84.3098C39.8508 83.6319 43.8316 82.8033 47.8876 81.9748C55.7741 80.3931 63.7358 78.8113 71.6223 77.2296C74.2512 76.7023 75.9036 75.1206 76.8049 72.5597C80.26 62.4666 83.7902 52.4489 87.2452 42.3559C87.9212 40.4729 88.447 38.5145 88.8977 37.0834C88.7474 34.7485 88.2968 33.0914 87.095 31.7356ZM26.7065 11.1729C36.0202 9.36523 45.2587 7.63284 54.5724 5.82513C55.023 5.74981 55.5488 5.74981 56.0746 5.67449C58.7034 5.90045 61.182 6.65366 62.9847 8.76266C69.2188 15.9182 75.453 23.0737 81.612 30.3045C83.5648 32.5641 82.8888 34.4472 79.8844 35.0497C73.1245 36.4055 66.3646 37.6107 59.6047 38.9664C57.5017 39.343 55.3235 39.7196 53.2204 40.1716C49.3147 41.0001 45.9347 40.0209 43.3059 37.0081C37.1468 30.0032 31.0629 22.923 24.979 15.9182C23.1764 13.7339 23.9275 11.7002 26.7065 11.1729ZM33.4664 75.4219C32.49 78.1334 30.6123 78.51 28.7345 76.3257C24.1528 70.9779 19.496 65.6301 14.9143 60.2823C13.5623 58.7006 12.1352 57.0435 10.7081 55.4618C8.90546 53.4281 8.07925 51.0931 8.00414 47.9297C8.15436 47.3271 8.30458 46.2726 8.68013 45.2934C11.6094 36.7068 14.5387 28.0449 17.5431 19.4583C17.6182 19.157 17.7684 18.8557 17.8436 18.5544C18.8951 16.2195 20.6226 15.8428 22.3502 17.8012C28.6594 25.1073 34.9686 32.3382 41.2028 39.7196C43.3059 42.2052 43.8316 45.2934 42.7801 48.4569C39.7006 57.4954 36.546 66.4587 33.4664 75.4219ZM84.0155 41.452C82.288 46.6492 80.5604 51.771 78.7578 56.9682C77.4809 60.7342 76.1289 64.5003 74.8521 68.191C73.425 72.0324 70.7961 74.2921 66.8153 75.0453C57.9523 76.7023 49.1644 78.4347 40.3015 80.1671C39.8508 80.2424 39.4001 80.2424 39.2499 80.2424C36.7713 80.2424 35.87 78.8866 36.6962 76.5517C37.6726 73.6142 38.7241 70.6766 39.7757 67.7391C41.7285 62.09 43.6814 56.3656 45.6343 50.7165C47.1365 46.2726 50.2911 44.013 54.8728 43.2597C63.2851 41.7533 71.6974 40.0209 80.0347 38.4392C80.4853 38.3639 80.936 38.2885 81.3866 38.2132C83.4146 37.9119 84.6915 39.4184 84.0155 41.452Z" fill="white"/>
        <path d="M19.9464 27.0658C19.1953 28.6475 19.4206 30.3046 19.9464 31.9617C20.5472 33.7694 21.8992 34.9745 22.9508 34.7485C24.1525 34.5226 24.8285 33.1668 24.8285 31.0578C24.8285 29.3254 24.3779 27.6684 23.0259 26.3879C21.8992 25.3334 20.6224 25.6347 19.9464 27.0658Z" fill="white"/>
        <path d="M26.7059 61.0356C25.8797 62.6926 26.1801 64.2744 26.781 65.8561C27.3819 67.5132 28.6587 68.7183 29.7854 68.4924C30.912 68.3417 31.6631 66.9106 31.6631 64.8016C31.7382 63.3705 31.2876 61.7888 30.1609 60.5083C28.9592 59.2279 27.457 59.5291 26.7059 61.0356Z" fill="white"/>
        <path d="M68.6167 62.994C66.063 63.5212 64.1852 65.0277 63.2839 67.5132C62.683 69.095 63.5092 70.2248 65.1617 70.2248C67.4901 70.2248 70.5696 67.3626 70.7198 65.0276C70.87 63.6719 69.8936 62.6927 68.6167 62.994Z" fill="white"/>
        <path d="M48.9381 66.9107C46.5346 66.9107 43.5302 69.5469 43.3049 71.8819C43.1547 72.9364 43.6053 73.6143 44.732 73.8402C47.1355 74.2922 50.5905 71.6559 50.891 69.095C51.1163 67.5886 50.4403 66.9107 48.9381 66.9107Z" fill="white"/>
        <path d="M55.3234 48.3817C53.1452 48.3817 50.1408 50.8673 49.7652 53.0516C49.4648 54.6333 50.4412 55.6878 51.9434 55.5372C54.1216 55.3112 56.6754 53.1269 57.2763 51.0179C57.7269 49.5115 56.9007 48.3817 55.3234 48.3817Z" fill="white"/>
        <path d="M75.3773 44.5403C73.0489 44.3897 69.9694 47.0259 69.669 49.4362C69.4437 51.0933 70.7205 52.2231 72.2227 51.6205C73.4996 51.0933 74.7013 50.3401 75.7529 49.4362C76.504 48.7583 76.8795 47.5532 77.18 47.1013C77.18 45.2182 76.5791 44.6157 75.3773 44.5403Z" fill="white"/>
        <path d="M38.3481 20.1363C38.7237 20.1363 39.0992 20.1363 39.3997 20.1363C41.2774 19.9103 41.8032 18.7805 40.8268 17.1234C39.3997 14.7885 37.2215 14.2612 34.818 14.4872C32.8651 14.6378 32.114 16.2949 33.3909 17.8766C34.6677 19.383 36.3202 20.1363 38.3481 20.1363Z" fill="white"/>
        <path d="M47.7364 29.8526C45.7835 30.3799 45.3329 31.811 46.6848 33.3174C47.9617 34.7485 49.6892 35.4264 51.7172 35.5017C51.9425 35.5017 52.243 35.5017 52.5434 35.4264C54.5714 35.2004 55.2474 33.7693 53.9705 32.1122C52.7688 30.3799 49.7644 29.25 47.7364 29.8526Z" fill="white"/>
        <path d="M48.0369 18.3286C49.6893 18.5546 50.2902 17.8013 50.816 17.1234C51.1164 16.6715 50.816 15.5417 50.4404 14.9391C49.3138 13.0561 45.6334 12.0016 43.6805 12.8301C42.4037 13.3574 42.1032 14.1859 42.7792 15.4664C43.9059 17.2741 45.7836 18.1026 48.0369 18.3286Z" fill="white"/>
        <path d="M57.8013 27.9696C55.548 28.2709 55.0222 29.5513 56.3742 31.4344C57.576 33.0914 60.9559 34.1459 62.8337 33.5434C64.2608 33.0914 64.7114 31.811 63.8852 30.5305C62.6083 28.7228 60.7306 28.1202 58.4773 27.9696C58.3271 27.8943 58.0266 27.8943 57.8013 27.9696Z" fill="white"/>
        <path d="M72.4479 31.5099C74.1003 30.7567 74.4008 29.5516 73.199 28.1958C71.9221 26.7647 70.1946 26.0868 67.8662 26.0115C67.5657 26.0868 66.8146 26.1621 66.2138 26.4634C65.3876 26.84 65.0871 27.5179 65.3875 28.3464C65.9884 30.7567 70.1195 32.5644 72.4479 31.5099Z" fill="white"/>
        <path d="M59.9054 15.9183C60.8819 15.3157 60.957 14.4872 60.3561 13.5833C59.0792 11.625 57.2015 10.7211 54.5726 10.6458C54.2722 10.7211 53.5211 10.7211 53.0704 11.0977C52.6197 11.4743 52.094 12.3029 52.1691 12.7548C52.6949 15.6923 57.4268 17.5 59.9054 15.9183Z" fill="white"/>
    </g>
    <defs>
        <filter id="filter0_d" x="0" y="0" width="96.8977" height="94.4382" filterUnits="userSpaceOnUse" color-interpolation-filters="sRGB">
            <feFlood flood-opacity="0" result="BackgroundImageFix"/>
            <feColorMatrix in="SourceAlpha" type="matrix" values="0 0 0 0 0 0 0 0 0 0 0 0 0 0 0 0 0 0 127 0"/>
            <feOffset dx="2" dy="4"/>
            <feGaussianBlur stdDeviation="3"/>
            <feColorMatrix type="matrix" values="0 0 0 0 0 0 0 0 0 0 0 0 0 0 0 0 0 0 0.25 0"/>
            <feBlend mode="normal" in2="BackgroundImageFix" result="effect1_dropShadow"/>
            <feBlend mode="normal" in="SourceGraphic" in2="effect1_dropShadow" result="shape"/>
        </filter>
    </defs>
</svg>
