<svg width="27" height="27" viewBox="0 0 27 27" fill="none" xmlns="http://www.w3.org/2000/svg">
    <path fill-rule="evenodd" clip-rule="evenodd" d="M0 17.5C0 7.83535 7.83535 0 17.5 0C7.83502 0 0 7.83502 0 17.5ZM26.0449 12.4981C25.9082 13.1134 25.6621 13.6691 25.2479 14.147L25.2202 14.1792L25.2202 14.1792C25.112 14.3051 25.0047 14.4301 24.8869 14.5435C24.596 14.8314 24.3051 15.1194 24.0142 15.4073L19.3907 11.0728C19.5562 10.9067 19.7217 10.7406 19.8871 10.5745C20.6288 9.82734 21.3821 9.16016 22.4684 8.95508H23.1403C23.1485 9.00317 23.1563 8.99544 23.1646 8.98734C23.168 8.98393 23.1715 8.98045 23.1752 8.98106C24.2245 9.15332 24.9443 9.7959 25.5397 10.6217C25.8043 10.9923 25.9774 11.4203 26.0449 11.8706V12.4981ZM17.9779 12.4897L22.5917 16.8152C20.1086 19.2721 17.6245 21.7278 15.1396 24.1821C15.0389 24.2806 14.9174 24.3551 14.7841 24.4002C13.1252 24.9375 11.465 25.47 9.80342 25.9978C9.38916 26.1297 9.04189 25.967 8.96397 25.5876C8.94411 25.4484 8.95722 25.3065 9.00225 25.1733C9.18259 24.5654 9.36491 23.9582 9.54722 23.351L9.54731 23.3507L9.54733 23.3506C9.84524 22.3584 10.1431 21.3663 10.4323 20.3711C10.5229 20.0493 10.6972 19.7573 10.9375 19.5248C13.288 17.1833 15.6348 14.8383 17.9779 12.4897Z" fill="white"/>
</svg>
