<svg width="290" height="67" viewBox="0 0 290 67" fill="none" xmlns="http://www.w3.org/2000/svg">
<path d="M111 0C93.3001 0 86.7001 11 86.5001 11.5C86.3001 11.8 86.3001 12.3 86.5001 12.6C86.7001 13.1 93.3001 24.1 111 24.1C128.7 24.1 135.3 13.1 135.5 12.6C135.7 12.3 135.7 11.9 135.5 11.5C135.3 11 129.2 0 111 0ZM115.9 9.8C117 9.8 117.9 10.7 117.9 11.8C117.9 12.9 117 13.8 115.9 13.8C114.8 13.8 113.9 12.9 113.9 11.8C113.9 10.7 114.8 9.8 115.9 9.8Z" fill="#00A80E"/>
<path d="M87.5 15.6L97.5 7.49999L112.6 4.79999L127.3 8.99999L134.3 16C134.3 16 129.1 23.2 119.3 25.9C113.3 27.6 104.4 26.5 96.9 24.3C88.1 21.6 87.5 15.6 87.5 15.6Z" fill="white"/>
<path d="M37 35.7C35.9 34.5 34.5 33.5 32.8 32.7C31.2 32 29.3 31.5 27.2 31.4C26.8 31.3 26.3 31.3 25.6 31.3C25 31.3 24.3 31.3 23.5 31.3C22.8 31.3 22 31.2 21.2 31.2C20.4 31.1 19.7 31 19.1 30.8C18.5 30.6 18 30.3 17.6 30C17.2 29.7 17 29.2 17 28.6C17 28.1 17.1 27.7 17.4 27.3C17.7 26.9 18.1 26.6 18.5 26.4C19 26.2 19.5 26 20.1 25.9C20.7 25.8 21.3 25.7 21.9 25.6C22.5 25.5 23 25.5 23.6 25.5C24.1 25.5 24.6 25.5 24.9 25.5C26.7 25.5 28.6 25.7 30.5 26.1C32.4 26.5 34.3 27 36 27.6L37.4 12C36.3 11.5 35.1 11 33.8 10.6C32.5 10.2 31.2 9.89998 29.9 9.69998C28.6 9.49998 27.2 9.29998 25.9 9.19998C24.6 9.09998 23.3 9.09998 22 9.09998C19.2 9.09998 16.4 9.59998 13.8 10.5C11.2 11.4 8.8 12.7 6.7 14.4C4.6 16.1 3 18.1 1.8 20.5C0.6 22.9 0 25.6 0 28.7C0 30.9 0.4 33 1.1 34.9C1.8 36.8 2.8 38.4 4.1 39.8C5.4 41.2 7 42.2 8.8 43C10.6 43.8 12.6 44.2 14.8 44.2C15.1 44.2 15.5 44.2 16 44.2C16.5 44.2 17.1 44.2 17.7 44.3C18.3 44.4 18.9 44.4 19.5 44.6C20.1 44.7 20.7 44.9 21.2 45.1C21.7 45.3 22.1 45.6 22.4 46C22.7 46.3 22.9 46.8 22.9 47.3C22.9 48 22.7 48.6 22.2 49C21.7 49.4 21.2 49.7 20.6 49.9C20 50.1 19.3 50.2 18.6 50.2C17.9 50.2 17.3 50.3 16.8 50.3C14.2 50.3 11.6 50 8.9 49.3C6.2 48.6 3.8 47.6 1.6 46.3L0 61.9C1.1 62.4 2.4 63 3.8 63.5C5.2 64.1 6.7 64.6 8.3 65.1C9.9 65.6 11.4 66 12.9 66.4C14.4 66.8 15.8 66.9 17.1 66.9C20.4 66.9 23.4 66.5 26.3 65.6C29.1 64.7 31.6 63.4 33.8 61.7C36 60 37.6 57.8 38.8 55.1C40 52.4 40.6 49.4 40.6 45.8C40.6 43.7 40.3 41.9 39.7 40.1C39.1 38.3 38.1 37 37 35.7Z" fill="#009ADC"/>
<path d="M84.3 19.6C83.2 18.2 81.8 16.9 80.3 15.9C78.8 14.9 77 14 75.2 13.3C73.4 12.6 71.5 12.1 69.5 11.8C67.5 11.5 65.5 11.3 63.5 11.3C60 11.3 56.6 11.5 53.3 12C50 12.5 46.7 13.2 43.4 14.2C43.2 17.4 43.2 20.6 43.2 23.7C43.2 26.8 43.2 30 43.2 33.1C43.2 36.1 43.2 38.9 43.1 41.7C43.1 44.5 43.1 47.2 43.1 50C43.1 52.7 43.1 55.5 43.1 58.3C43.1 61.1 43.1 63.9 43.1 66.9H61.1V50.5C63.2 50.5 65.3 50.3 67.4 50C69.5 49.7 71.6 49.2 73.6 48.6C75.6 48 77.5 47.2 79.2 46.2C80.9 45.2 82.5 44 83.8 42.5C85.1 41 86.1 39.4 86.9 37.4C87.6 35.5 88 33.3 88 30.8C88 28.5 87.7 26.5 87 24.6C86.3 22.7 85.4 21.1 84.3 19.6ZM70.2 34.7C69.8 35.5 69.3 36.2 68.6 36.7C67.9 37.2 67.2 37.7 66.3 38C65.4 38.3 64.5 38.5 63.6 38.5C63.2 38.5 62.9 38.5 62.6 38.5C62.3 38.5 61.9 38.5 61.6 38.4L62 27.2C62.5 27.1 63.1 27 63.6 26.9C64.2 26.8 64.7 26.8 65.3 26.8C66.9 26.8 68.2 27.3 69.3 28.2C70.3 29.1 70.8 30.4 70.8 32.1C70.8 33.1 70.6 33.9 70.2 34.7Z" fill="#009ADC"/>
<path d="M125 25.4L111.7 27.5L94.3 22.6L86.9 16.8L101 43.9L100.5 65.6H120.4L119.9 43.7L135.4 16.3L125 25.4Z" fill="#00A80E"/>
<path d="M170.1 42.7L170.9 30.7H156.7V25.8L173 25C173.2 22.6 173.4 20.2 173.5 17.8C173.6 15.4 173.8 13 173.9 10.6H138.3L137.1 66.3L156.7 65.9L156.6 43L170.1 42.7Z" fill="#009ADC"/>
<path d="M183 12.1L167.6 63.6L187.3 65.5L189.2 56.8H198L200.3 65.5L219.5 63L204.4 11L183 12.1ZM190.9 45L193.8 31.6L196.7 45H190.9Z" fill="#009ADC"/>
<path d="M241.5 10.4H221.4L220.1 65.6L252.7 63.1L254.3 45.9H238.6L241.5 10.4Z" fill="#009ADC"/>
<path d="M274.3 45.9L277.2 10.4H257.1L255.8 65.6L288.4 63.1L290 45.9H274.3Z" fill="#009ADC"/>
<path d="M111 4C93.3 4 86.7 15 86.5 15.5C86.3 15.8 86.3 16.3 86.5 16.6C86.7 17.1 93.3 28.1 111 28.1C128.7 28.1 135.3 17.1 135.5 16.6C135.7 16.3 135.7 15.9 135.5 15.5C135.3 15 129.2 4 111 4ZM115.9 13.8C117 13.8 117.9 14.7 117.9 15.8C117.9 16.9 117 17.8 115.9 17.8C114.8 17.8 113.9 16.9 113.9 15.8C113.9 14.7 114.8 13.8 115.9 13.8ZM111 25.8C97 25.8 90.4 18.2 88.8 16C89.7 14.8 92.1 11.8 96.6 9.5C96.8 17.2 103.1 23.5 111 23.5C118.9 23.5 125.2 17.2 125.4 9.4C126.7 10.1 127.8 10.8 128.7 11.4C131.2 13.2 132.6 15.1 133.2 16C131.6 18.2 125.1 25.8 111 25.8Z" fill="black"/>
<path d="M111 34.2L114.8 27.6H107.1L111 34.2Z" fill="black"/>
<path opacity="0.3" d="M134.3 17.2L124.9 25.3L111.6 27.5L94.2 22.6L87.5 17.3C87.4 17.4 87.3 17.5 87.3 17.6L91.3 25.2C95.1 28.2 101.4 31.5 111 31.5C120.1 31.5 126.2 28.6 130.1 25.7L134.7 17.6C134.6 17.5 134.5 17.4 134.3 17.2Z" fill="black"/>
<g opacity="0.7">
<path opacity="0.22" d="M18.5 26.5C19 26.3 19.5 26.1 20.1 26C20.7 25.9 21.3 25.8 21.9 25.7C22.5 25.6 23 25.6 23.6 25.6C24.1 25.6 24.6 25.6 24.9 25.6C26.7 25.6 28.6 25.8 30.5 26.2C32.4 26.6 34.3 27.1 36 27.7L37.4 12C36.3 11.5 35.1 11 33.8 10.6C32.5 10.2 31.3 9.89998 30 9.69998C28.7 9.49998 27.3 9.29998 26 9.19998C24.7 9.09998 23.4 9.09998 22.1 9.09998C19.3 9.09998 16.5 9.59998 13.9 10.5C11.3 11.4 8.9 12.7 6.8 14.4C4.7 16.1 3.1 18.1 1.9 20.5C0.7 22.9 0 25.6 0 28.6C0 29.3 0.1 30 0.2 30.7C11.7 33.8 24.8 36.5 39 38.7C38.5 37.6 37.8 36.5 37 35.6C35.9 34.4 34.5 33.4 32.8 32.6C31.2 31.9 29.3 31.4 27.2 31.3C26.8 31.2 26.3 31.2 25.6 31.2C25 31.2 24.3 31.2 23.5 31.2C22.8 31.2 22 31.1 21.2 31.1C20.4 31 19.7 30.9 19.1 30.7C18.5 30.5 18 30.2 17.6 29.9C17.2 29.6 17 29.1 17 28.5C17 28 17.1 27.6 17.4 27.2C17.7 27 18.1 26.7 18.5 26.5Z" fill="url(#paint0_linear)"/>
<path opacity="0.22" d="M84.3 19.6C83.2 18.2 81.8 16.9 80.3 15.9C78.7 14.9 77.1 14 75.2 13.3C73.4 12.6 71.5 12.1 69.5 11.8C67.5 11.5 65.5 11.3 63.5 11.3C60 11.3 56.6 11.5 53.4 12C50.1 12.5 46.8 13.2 43.5 14.2C43.3 17.4 43.3 20.6 43.3 23.7C43.3 26.8 43.3 30 43.3 33.1C43.3 35.3 43.3 37.3 43.3 39.4C55.5 41.2 68.5 42.7 82.1 43.9C82.7 43.4 83.4 43 83.9 42.5C85.2 41 86.2 39.4 87 37.4C87.8 35.4 88.1 33.3 88.1 30.8C88.1 28.5 87.8 26.5 87.1 24.6C86.3 22.7 85.4 21 84.3 19.6ZM70.2 34.7C69.8 35.5 69.3 36.2 68.6 36.7C67.9 37.3 67.2 37.7 66.3 38C65.4 38.3 64.5 38.5 63.6 38.5C63.2 38.5 62.9 38.5 62.6 38.5C62.3 38.5 61.9 38.5 61.6 38.4L62 27.2C62.5 27.1 63.1 27 63.6 26.9C64.1 26.8 64.7 26.8 65.3 26.8C66.9 26.8 68.2 27.3 69.3 28.2C70.3 29.1 70.8 30.4 70.8 32.1C70.8 33 70.6 33.9 70.2 34.7Z" fill="url(#paint1_linear)"/>
<path opacity="0.22" d="M125 25.3L111.7 27.5L94.3 22.6L86.9 16.7L101 43.9V45.2C107.2 45.5 113.5 45.7999 119.9 46L119.8 43.7L135.4 16.2L125 25.3Z" fill="url(#paint2_linear)"/>
<path opacity="0.22" d="M137.6 46.3C139.5 46.3 141.4 46.3 143.3 46.3C147.8 46.3 152.2 46.2 156.6 46.2V43.1L170.1 42.7L170.9 30.7H156.7V25.8L173.1 24.9C173.3 22.5 173.5 20.1 173.6 17.7C173.7 15.3 173.9 12.9 174 10.5H138.4L137.6 46.3Z" fill="url(#paint3_linear)"/>
<path opacity="0.22" d="M204.6 11L183.1 12.1L173 45.8C179.1 45.6 185.1 45.3 191 44.9L193.8 31.5L196.6 44.5C202.4 44.1 208.2 43.6 213.8 43.1L204.6 11Z" fill="url(#paint4_linear)"/>
<path opacity="0.22" d="M220.7 42.3C227 41.6 233.2 40.8 239.1 40L241.5 10.4H221.4L220.7 42.3Z" fill="url(#paint5_linear)"/>
<path opacity="0.22" d="M256.5 37.3C263.1 36.1 269.4 34.9 275.3 33.5L277.2 10.4H257.1L256.5 37.3Z" fill="url(#paint6_linear)"/>
</g>
<defs>
<linearGradient id="paint0_linear" x1="19.5483" y1="38.691" x2="19.5483" y2="9.12958" gradientUnits="userSpaceOnUse">
<stop stop-color="white"/>
<stop offset="1" stop-color="#0086DC"/>
</linearGradient>
<linearGradient id="paint1_linear" x1="65.7555" y1="43.8901" x2="65.7555" y2="11.3326" gradientUnits="userSpaceOnUse">
<stop stop-color="white"/>
<stop offset="1" stop-color="#0086DC"/>
</linearGradient>
<linearGradient id="paint2_linear" x1="111.21" y1="45.991" x2="111.21" y2="16.2298" gradientUnits="userSpaceOnUse">
<stop stop-color="white"/>
<stop offset="1" stop-color="#0086DC"/>
</linearGradient>
<linearGradient id="paint3_linear" x1="155.845" y1="46.2892" x2="155.845" y2="10.5358" gradientUnits="userSpaceOnUse">
<stop stop-color="white"/>
<stop offset="1" stop-color="#0086DC"/>
</linearGradient>
<linearGradient id="paint4_linear" x1="193.451" y1="45.7895" x2="193.451" y2="11.0348" gradientUnits="userSpaceOnUse">
<stop stop-color="white"/>
<stop offset="1" stop-color="#0086DC"/>
</linearGradient>
<linearGradient id="paint5_linear" x1="231.126" y1="42.2903" x2="231.126" y2="10.4319" gradientUnits="userSpaceOnUse">
<stop stop-color="white"/>
<stop offset="1" stop-color="#0086DC"/>
</linearGradient>
<linearGradient id="paint6_linear" x1="266.876" y1="37.2918" x2="266.876" y2="10.4269" gradientUnits="userSpaceOnUse">
<stop stop-color="white"/>
<stop offset="1" stop-color="#0086DC"/>
</linearGradient>
</defs>
</svg>
