<svg width="26" height="26" viewBox="0 0 26 26" fill="none" xmlns="http://www.w3.org/2000/svg">
    <path d="M13 0C11.9363 0 11.0741 0.862284 11.0741 1.92592V11.0741H1.92592C0.862284 11.0741 0 11.9363 0 13C0 14.0637 0.862284 14.9259 1.92592 14.9259H11.0741V24.0741C11.0741 25.1377 11.9363 26 13 26C14.0637 26 14.9259 25.1377 14.9259 24.0741V14.9259H24.074C25.1377 14.9259 26 14.0637 26 13C26 11.9363 25.1377 11.0741 24.074 11.0741H14.9259V1.92592C14.9259 0.862284 14.0637 0 13 0Z" fill="white"/>
</svg>
