<svg width="152" height="152" viewBox="0 0 152 152" fill="none" xmlns="http://www.w3.org/2000/svg">
    <g opacity="0.5">
        <g filter="url(#filter0_d)">
            <path d="M91.8644 99.3551C89.6271 98.1121 86.8927 96.9935 83.661 96.372L82.791 96.1234L83.2881 95.3777C86.2712 90.6545 89.0056 85.9313 91.3672 81.5811C96.8362 71.0161 99.4463 62.5641 99.4463 55.9765C99.4463 41.3099 87.5141 29.502 72.7232 29.502C57.9322 29.502 46 41.3099 46 55.8522C46 62.4398 48.6102 70.8918 54.0791 81.4568C56.4407 85.9313 59.0508 90.5302 62.1582 95.2534L62.6554 95.9991L61.7853 96.2477C58.4294 96.9935 55.6949 97.9878 53.5819 99.2308C51.2203 100.598 48.4859 102.96 48.4859 106.316C48.4859 108.056 49.3559 109.796 50.8475 111.287C52.2147 112.654 53.9548 113.649 56.1921 114.643C60.6667 116.508 66.5085 117.502 72.7232 117.502C78.9379 117.502 84.7797 116.508 89.2542 114.643C91.6158 113.649 93.3559 112.53 94.5989 111.287C96.0904 109.796 96.9604 108.056 96.9604 106.316C96.9604 103.084 94.226 100.722 91.8644 99.3551ZM57.435 79.7166C52.4633 70.146 49.7288 61.694 49.7288 55.8522C49.7288 43.4229 60.0452 33.2308 72.7232 33.2308C85.4011 33.2308 95.7175 43.4229 95.7175 55.8522C95.7175 61.5697 92.983 70.146 88.0113 79.7166C84.4068 86.8014 79.3107 94.7562 73.2203 103.084L72.7232 103.83L72.226 103.084C66.0113 94.7562 61.0395 86.9257 57.435 79.7166ZM91.9887 108.801C91.1186 109.671 89.5028 110.666 87.7627 111.412C83.9096 113.027 78.3164 114.022 72.7232 114.022C67.1299 114.022 61.5367 113.027 57.6836 111.412C55.8192 110.666 54.3277 109.671 53.4576 108.801C52.5876 107.931 52.2147 107.31 52.2147 106.44C52.2147 105.694 52.5876 104.203 55.4463 102.587C57.6836 101.219 60.9153 100.225 64.5198 99.6036L64.8927 99.4793L65.1412 99.8522C67.3785 103.084 69.3672 105.818 71.2316 108.429C71.6045 108.926 72.1017 109.174 72.7232 109.174C73.096 109.174 73.4689 109.05 73.8418 108.801C73.9661 108.677 74.0904 108.553 74.2147 108.429C76.0791 105.943 78.0678 103.084 80.3051 99.8522L80.5537 99.4793L80.9266 99.6036C84.5311 100.225 87.7627 101.344 90 102.587C92.8588 104.203 93.2316 105.694 93.2316 106.44C93.2316 107.186 92.8588 107.931 91.9887 108.801Z" fill="white"/>
            <path d="M72.7233 43.7958C65.8872 43.7958 60.2939 49.389 60.2939 56.2252C60.2939 63.0613 65.8872 68.6545 72.7233 68.6545C79.5595 68.6545 85.1527 63.0613 85.1527 56.2252C85.1527 49.389 79.5595 43.7958 72.7233 43.7958ZM72.7233 64.9257C68.0002 64.9257 64.0228 61.0726 64.0228 56.2252C64.0228 51.502 67.8759 47.5246 72.7233 47.5246C77.4465 47.5246 81.4239 51.3777 81.4239 56.2252C81.4239 60.9483 77.4465 64.9257 72.7233 64.9257Z" fill="white"/>
        </g>
    </g>
    <defs>
        <filter id="filter0_d" x="42" y="27.502" width="65.4463" height="100" filterUnits="userSpaceOnUse" color-interpolation-filters="sRGB">
            <feFlood flood-opacity="0" result="BackgroundImageFix"/>
            <feColorMatrix in="SourceAlpha" type="matrix" values="0 0 0 0 0 0 0 0 0 0 0 0 0 0 0 0 0 0 127 0"/>
            <feOffset dx="2" dy="4"/>
            <feGaussianBlur stdDeviation="3"/>
            <feColorMatrix type="matrix" values="0 0 0 0 0 0 0 0 0 0 0 0 0 0 0 0 0 0 0.25 0"/>
            <feBlend mode="normal" in2="BackgroundImageFix" result="effect1_dropShadow"/>
            <feBlend mode="normal" in="SourceGraphic" in2="effect1_dropShadow" result="shape"/>
        </filter>
    </defs>
</svg>
