<svg width="316" height="348" viewBox="0 0 316 348" fill="none" xmlns="http://www.w3.org/2000/svg">
    <path d="M148.359 241.341C153.565 241.341 157.785 237.121 157.785 231.915C157.785 226.71 153.565 222.49 148.359 222.49C143.154 222.49 138.934 226.71 138.934 231.915C138.934 237.121 143.154 241.341 148.359 241.341Z" fill="white"/>
    <path d="M166.426 165.937C166.688 173.53 162.237 180.861 155.168 183.741C147.313 186.883 141.815 194.999 141.815 203.901V208.09H154.906V203.901C154.906 200.497 157 197.094 159.88 196.046C172.186 191.072 180.04 178.766 179.517 165.676C178.731 149.705 165.64 136.614 149.931 136.09C141.291 135.566 133.175 138.708 126.891 144.73C120.608 150.752 117.204 158.606 117.204 167.246H130.295C130.295 162.272 132.39 157.559 135.793 154.156C139.459 150.752 144.171 148.919 149.146 149.181C158.571 149.181 165.902 156.512 166.426 165.937Z" fill="white"/>
    <path d="M227.646 97.1368C229.452 97.1368 230.916 95.6727 230.916 93.8666C230.916 92.0605 229.452 90.5964 227.646 90.5964C225.84 90.5964 224.376 92.0605 224.376 93.8666C224.376 95.6727 225.84 97.1368 227.646 97.1368Z" fill="white"/>
    <path d="M233.915 70.9754C234.005 73.6097 232.461 76.1532 230.009 77.1524C227.283 78.2425 225.376 81.0585 225.376 84.147V85.6004H229.918V84.147C229.918 82.9661 230.644 81.7852 231.644 81.4218C235.913 79.6959 238.638 75.4265 238.457 70.8846C238.184 65.3434 233.642 60.8015 228.192 60.6198C225.194 60.4381 222.378 61.5282 220.198 63.6175C218.018 65.7067 216.837 68.4319 216.837 71.4296H221.379C221.379 69.7036 222.106 68.0686 223.286 66.8877C224.558 65.7067 226.193 65.0709 227.919 65.1617C231.189 65.1617 233.733 67.7052 233.915 70.9754Z" fill="white"/>
    <path d="M253.931 125.154L253.053 125.065L252.266 125.465C235.033 134.238 214.364 132.82 198.488 121.787C174.689 105.244 168.808 72.524 185.352 48.7239C201.88 24.9467 234.545 19.0634 258.34 35.552L262.914 39.1048C280.421 54.3168 285.847 79.2261 276.238 100.348L276.076 100.627C275.927 100.885 275.712 101.256 275.449 101.707C274.923 102.61 274.208 103.831 273.449 105.106C271.865 107.77 270.28 110.347 269.719 111.057L268.229 112.947L269.749 114.812L275.808 122.241C276.319 122.867 276.552 123.648 276.472 124.438C276.305 126.078 274.833 127.278 273.193 127.112L253.931 125.154Z" stroke="#02D113" stroke-width="6"/>
    <path d="M198 100.5L160 90.5H157.5C175.833 114 213 161.4 215 163C217 164.6 229.167 150.333 235 143L224.5 119.5L198 100.5Z" fill="#002539"/>
    <path d="M123.781 283.028L125.025 282.575L126.315 282.868C161.697 290.893 198.641 278.804 222.44 251.43C258.115 210.389 253.754 148.168 212.711 112.492C171.7 76.8423 109.563 81.1813 73.8727 122.142L67.2244 130.663C42.3548 166.405 43.9527 214.248 71.1884 248.255L71.1965 248.263C71.2987 248.368 71.4495 248.523 71.6428 248.721C72.0294 249.118 72.5862 249.688 73.2653 250.381C74.624 251.767 76.469 253.64 78.4177 255.593C82.4535 259.637 86.54 263.618 87.9425 264.695L90.8052 266.894L89.2796 270.165L81.7609 286.289C81.0076 287.905 80.9302 289.709 81.5315 291.361C82.7797 294.79 86.5861 296.565 90.0156 295.317L123.781 283.028Z" stroke="#00AEE5" stroke-width="9"/>
</svg>
