<svg width="307" height="335" viewBox="0 0 307 335" fill="none" xmlns="http://www.w3.org/2000/svg">
    <g filter="url(#filter0_d)">
        <path d="M278.875 86.875C271.841 86.875 266.125 81.1587 266.125 74.125C266.125 72.9562 265.169 72 264 72C262.831 72 261.875 72.9562 261.875 74.125C261.875 81.1587 256.159 86.875 249.125 86.875C247.956 86.875 247 87.8313 247 89C247 90.1688 247.956 91.125 249.125 91.125C256.159 91.125 261.875 96.8412 261.875 103.875C261.875 105.044 262.831 106 264 106C265.169 106 266.125 105.044 266.125 103.875C266.125 96.8412 271.841 91.125 278.875 91.125C280.044 91.125 281 90.1688 281 89C281 87.8313 280.044 86.875 278.875 86.875ZM264 95.6513C262.449 92.8675 260.132 90.5513 257.349 89C260.132 87.4487 262.449 85.1325 264 82.3488C265.551 85.1325 267.868 87.4487 270.651 89C267.868 90.5513 265.551 92.8675 264 95.6513Z" fill="white"/>
    </g>
    <g filter="url(#filter1_d)">
        <path d="M34.875 216.875C27.8412 216.875 22.125 211.159 22.125 204.125C22.125 202.956 21.1688 202 20 202C18.8313 202 17.875 202.956 17.875 204.125C17.875 211.159 12.1587 216.875 5.125 216.875C3.95625 216.875 3 217.831 3 219C3 220.169 3.95625 221.125 5.125 221.125C12.1587 221.125 17.875 226.841 17.875 233.875C17.875 235.044 18.8313 236 20 236C21.1688 236 22.125 235.044 22.125 233.875C22.125 226.841 27.8412 221.125 34.875 221.125C36.0438 221.125 37 220.169 37 219C37 217.831 36.0438 216.875 34.875 216.875ZM20 225.651C18.4487 222.868 16.1325 220.551 13.3488 219C16.1325 217.449 18.4487 215.132 20 212.349C21.5513 215.132 23.8675 217.449 26.6513 219C23.8675 220.551 21.5513 222.868 20 225.651Z" fill="white"/>
    </g>
    <g opacity="0.5" filter="url(#filter2_d)">
        <path d="M278.875 265.875C271.841 265.875 266.125 260.159 266.125 253.125C266.125 251.956 265.169 251 264 251C262.831 251 261.875 251.956 261.875 253.125C261.875 260.159 256.159 265.875 249.125 265.875C247.956 265.875 247 266.831 247 268C247 269.169 247.956 270.125 249.125 270.125C256.159 270.125 261.875 275.841 261.875 282.875C261.875 284.044 262.831 285 264 285C265.169 285 266.125 284.044 266.125 282.875C266.125 275.841 271.841 270.125 278.875 270.125C280.044 270.125 281 269.169 281 268C281 266.831 280.044 265.875 278.875 265.875ZM264 274.651C262.449 271.868 260.132 269.551 257.349 268C260.132 266.449 262.449 264.132 264 261.349C265.551 264.132 267.868 266.449 270.651 268C267.868 269.551 265.551 271.868 264 274.651Z" fill="white"/>
    </g>
    <g filter="url(#filter3_d)">
        <path d="M154.875 305.875C147.841 305.875 142.125 300.159 142.125 293.125C142.125 291.956 141.169 291 140 291C138.831 291 137.875 291.956 137.875 293.125C137.875 300.159 132.159 305.875 125.125 305.875C123.956 305.875 123 306.831 123 308C123 309.169 123.956 310.125 125.125 310.125C132.159 310.125 137.875 315.841 137.875 322.875C137.875 324.044 138.831 325 140 325C141.169 325 142.125 324.044 142.125 322.875C142.125 315.841 147.841 310.125 154.875 310.125C156.044 310.125 157 309.169 157 308C157 306.831 156.044 305.875 154.875 305.875ZM140 314.651C138.449 311.868 136.132 309.551 133.349 308C136.132 306.449 138.449 304.132 140 301.349C141.551 304.132 143.868 306.449 146.651 308C143.868 309.551 141.551 311.868 140 314.651Z" fill="white"/>
    </g>
    <g filter="url(#filter4_d)">
        <path d="M88.875 33.875C81.8412 33.875 76.125 28.1587 76.125 21.125C76.125 19.9562 75.1688 19 74 19C72.8313 19 71.875 19.9562 71.875 21.125C71.875 28.1587 66.1587 33.875 59.125 33.875C57.9562 33.875 57 34.8313 57 36C57 37.1688 57.9562 38.125 59.125 38.125C66.1587 38.125 71.875 43.8412 71.875 50.875C71.875 52.0438 72.8313 53 74 53C75.1688 53 76.125 52.0438 76.125 50.875C76.125 43.8412 81.8412 38.125 88.875 38.125C90.0438 38.125 91 37.1688 91 36C91 34.8313 90.0438 33.875 88.875 33.875ZM74 42.6513C72.4487 39.8675 70.1325 37.5513 67.3488 36C70.1325 34.4487 72.4487 32.1325 74 29.3488C75.5513 32.1325 77.8675 34.4487 80.6513 36C77.8675 37.5513 75.5513 39.8675 74 42.6513Z" fill="white"/>
    </g>
    <g filter="url(#filter5_d)">
        <path d="M287.938 113.438C284.421 113.438 281.562 110.579 281.562 107.062C281.562 106.478 281.084 106 280.5 106C279.916 106 279.438 106.478 279.438 107.062C279.438 110.579 276.579 113.438 273.062 113.438C272.478 113.438 272 113.916 272 114.5C272 115.084 272.478 115.562 273.062 115.562C276.579 115.562 279.438 118.421 279.438 121.938C279.438 122.522 279.916 123 280.5 123C281.084 123 281.562 122.522 281.562 121.938C281.562 118.421 284.421 115.562 287.938 115.562C288.522 115.562 289 115.084 289 114.5C289 113.916 288.522 113.438 287.938 113.438ZM280.5 117.826C279.724 116.434 278.566 115.276 277.174 114.5C278.566 113.724 279.724 112.566 280.5 111.174C281.276 112.566 282.434 113.724 283.826 114.5C282.434 115.276 281.276 116.434 280.5 117.826Z" fill="white"/>
    </g>
    <g opacity="0.5" filter="url(#filter6_d)">
        <path d="M24.9375 81.4375C21.4206 81.4375 18.5625 78.5794 18.5625 75.0625C18.5625 74.4781 18.0844 74 17.5 74C16.9156 74 16.4375 74.4781 16.4375 75.0625C16.4375 78.5794 13.5794 81.4375 10.0625 81.4375C9.47812 81.4375 9 81.9156 9 82.5C9 83.0844 9.47812 83.5625 10.0625 83.5625C13.5794 83.5625 16.4375 86.4206 16.4375 89.9375C16.4375 90.5219 16.9156 91 17.5 91C18.0844 91 18.5625 90.5219 18.5625 89.9375C18.5625 86.4206 21.4206 83.5625 24.9375 83.5625C25.5219 83.5625 26 83.0844 26 82.5C26 81.9156 25.5219 81.4375 24.9375 81.4375ZM17.5 85.8256C16.7244 84.4338 15.5662 83.2756 14.1744 82.5C15.5662 81.7244 16.7244 80.5662 17.5 79.1744C18.2756 80.5662 19.4338 81.7244 20.8256 82.5C19.4338 83.2756 18.2756 84.4338 17.5 85.8256Z" fill="white"/>
    </g>
    <g filter="url(#filter7_d)">
        <path d="M53.9375 105.438C50.4206 105.438 47.5625 102.579 47.5625 99.0625C47.5625 98.4781 47.0844 98 46.5 98C45.9156 98 45.4375 98.4781 45.4375 99.0625C45.4375 102.579 42.5794 105.438 39.0625 105.438C38.4781 105.438 38 105.916 38 106.5C38 107.084 38.4781 107.562 39.0625 107.562C42.5794 107.562 45.4375 110.421 45.4375 113.938C45.4375 114.522 45.9156 115 46.5 115C47.0844 115 47.5625 114.522 47.5625 113.938C47.5625 110.421 50.4206 107.562 53.9375 107.562C54.5219 107.562 55 107.084 55 106.5C55 105.916 54.5219 105.438 53.9375 105.438ZM46.5 109.826C45.7244 108.434 44.5662 107.276 43.1744 106.5C44.5662 105.724 45.7244 104.566 46.5 103.174C47.2756 104.566 48.4338 105.724 49.8256 106.5C48.4338 107.276 47.2756 108.434 46.5 109.826Z" fill="white"/>
    </g>
    <g filter="url(#filter8_d)">
        <path d="M234.938 298.438C231.421 298.438 228.562 295.579 228.562 292.062C228.562 291.478 228.084 291 227.5 291C226.916 291 226.438 291.478 226.438 292.062C226.438 295.579 223.579 298.438 220.062 298.438C219.478 298.438 219 298.916 219 299.5C219 300.084 219.478 300.562 220.062 300.562C223.579 300.562 226.438 303.421 226.438 306.938C226.438 307.522 226.916 308 227.5 308C228.084 308 228.562 307.522 228.562 306.938C228.562 303.421 231.421 300.562 234.938 300.562C235.522 300.562 236 300.084 236 299.5C236 298.916 235.522 298.438 234.938 298.438ZM227.5 302.826C226.724 301.434 225.566 300.276 224.174 299.5C225.566 298.724 226.724 297.566 227.5 296.174C228.276 297.566 229.434 298.724 230.826 299.5C229.434 300.276 228.276 301.434 227.5 302.826Z" fill="white"/>
    </g>
    <g opacity="0.5" filter="url(#filter9_d)">
        <path d="M155.938 34.4375C152.421 34.4375 149.562 31.5794 149.562 28.0625C149.562 27.4781 149.084 27 148.5 27C147.916 27 147.438 27.4781 147.438 28.0625C147.438 31.5794 144.579 34.4375 141.062 34.4375C140.478 34.4375 140 34.9156 140 35.5C140 36.0844 140.478 36.5625 141.062 36.5625C144.579 36.5625 147.438 39.4206 147.438 42.9375C147.438 43.5219 147.916 44 148.5 44C149.084 44 149.562 43.5219 149.562 42.9375C149.562 39.4206 152.421 36.5625 155.938 36.5625C156.522 36.5625 157 36.0844 157 35.5C157 34.9156 156.522 34.4375 155.938 34.4375ZM148.5 38.8256C147.724 37.4338 146.566 36.2756 145.174 35.5C146.566 34.7244 147.724 33.5662 148.5 32.1744C149.276 33.5662 150.434 34.7244 151.826 35.5C150.434 36.2756 149.276 37.4338 148.5 38.8256Z" fill="white"/>
    </g>
    <g filter="url(#filter10_d)">
        <path d="M25.9375 170.438C22.4206 170.438 19.5625 167.579 19.5625 164.062C19.5625 163.478 19.0844 163 18.5 163C17.9156 163 17.4375 163.478 17.4375 164.062C17.4375 167.579 14.5794 170.438 11.0625 170.438C10.4781 170.438 10 170.916 10 171.5C10 172.084 10.4781 172.562 11.0625 172.562C14.5794 172.562 17.4375 175.421 17.4375 178.938C17.4375 179.522 17.9156 180 18.5 180C19.0844 180 19.5625 179.522 19.5625 178.938C19.5625 175.421 22.4206 172.562 25.9375 172.562C26.5219 172.562 27 172.084 27 171.5C27 170.916 26.5219 170.438 25.9375 170.438ZM18.5 174.826C17.7244 173.434 16.5662 172.276 15.1744 171.5C16.5662 170.724 17.7244 169.566 18.5 168.174C19.2756 169.566 20.4338 170.724 21.8256 171.5C20.4338 172.276 19.2756 173.434 18.5 174.826Z" fill="white"/>
    </g>
    <g opacity="0.5" filter="url(#filter11_d)">
        <path d="M70.9375 290.438C67.4206 290.438 64.5625 287.579 64.5625 284.062C64.5625 283.478 64.0844 283 63.5 283C62.9156 283 62.4375 283.478 62.4375 284.062C62.4375 287.579 59.5794 290.438 56.0625 290.438C55.4781 290.438 55 290.916 55 291.5C55 292.084 55.4781 292.562 56.0625 292.562C59.5794 292.562 62.4375 295.421 62.4375 298.938C62.4375 299.522 62.9156 300 63.5 300C64.0844 300 64.5625 299.522 64.5625 298.938C64.5625 295.421 67.4206 292.562 70.9375 292.562C71.5219 292.562 72 292.084 72 291.5C72 290.916 71.5219 290.438 70.9375 290.438ZM63.5 294.826C62.7244 293.434 61.5662 292.276 60.1744 291.5C61.5662 290.724 62.7244 289.566 63.5 288.174C64.2756 289.566 65.4338 290.724 66.8256 291.5C65.4338 292.276 64.2756 293.434 63.5 294.826Z" fill="white"/>
    </g>
    <g filter="url(#filter12_d)">
        <path d="M296.938 179.438C293.421 179.438 290.562 176.579 290.562 173.062C290.562 172.478 290.084 172 289.5 172C288.916 172 288.438 172.478 288.438 173.062C288.438 176.579 285.579 179.438 282.062 179.438C281.478 179.438 281 179.916 281 180.5C281 181.084 281.478 181.562 282.062 181.562C285.579 181.562 288.438 184.421 288.438 187.938C288.438 188.522 288.916 189 289.5 189C290.084 189 290.562 188.522 290.562 187.938C290.562 184.421 293.421 181.562 296.938 181.562C297.522 181.562 298 181.084 298 180.5C298 179.916 297.522 179.438 296.938 179.438ZM289.5 183.826C288.724 182.434 287.566 181.276 286.174 180.5C287.566 179.724 288.724 178.566 289.5 177.174C290.276 178.566 291.434 179.724 292.826 180.5C291.434 181.276 290.276 182.434 289.5 183.826Z" fill="white"/>
    </g>
    <g filter="url(#filter13_d)">
        <path d="M188.938 9.4375C185.421 9.4375 182.562 6.57937 182.562 3.0625C182.562 2.47812 182.084 2 181.5 2C180.916 2 180.438 2.47812 180.438 3.0625C180.438 6.57937 177.579 9.4375 174.062 9.4375C173.478 9.4375 173 9.91563 173 10.5C173 11.0844 173.478 11.5625 174.062 11.5625C177.579 11.5625 180.438 14.4206 180.438 17.9375C180.438 18.5219 180.916 19 181.5 19C182.084 19 182.562 18.5219 182.562 17.9375C182.562 14.4206 185.421 11.5625 188.938 11.5625C189.522 11.5625 190 11.0844 190 10.5C190 9.91563 189.522 9.4375 188.938 9.4375ZM181.5 13.8256C180.724 12.4338 179.566 11.2756 178.174 10.5C179.566 9.72437 180.724 8.56625 181.5 7.17438C182.276 8.56625 183.434 9.72437 184.826 10.5C183.434 11.2756 182.276 12.4338 181.5 13.8256Z" fill="white"/>
    </g>
    <g filter="url(#filter14_d)">
        <path d="M234.938 27.4375C231.421 27.4375 228.562 24.5794 228.562 21.0625C228.562 20.4781 228.084 20 227.5 20C226.916 20 226.438 20.4781 226.438 21.0625C226.438 24.5794 223.579 27.4375 220.062 27.4375C219.478 27.4375 219 27.9156 219 28.5C219 29.0844 219.478 29.5625 220.062 29.5625C223.579 29.5625 226.438 32.4206 226.438 35.9375C226.438 36.5219 226.916 37 227.5 37C228.084 37 228.562 36.5219 228.562 35.9375C228.562 32.4206 231.421 29.5625 234.938 29.5625C235.522 29.5625 236 29.0844 236 28.5C236 27.9156 235.522 27.4375 234.938 27.4375ZM227.5 31.8256C226.724 30.4338 225.566 29.2756 224.174 28.5C225.566 27.7244 226.724 26.5662 227.5 25.1744C228.276 26.5662 229.434 27.7244 230.826 28.5C229.434 29.2756 228.276 30.4338 227.5 31.8256Z" fill="white"/>
    </g>
    <path d="M159.554 272.059V269.981C159.554 254.301 143.573 240.889 130.463 240.889C117.315 240.889 107.794 234.655 103.033 222.867L102.844 222.451L102.391 222.414C99.6329 222.187 97.366 221.771 95.4013 221.129C93.3233 221.242 91.472 221.431 89.8474 221.431C73.3747 221.431 60 208.057 60 191.584C60 183.385 63.3626 175.527 69.2187 170.048L69.4454 169.822V169.482C69.9743 161.812 74.3192 154.936 80.7799 151.46L81.8755 150.893C82.3667 150.667 82.5934 150.591 82.8201 150.364C83.1601 150.289 83.349 150.251 83.5757 150.138C84.1046 149.949 84.2935 149.873 84.5202 149.76C84.5202 149.798 84.5202 149.798 84.558 149.798C84.6336 149.798 84.7847 149.76 84.8981 149.722H85.087L85.4648 149.571C85.767 149.42 86.0693 149.269 86.2582 149.269C86.5604 149.269 86.7871 149.193 86.976 149.117C87.505 149.08 87.7317 149.004 87.9584 148.929C88.1095 148.929 88.2228 148.891 88.3362 148.891H90.4519L90.6786 148.513C94.079 142.959 100.048 139.634 106.66 139.634C108.247 139.634 109.721 139.785 111.421 140.201L111.874 140.314L112.176 139.974C117.012 134.345 124.191 131.133 131.785 131.133C135.676 131.133 139.341 131.889 142.628 133.325L143.006 133.514L143.346 133.249C146.331 131.171 150.147 130 154.076 130C158.61 130 163.181 131.7 167.035 134.76L167.375 135.025L167.791 134.874C168.546 134.572 169.453 134.383 170.247 134.232L170.662 134.156C170.738 134.156 170.813 134.156 170.851 134.156C171.305 134.156 171.758 134.118 172.173 134.08C172.627 134.043 173.08 134.005 173.534 134.005C180.674 134.005 187.324 138.123 190.422 144.546L190.611 144.924L191.026 144.962C202.285 145.868 211.769 154.747 213.582 166.044L213.658 166.459L214.035 166.61C221.327 169.897 226.05 177.189 226.05 185.199C226.05 187.844 225.445 190.753 224.199 193.813L224.085 194.115L224.236 194.418C225.445 197.025 226.05 199.896 226.05 203.183C226.05 212.364 220.194 220.676 211.429 223.812L210.937 224.001V224.454C210.937 226.645 210.635 229.139 209.993 232.048C206.63 245.347 194.691 254.641 180.939 254.641C179.956 254.641 178.936 254.604 177.954 254.49L177.01 254.377L179.465 272.021H159.554V272.059ZM113.612 198.838C114.519 198.838 115.426 199.405 115.841 200.236C116.37 201.332 115.841 202.805 114.67 203.372C111.194 204.996 108.587 207.906 107.303 211.533C106.056 215.122 106.245 218.938 107.907 222.338V222.527L108.096 222.905C112.327 231.444 119.808 235.788 130.274 235.788C144.593 235.788 162.01 248.974 163.899 266.656L163.975 267.336H174.214L171.607 248.332L174.856 249.163C176.934 249.692 179.088 249.956 181.203 249.956C192.689 249.956 202.701 242.098 205.61 230.839C206.139 228.232 206.592 225.172 206.215 222.036C205.232 211.533 197.638 202.767 187.324 200.236C186.719 200.085 186.228 199.783 185.926 199.254C185.586 198.725 185.473 198.007 185.624 197.327C185.85 196.269 186.795 195.589 187.928 195.589C188.117 195.589 188.306 195.627 188.533 195.664C199.301 198.422 207.839 207.226 210.257 218.144L210.446 219.051L211.277 218.673C217.398 215.915 221.365 209.795 221.365 203.07C221.365 200.047 220.723 197.478 219.4 194.947L218.985 193.851L219.589 192.642C220.836 190.677 221.554 187.995 221.554 185.123C221.554 178.436 217.247 172.429 210.862 170.237L209.426 169.822L209.275 168.235C208.482 157.694 199.603 149.42 189.062 149.42H187.513L186.946 147.833C184.679 142.166 179.428 138.501 173.534 138.501C171.796 138.501 169.982 138.916 167.602 139.861L166.657 140.239C162.124 142.846 159.366 147.568 159.366 152.669C159.366 153.954 158.383 154.936 157.099 154.936C155.814 154.936 154.832 153.954 154.832 152.669C154.832 146.964 157.476 141.637 162.086 137.972L162.879 137.367L162.086 136.801C159.932 135.252 157.174 134.383 154.265 134.383C150.865 134.383 147.691 135.554 145.084 137.783L143.951 138.765L142.515 138.047C139.228 136.385 135.563 135.478 132.163 135.478C125.287 135.478 118.788 138.69 114.745 144.093L113.725 145.528L112.176 144.962C110.627 144.433 108.927 143.979 107 143.979C101.484 143.979 96.6103 147.039 94.2301 151.951L93.55 153.387L91.6232 153.236H91.1698C81.6866 153.236 73.9792 160.943 73.9792 170.426C73.9792 179.721 81.6111 187.428 90.9809 187.617C91.3965 187.541 91.6232 187.504 91.8121 187.504C92.5677 187.504 93.2856 187.919 93.7767 188.599C94.2679 189.468 94.079 190.942 92.87 191.697C91.132 192.755 89.923 194.455 89.5074 196.344C89.054 198.347 89.3563 200.425 90.3764 202.012C90.8675 202.918 90.6786 204.354 89.4696 205.11C89.3941 205.148 88.9029 205.374 88.374 205.374C87.5428 205.374 86.8249 204.959 86.3715 204.241C84.6714 201.521 84.1802 198.385 84.9358 194.984C85.1247 194.115 85.4648 193.246 85.9937 192.377L86.5227 191.508L85.5403 191.244C78.3996 189.43 72.5813 183.952 70.3899 177L69.9366 175.565L69.0676 176.811C66.1584 180.854 64.5716 185.917 64.5716 191.055C64.5716 204.996 75.9438 216.369 89.8852 216.369C91.661 216.369 93.4367 216.18 94.9857 215.764L95.4769 215.651L95.9681 215.915C97.5549 216.52 99.2928 216.935 101.144 217.124L101.975 217.2V216.369C101.975 208.85 106.094 202.238 112.705 199.102C112.97 198.914 113.272 198.838 113.612 198.838ZM165.411 231.255C160.65 231.255 156.079 229.857 152.225 227.25C151.469 226.759 151.318 225.701 151.847 224.907C152.149 224.492 152.603 224.227 153.132 224.227C153.509 224.227 153.849 224.341 154.189 224.567C157.665 226.834 161.632 228.043 165.599 228.043C166.809 228.043 168.055 227.93 169.264 227.703C174.591 226.721 179.05 223.812 182.223 219.278C182.488 218.749 182.979 218.447 183.546 218.447C183.848 218.447 184.15 218.522 184.415 218.711C185.17 219.202 185.321 220.26 184.755 221.054C180.334 227.439 173.118 231.255 165.411 231.255ZM127.44 213.875C127.213 213.875 126.798 213.724 126.458 213.573C125.74 213.082 125.475 212.024 126.004 211.268C130.349 204.354 128.234 195.135 121.244 190.753C120.451 190.224 120.224 189.166 120.715 188.41C121.055 187.919 121.622 187.617 122.188 187.617C122.491 187.617 122.793 187.692 123.057 187.881C131.521 193.284 134.127 204.619 128.876 213.119C128.611 213.611 127.931 213.875 127.44 213.875ZM156.154 212.553C155.323 212.553 154.454 211.986 154.454 211.041C154.454 205.148 151.507 199.594 146.558 196.231C138.623 192.528 133.07 184.934 131.974 176.358C131.898 175.905 132.049 175.451 132.314 175.073C132.578 174.696 132.994 174.431 133.41 174.393H133.447C134.505 174.393 135.261 175.036 135.374 175.829C136.545 184.33 142.25 191.282 150.222 194.002C152.603 194.833 155.058 195.249 157.552 195.249C160.915 195.249 164.239 194.493 167.375 193.057C172.665 190.602 176.707 186.03 178.747 180.136C178.974 179.305 179.805 179.003 180.41 179.003C180.599 179.003 180.825 179.04 181.014 179.078C181.959 179.343 182.261 180.476 181.997 181.345C179.843 187.768 175.158 192.982 168.811 195.967C165.259 197.667 161.368 198.536 157.628 198.536C157.59 198.536 157.59 198.536 157.552 198.536C156.872 198.536 156.192 198.536 155.323 198.347L153.623 198.007L154.529 199.48C156.721 203.07 157.816 206.848 157.816 210.815C157.854 211.759 157.061 212.553 156.154 212.553ZM197.903 184.405C196.996 184.405 196.203 183.612 196.203 182.705C196.203 171.144 186.795 161.737 175.234 161.737C174.327 161.737 173.534 160.943 173.534 160.036C173.534 159.13 174.327 158.336 175.234 158.336C188.684 158.336 199.603 169.255 199.603 182.705C199.603 183.612 198.809 184.405 197.903 184.405ZM155.021 176.282C154.114 176.282 153.32 175.489 153.32 174.582C153.32 166.044 146.369 159.092 137.83 159.092C136.923 159.092 136.13 158.298 136.13 157.392C136.13 156.485 136.923 155.691 137.83 155.691C148.258 155.691 156.721 164.155 156.721 174.582C156.721 175.489 155.927 176.282 155.021 176.282ZM98.7261 174.771C94.8724 174.771 91.0564 173.751 87.7695 171.862C87.0138 171.371 86.7116 170.275 87.1272 169.444C87.4294 168.991 88.0717 168.651 88.714 168.651C88.9785 168.651 89.2807 168.726 89.5074 168.839C92.3032 170.464 95.5147 171.333 98.7639 171.333C105.527 171.333 111.61 167.819 115.048 161.963L115.237 161.623L115.086 161.283C114.141 159.167 113.65 156.976 113.65 154.936C113.65 154.029 114.443 153.236 115.35 153.236C116.257 153.236 117.05 154.029 117.05 154.936C116.937 157.656 117.957 160.301 119.922 162.379C121.848 164.419 124.455 165.59 127.213 165.704C128.158 165.704 128.951 166.497 128.951 167.404C128.951 168.802 128.045 169.293 127.251 169.293C123.095 169.293 119.884 167.139 117.957 165.326L117.315 164.759L116.823 165.477C112.743 171.295 105.98 174.771 98.7261 174.771Z" fill="#F74A86"/>
    <path d="M103.711 132.18L73.4267 130.723L77.5916 139.732L99.2435 158.472L131.474 176.623L171.346 188.133L214.472 190.174L245.459 185.588L251.863 179.63L244.944 172.949L225.6 164.243L228.23 131.695L224.511 110.326L219.192 96.3003L211.506 94.0815L198.387 94.4578L177.423 100.376L168.796 90.5996L151.938 76.8862L140.26 77.6784L124.487 94.4621L103.711 132.18Z" fill="#002539"/>
    <path fill-rule="evenodd" clip-rule="evenodd" d="M127.212 176.903C133.716 179.722 140.507 182.242 147.391 184.374C159.033 187.981 171.054 190.54 183.119 191.975C186.164 192.334 190.967 192.685 193.958 192.904C194.515 192.945 195.009 192.981 195.418 193.011C195.625 193.028 195.804 193.043 195.958 193.056C196.35 193.089 196.588 193.109 196.744 193.117C204.471 193.514 212.33 193.48 220.022 193.006C235.141 191.92 247.534 188.714 252.431 184.546C253.282 183.949 253.951 183.13 254.384 182.183C254.841 181.243 255.028 180.191 254.949 179.196C254.924 178.827 254.808 178.486 254.625 178.18C254.443 177.874 254.194 177.603 253.896 177.4C247.231 172.95 240.166 168.986 232.862 165.614L228.577 163.509L228.696 162.409C234.77 98.8505 219.041 92.8792 213.874 90.9178L213.87 90.9163L213.549 90.789C213.448 90.7577 213.321 90.7185 213.002 90.675C203.515 88.7071 188.604 93.6847 181.299 96.1368L178.945 96.9329L177.176 94.9427C171.807 88.8141 161.801 77.4212 152.527 74.4096L152.181 74.2745C151.949 74.2027 151.732 74.1587 151.496 74.111C151.475 74.1066 151.453 74.1022 151.431 74.0978C146.049 73.2071 129.676 70.5481 103.101 128.578L102.653 129.576L97.8443 129.252C89.8593 128.525 81.7699 128.405 73.7864 128.927C73.4435 128.96 73.0771 129.068 72.771 129.251C72.4648 129.433 72.1935 129.682 71.9982 129.954C71.4298 130.804 71.0656 131.801 70.9701 132.825C70.8747 133.85 71.048 134.902 71.5232 135.965C73.4858 141.537 81.7251 149.859 93.5777 158.246C95.3129 159.449 97.1493 160.684 99.1202 161.932L99.128 161.907L100.402 162.718C102.696 164.177 105.438 165.803 108.78 167.726L112.046 169.542C112.732 169.921 113.419 170.3 114.139 170.662C118.088 172.689 122.262 174.704 126.534 176.582L127.212 176.903ZM209.905 169.393C192.435 170.219 173.199 166.824 155.566 161.33C133.537 154.467 113.736 144.242 102.774 134.558C101.077 134.465 99.3251 134.346 97.4726 134.212C91.0748 133.645 84.5184 133.5 78.0705 133.721L75.4581 133.827L76.7472 136.113C82.0238 145.403 110.874 168.042 149.62 180.045C151.695 180.687 153.804 181.313 155.953 181.895C198.427 193.056 237.512 187.94 247.516 181.969L249.759 180.639L247.55 179.261C242.114 175.858 236.409 172.787 230.619 170.078L224.834 167.176L224.816 167.182L224.884 167.491C223.539 167.784 222.175 168.044 220.794 168.271C217.653 168.927 213.989 169.299 209.905 169.393ZM223.398 164.74L223.454 164.197C226.354 135.944 226.775 101.099 212.404 95.6488L211.738 95.4703C203.261 93.9789 189.061 98.7503 182.94 100.807L182.899 100.821C181.044 101.439 179.687 101.878 179.02 102.06C178.67 102.118 178.15 102.095 177.653 101.997L177.603 101.981C176.97 101.785 176.52 101.535 176.186 101.182C175.793 100.838 174.72 99.6461 173.698 98.4695C169.849 94.0599 160.213 83.0866 152.354 79.6257L150.631 79.0089C135.578 76.5647 118.586 106.526 106.98 132.082L106.532 133.08L107.32 133.851C108.802 135.313 110.546 136.784 112.529 138.25C120.227 143.454 130.207 148.636 141.398 153.117C145.844 154.824 150.564 156.456 155.51 157.988C165.096 160.958 174.582 163.246 183.438 164.795C197.416 166.956 211.246 167.24 223.398 164.74Z" fill="white"/>
    <defs>
        <filter id="filter0_d" x="244" y="70" width="46" height="46" filterUnits="userSpaceOnUse" color-interpolation-filters="sRGB">
            <feFlood flood-opacity="0" result="BackgroundImageFix"/>
            <feColorMatrix in="SourceAlpha" type="matrix" values="0 0 0 0 0 0 0 0 0 0 0 0 0 0 0 0 0 0 127 0"/>
            <feOffset dx="3" dy="4"/>
            <feGaussianBlur stdDeviation="3"/>
            <feColorMatrix type="matrix" values="0 0 0 0 0 0 0 0 0 0 0 0 0 0 0 0 0 0 0.25 0"/>
            <feBlend mode="normal" in2="BackgroundImageFix" result="effect1_dropShadow"/>
            <feBlend mode="normal" in="SourceGraphic" in2="effect1_dropShadow" result="shape"/>
        </filter>
        <filter id="filter1_d" x="0" y="200" width="46" height="46" filterUnits="userSpaceOnUse" color-interpolation-filters="sRGB">
            <feFlood flood-opacity="0" result="BackgroundImageFix"/>
            <feColorMatrix in="SourceAlpha" type="matrix" values="0 0 0 0 0 0 0 0 0 0 0 0 0 0 0 0 0 0 127 0"/>
            <feOffset dx="3" dy="4"/>
            <feGaussianBlur stdDeviation="3"/>
            <feColorMatrix type="matrix" values="0 0 0 0 0 0 0 0 0 0 0 0 0 0 0 0 0 0 0.25 0"/>
            <feBlend mode="normal" in2="BackgroundImageFix" result="effect1_dropShadow"/>
            <feBlend mode="normal" in="SourceGraphic" in2="effect1_dropShadow" result="shape"/>
        </filter>
        <filter id="filter2_d" x="244" y="249" width="46" height="46" filterUnits="userSpaceOnUse" color-interpolation-filters="sRGB">
            <feFlood flood-opacity="0" result="BackgroundImageFix"/>
            <feColorMatrix in="SourceAlpha" type="matrix" values="0 0 0 0 0 0 0 0 0 0 0 0 0 0 0 0 0 0 127 0"/>
            <feOffset dx="3" dy="4"/>
            <feGaussianBlur stdDeviation="3"/>
            <feColorMatrix type="matrix" values="0 0 0 0 0 0 0 0 0 0 0 0 0 0 0 0 0 0 0.25 0"/>
            <feBlend mode="normal" in2="BackgroundImageFix" result="effect1_dropShadow"/>
            <feBlend mode="normal" in="SourceGraphic" in2="effect1_dropShadow" result="shape"/>
        </filter>
        <filter id="filter3_d" x="120" y="289" width="46" height="46" filterUnits="userSpaceOnUse" color-interpolation-filters="sRGB">
            <feFlood flood-opacity="0" result="BackgroundImageFix"/>
            <feColorMatrix in="SourceAlpha" type="matrix" values="0 0 0 0 0 0 0 0 0 0 0 0 0 0 0 0 0 0 127 0"/>
            <feOffset dx="3" dy="4"/>
            <feGaussianBlur stdDeviation="3"/>
            <feColorMatrix type="matrix" values="0 0 0 0 0 0 0 0 0 0 0 0 0 0 0 0 0 0 0.25 0"/>
            <feBlend mode="normal" in2="BackgroundImageFix" result="effect1_dropShadow"/>
            <feBlend mode="normal" in="SourceGraphic" in2="effect1_dropShadow" result="shape"/>
        </filter>
        <filter id="filter4_d" x="54" y="17" width="46" height="46" filterUnits="userSpaceOnUse" color-interpolation-filters="sRGB">
            <feFlood flood-opacity="0" result="BackgroundImageFix"/>
            <feColorMatrix in="SourceAlpha" type="matrix" values="0 0 0 0 0 0 0 0 0 0 0 0 0 0 0 0 0 0 127 0"/>
            <feOffset dx="3" dy="4"/>
            <feGaussianBlur stdDeviation="3"/>
            <feColorMatrix type="matrix" values="0 0 0 0 0 0 0 0 0 0 0 0 0 0 0 0 0 0 0.25 0"/>
            <feBlend mode="normal" in2="BackgroundImageFix" result="effect1_dropShadow"/>
            <feBlend mode="normal" in="SourceGraphic" in2="effect1_dropShadow" result="shape"/>
        </filter>
        <filter id="filter5_d" x="269" y="104" width="29" height="29" filterUnits="userSpaceOnUse" color-interpolation-filters="sRGB">
            <feFlood flood-opacity="0" result="BackgroundImageFix"/>
            <feColorMatrix in="SourceAlpha" type="matrix" values="0 0 0 0 0 0 0 0 0 0 0 0 0 0 0 0 0 0 127 0"/>
            <feOffset dx="3" dy="4"/>
            <feGaussianBlur stdDeviation="3"/>
            <feColorMatrix type="matrix" values="0 0 0 0 0 0 0 0 0 0 0 0 0 0 0 0 0 0 0.25 0"/>
            <feBlend mode="normal" in2="BackgroundImageFix" result="effect1_dropShadow"/>
            <feBlend mode="normal" in="SourceGraphic" in2="effect1_dropShadow" result="shape"/>
        </filter>
        <filter id="filter6_d" x="6" y="72" width="29" height="29" filterUnits="userSpaceOnUse" color-interpolation-filters="sRGB">
            <feFlood flood-opacity="0" result="BackgroundImageFix"/>
            <feColorMatrix in="SourceAlpha" type="matrix" values="0 0 0 0 0 0 0 0 0 0 0 0 0 0 0 0 0 0 127 0"/>
            <feOffset dx="3" dy="4"/>
            <feGaussianBlur stdDeviation="3"/>
            <feColorMatrix type="matrix" values="0 0 0 0 0 0 0 0 0 0 0 0 0 0 0 0 0 0 0.25 0"/>
            <feBlend mode="normal" in2="BackgroundImageFix" result="effect1_dropShadow"/>
            <feBlend mode="normal" in="SourceGraphic" in2="effect1_dropShadow" result="shape"/>
        </filter>
        <filter id="filter7_d" x="35" y="96" width="29" height="29" filterUnits="userSpaceOnUse" color-interpolation-filters="sRGB">
            <feFlood flood-opacity="0" result="BackgroundImageFix"/>
            <feColorMatrix in="SourceAlpha" type="matrix" values="0 0 0 0 0 0 0 0 0 0 0 0 0 0 0 0 0 0 127 0"/>
            <feOffset dx="3" dy="4"/>
            <feGaussianBlur stdDeviation="3"/>
            <feColorMatrix type="matrix" values="0 0 0 0 0 0 0 0 0 0 0 0 0 0 0 0 0 0 0.25 0"/>
            <feBlend mode="normal" in2="BackgroundImageFix" result="effect1_dropShadow"/>
            <feBlend mode="normal" in="SourceGraphic" in2="effect1_dropShadow" result="shape"/>
        </filter>
        <filter id="filter8_d" x="216" y="289" width="29" height="29" filterUnits="userSpaceOnUse" color-interpolation-filters="sRGB">
            <feFlood flood-opacity="0" result="BackgroundImageFix"/>
            <feColorMatrix in="SourceAlpha" type="matrix" values="0 0 0 0 0 0 0 0 0 0 0 0 0 0 0 0 0 0 127 0"/>
            <feOffset dx="3" dy="4"/>
            <feGaussianBlur stdDeviation="3"/>
            <feColorMatrix type="matrix" values="0 0 0 0 0 0 0 0 0 0 0 0 0 0 0 0 0 0 0.25 0"/>
            <feBlend mode="normal" in2="BackgroundImageFix" result="effect1_dropShadow"/>
            <feBlend mode="normal" in="SourceGraphic" in2="effect1_dropShadow" result="shape"/>
        </filter>
        <filter id="filter9_d" x="137" y="25" width="29" height="29" filterUnits="userSpaceOnUse" color-interpolation-filters="sRGB">
            <feFlood flood-opacity="0" result="BackgroundImageFix"/>
            <feColorMatrix in="SourceAlpha" type="matrix" values="0 0 0 0 0 0 0 0 0 0 0 0 0 0 0 0 0 0 127 0"/>
            <feOffset dx="3" dy="4"/>
            <feGaussianBlur stdDeviation="3"/>
            <feColorMatrix type="matrix" values="0 0 0 0 0 0 0 0 0 0 0 0 0 0 0 0 0 0 0.25 0"/>
            <feBlend mode="normal" in2="BackgroundImageFix" result="effect1_dropShadow"/>
            <feBlend mode="normal" in="SourceGraphic" in2="effect1_dropShadow" result="shape"/>
        </filter>
        <filter id="filter10_d" x="7" y="161" width="29" height="29" filterUnits="userSpaceOnUse" color-interpolation-filters="sRGB">
            <feFlood flood-opacity="0" result="BackgroundImageFix"/>
            <feColorMatrix in="SourceAlpha" type="matrix" values="0 0 0 0 0 0 0 0 0 0 0 0 0 0 0 0 0 0 127 0"/>
            <feOffset dx="3" dy="4"/>
            <feGaussianBlur stdDeviation="3"/>
            <feColorMatrix type="matrix" values="0 0 0 0 0 0 0 0 0 0 0 0 0 0 0 0 0 0 0.25 0"/>
            <feBlend mode="normal" in2="BackgroundImageFix" result="effect1_dropShadow"/>
            <feBlend mode="normal" in="SourceGraphic" in2="effect1_dropShadow" result="shape"/>
        </filter>
        <filter id="filter11_d" x="52" y="281" width="29" height="29" filterUnits="userSpaceOnUse" color-interpolation-filters="sRGB">
            <feFlood flood-opacity="0" result="BackgroundImageFix"/>
            <feColorMatrix in="SourceAlpha" type="matrix" values="0 0 0 0 0 0 0 0 0 0 0 0 0 0 0 0 0 0 127 0"/>
            <feOffset dx="3" dy="4"/>
            <feGaussianBlur stdDeviation="3"/>
            <feColorMatrix type="matrix" values="0 0 0 0 0 0 0 0 0 0 0 0 0 0 0 0 0 0 0.25 0"/>
            <feBlend mode="normal" in2="BackgroundImageFix" result="effect1_dropShadow"/>
            <feBlend mode="normal" in="SourceGraphic" in2="effect1_dropShadow" result="shape"/>
        </filter>
        <filter id="filter12_d" x="278" y="170" width="29" height="29" filterUnits="userSpaceOnUse" color-interpolation-filters="sRGB">
            <feFlood flood-opacity="0" result="BackgroundImageFix"/>
            <feColorMatrix in="SourceAlpha" type="matrix" values="0 0 0 0 0 0 0 0 0 0 0 0 0 0 0 0 0 0 127 0"/>
            <feOffset dx="3" dy="4"/>
            <feGaussianBlur stdDeviation="3"/>
            <feColorMatrix type="matrix" values="0 0 0 0 0 0 0 0 0 0 0 0 0 0 0 0 0 0 0.25 0"/>
            <feBlend mode="normal" in2="BackgroundImageFix" result="effect1_dropShadow"/>
            <feBlend mode="normal" in="SourceGraphic" in2="effect1_dropShadow" result="shape"/>
        </filter>
        <filter id="filter13_d" x="170" y="0" width="29" height="29" filterUnits="userSpaceOnUse" color-interpolation-filters="sRGB">
            <feFlood flood-opacity="0" result="BackgroundImageFix"/>
            <feColorMatrix in="SourceAlpha" type="matrix" values="0 0 0 0 0 0 0 0 0 0 0 0 0 0 0 0 0 0 127 0"/>
            <feOffset dx="3" dy="4"/>
            <feGaussianBlur stdDeviation="3"/>
            <feColorMatrix type="matrix" values="0 0 0 0 0 0 0 0 0 0 0 0 0 0 0 0 0 0 0.25 0"/>
            <feBlend mode="normal" in2="BackgroundImageFix" result="effect1_dropShadow"/>
            <feBlend mode="normal" in="SourceGraphic" in2="effect1_dropShadow" result="shape"/>
        </filter>
        <filter id="filter14_d" x="216" y="18" width="29" height="29" filterUnits="userSpaceOnUse" color-interpolation-filters="sRGB">
            <feFlood flood-opacity="0" result="BackgroundImageFix"/>
            <feColorMatrix in="SourceAlpha" type="matrix" values="0 0 0 0 0 0 0 0 0 0 0 0 0 0 0 0 0 0 127 0"/>
            <feOffset dx="3" dy="4"/>
            <feGaussianBlur stdDeviation="3"/>
            <feColorMatrix type="matrix" values="0 0 0 0 0 0 0 0 0 0 0 0 0 0 0 0 0 0 0.25 0"/>
            <feBlend mode="normal" in2="BackgroundImageFix" result="effect1_dropShadow"/>
            <feBlend mode="normal" in="SourceGraphic" in2="effect1_dropShadow" result="shape"/>
        </filter>
    </defs>
</svg>
