<svg width="250" height="346" viewBox="0 0 250 346" fill="none" xmlns="http://www.w3.org/2000/svg">
    <path d="M223.291 345.085H26.7094C11.9658 345.085 0 333.12 0 318.376V26.7094C0 11.9658 11.9658 0 26.7094 0H223.291C238.034 0 250 11.9658 250 26.7094V318.376C250 333.12 238.034 345.085 223.291 345.085Z" fill="#02D113"/>
    <path d="M125.855 10.2564H122.649V334.402H125.855V10.2564Z" fill="black"/>
    <path d="M238.354 170.62H10.2559V173.825H238.354V170.62Z" fill="black"/>
    <path d="M11.1988 29.459L8.70459 31.4718L123.033 173.144L125.527 171.131L11.1988 29.459Z" fill="black"/>
    <path d="M49.9635 10.4855L48.9941 10.9346L123.777 172.329L124.746 171.88L49.9635 10.4855Z" fill="black"/>
    <path d="M88.2064 10.8069L87.1646 11.0434L123.757 172.222L124.799 171.986L88.2064 10.8069Z" fill="black"/>
    <path d="M10.2704 85.8548L9.62891 86.7092L123.945 172.536L124.586 171.681L10.2704 85.8548Z" fill="black"/>
    <path d="M11.236 130.395L10.8706 131.399L124.117 172.614L124.482 171.61L11.236 130.395Z" fill="black"/>
    <path d="M237.797 29.424L123.415 171.06L125.908 173.074L240.291 31.4378L237.797 29.424Z" fill="black"/>
    <path d="M198.856 10.4185L124.198 171.884L125.168 172.333L199.826 10.8669L198.856 10.4185Z" fill="black"/>
    <path d="M160.642 10.7222L124.132 171.918L125.174 172.154L161.684 10.9582L160.642 10.7222Z" fill="black"/>
    <path d="M238.68 85.8189L124.35 171.631L124.991 172.486L239.321 86.6734L238.68 85.8189Z" fill="black"/>
    <path d="M237.744 130.373L124.499 171.576L124.864 172.58L238.11 131.377L237.744 130.373Z" fill="black"/>
    <path d="M123.075 170.51L8.69238 312.146L11.186 314.159L125.569 172.524L123.075 170.51Z" fill="black"/>
    <path d="M123.732 171.182L49.0737 332.647L50.0435 333.096L124.702 171.63L123.732 171.182Z" fill="black"/>
    <path d="M123.739 171.28L87.2295 332.476L88.2715 332.712L124.781 171.516L123.739 171.28Z" fill="black"/>
    <path d="M123.914 171.023L9.5835 256.835L10.2248 257.69L124.555 171.878L123.914 171.023Z" fill="black"/>
    <path d="M124.077 170.994L10.8311 212.197L11.1963 213.201L124.442 171.998L124.077 170.994Z" fill="black"/>
    <path d="M125.928 170.453L123.434 172.466L238.366 314.886L240.86 312.873L125.928 170.453Z" fill="black"/>
    <path d="M125.171 171.239L124.201 171.688L198.984 333.083L199.953 332.634L125.171 171.239Z" fill="black"/>
    <path d="M125.18 171.384L124.138 171.62L160.731 332.799L161.773 332.563L125.18 171.384Z" fill="black"/>
    <path d="M124.945 170.97L124.303 171.824L238.619 257.651L239.261 256.796L124.945 170.97Z" fill="black"/>
    <path d="M124.862 170.924L124.497 171.928L237.743 213.143L238.108 212.139L124.862 170.924Z" fill="black"/>
    <path d="M221.154 336.538H28.846C17.6281 336.538 8.54688 327.457 8.54688 316.239V28.8461C8.54688 17.6282 17.6281 8.547 28.846 8.547H221.154C232.372 8.547 241.453 17.6282 241.453 28.8461V316.239C241.453 327.457 232.372 336.538 221.154 336.538ZM28.846 12.8205C19.9785 12.8205 12.8204 19.9786 12.8204 28.8461V316.239C12.8204 325.107 19.9785 332.265 28.846 332.265H221.154C230.021 332.265 237.179 325.107 237.179 316.239V28.8461C237.179 19.9786 230.021 12.8205 221.154 12.8205H28.846Z" fill="black"/>
    <path d="M51.2825 328.099L50.0005 323.184L51.4962 317.415L55.4492 312.928L59.0817 311.646C59.0817 311.646 60.7911 314.637 60.1501 318.59C59.7227 321.047 57.9065 323.932 55.8766 326.175C53.4193 328.953 51.2825 328.099 51.2825 328.099Z" fill="white"/>
    <path d="M50.9619 317.949C48.0773 324.145 50.855 328.312 50.9619 328.526C51.0687 328.633 51.1756 328.739 51.3892 328.739C51.6029 328.739 56.5174 328.205 59.5089 322.009C62.3935 315.812 59.6157 311.645 59.5089 311.432C59.4021 311.325 59.2952 311.218 59.0815 311.218C58.8679 311.218 54.0602 311.432 50.9619 317.949ZM55.2354 317.842C55.4491 317.415 55.8764 317.308 56.3038 317.415C56.7311 317.628 56.838 318.056 56.7311 318.483C56.5174 318.91 56.0901 319.017 55.6627 318.91C55.2354 318.697 55.1286 318.163 55.2354 317.842ZM58.761 321.474C56.4106 326.389 52.6713 327.457 51.7098 327.671C51.3892 327.137 50.7482 325.855 50.7482 323.825C53.526 325 56.7311 323.825 58.0132 321.047C59.2952 318.269 58.12 314.957 55.4491 313.675C55.8764 313.355 56.3038 313.034 56.7311 312.821C57.7995 312.286 58.6542 312.073 59.0815 311.966C59.4021 313.034 61.0046 316.56 58.761 321.474Z" fill="black"/>
    <path d="M60.364 303.312C58.8682 306.517 60.2571 308.654 60.364 308.654C60.364 308.761 60.4708 308.761 60.5776 308.761C60.6845 308.761 63.2486 308.547 64.7443 305.342C66.24 302.137 64.8511 300 64.7443 300C64.7443 299.893 64.6375 299.893 64.5306 299.893C64.4238 299.893 61.8597 300 60.364 303.312Z" fill="black"/>
    <path d="M65.7054 297.009L64.4233 292.094L65.9191 286.325L69.8721 281.838L73.5045 280.556C73.5045 280.556 75.2139 283.547 74.5729 287.5C74.1456 289.957 72.3293 292.842 70.2994 295.086C67.949 297.757 65.7054 297.009 65.7054 297.009Z" fill="white"/>
    <path d="M65.4912 286.859C62.6066 293.056 65.3843 297.222 65.4912 297.436C65.598 297.543 65.7049 297.65 65.9185 297.65C66.1322 297.65 71.0467 297.115 74.0382 290.919C76.9228 284.722 74.145 280.556 74.0382 280.342C73.9314 280.235 73.8245 280.128 73.6108 280.128C73.3972 280.022 68.4826 280.342 65.4912 286.859ZM69.7647 286.752C69.9784 286.325 70.4057 286.218 70.8331 286.325C71.2604 286.539 71.3672 286.966 71.2604 287.393C71.1536 287.821 70.6194 287.927 70.192 287.821C69.7647 287.607 69.551 287.073 69.7647 286.752ZM73.1835 290.385C70.8331 295.299 67.0937 296.368 66.1322 296.581C65.8117 296.047 65.1707 294.765 65.1707 292.735C67.9484 293.91 71.1536 292.735 72.4356 289.957C73.7177 287.18 72.5425 283.868 69.8715 282.586C70.2989 282.265 70.7262 281.945 71.1536 281.731C72.222 281.197 73.0767 280.983 73.504 280.876C73.9314 281.838 75.5339 285.47 73.1835 290.385Z" fill="black"/>
    <path d="M74.8937 272.222C73.398 275.428 74.7869 277.564 74.8937 277.564C74.8937 277.671 75.0006 277.671 75.1074 277.671C75.2143 277.671 77.7784 277.457 79.2741 274.252C80.7698 271.047 79.3809 268.91 79.2741 268.91C79.2741 268.804 79.1672 268.804 79.0604 268.804C78.8467 268.804 76.3895 268.91 74.8937 272.222Z" fill="black"/>
    <path d="M80.2357 265.919L78.9536 261.004L80.4493 255.235L84.4023 250.748L88.0348 249.466C88.0348 249.466 89.7442 252.457 89.1032 256.41C88.6758 258.868 86.8596 261.752 84.8297 263.996C82.4793 266.667 80.2357 265.919 80.2357 265.919Z" fill="white"/>
    <path d="M80.0219 255.662C77.1373 261.859 79.9151 266.026 80.0219 266.239C80.1288 266.346 80.2356 266.453 80.4493 266.453C80.663 266.453 85.5775 265.919 88.569 259.722C91.5604 253.526 88.6758 249.359 88.569 249.145C88.4621 249.039 88.3553 248.932 88.1416 248.932C87.9279 248.932 83.0134 249.252 80.0219 255.662ZM84.2954 255.556C84.5091 255.128 84.9365 255.021 85.3638 255.128C85.7912 255.342 85.898 255.769 85.7912 256.197C85.5775 256.624 85.1502 256.731 84.7228 256.624C84.2955 256.41 84.0818 255.983 84.2954 255.556ZM87.7142 259.295C85.3638 264.209 81.6245 265.278 80.663 265.492C80.3425 264.957 79.7014 263.675 79.7014 261.645C82.4792 262.821 85.6843 261.645 86.9664 258.868C88.2484 256.09 87.0732 252.778 84.4023 251.496C84.8296 251.175 85.257 250.855 85.6843 250.641C86.7527 250.107 87.6074 249.893 88.0348 249.786C88.4621 250.748 90.0647 254.274 87.7142 259.295Z" fill="black"/>
    <path d="M89.3166 241.133C87.8209 244.338 89.2098 246.474 89.3166 246.474C89.3166 246.581 89.4234 246.581 89.5303 246.581C89.6371 246.581 92.2012 246.368 93.6969 243.162C95.1927 239.957 93.8038 237.821 93.6969 237.821C93.6969 237.714 93.5901 237.714 93.4833 237.714C93.3764 237.714 90.9192 237.821 89.3166 241.133Z" fill="black"/>
    <path d="M94.765 234.829L93.4829 229.915L94.9786 224.145L98.9316 219.658L102.564 218.376C102.564 218.376 104.274 221.368 103.632 225.321C103.205 227.778 101.389 230.662 99.359 232.906C97.0086 235.577 94.765 234.829 94.765 234.829Z" fill="white"/>
    <path d="M94.5512 224.573C91.6666 230.769 94.4444 234.936 94.5512 235.15C94.6581 235.257 94.7649 235.363 94.9786 235.363C95.1923 235.363 100.107 234.829 103.098 228.633C105.983 222.436 103.205 218.269 103.098 218.056C102.991 217.949 102.885 217.842 102.671 217.842C102.457 217.842 97.5427 218.162 94.5512 224.573ZM98.8247 224.466C99.0384 224.039 99.4658 223.932 99.8931 224.039C100.32 224.145 100.427 224.68 100.32 225.107C100.107 225.534 99.6794 225.641 99.2521 225.534C98.8247 225.321 98.6111 224.893 98.8247 224.466ZM102.244 228.205C99.8931 233.12 96.1538 234.188 95.1923 234.402C94.8718 233.868 94.2307 232.586 94.2307 230.556C97.0085 231.731 100.214 230.556 101.496 227.778C102.778 225 101.603 221.688 98.9316 220.406C99.3589 220.086 99.7863 219.765 100.214 219.551C101.282 219.017 102.137 218.804 102.564 218.697C102.991 219.658 104.594 223.184 102.244 228.205Z" fill="black"/>
    <path d="M103.846 210.043C102.351 213.248 103.74 215.385 103.846 215.385C103.846 215.492 103.953 215.492 104.06 215.492C104.167 215.492 106.731 215.278 108.227 212.073C109.722 208.868 108.334 206.731 108.227 206.731C108.227 206.624 108.12 206.624 108.013 206.624C107.906 206.517 105.449 206.731 103.846 210.043Z" fill="black"/>
    <path d="M197.864 328.099L199.146 323.184L197.65 317.415L193.697 312.928L190.065 311.646C190.065 311.646 188.355 314.637 188.996 318.59C189.424 321.047 191.24 323.932 193.27 326.176C195.62 328.953 197.864 328.099 197.864 328.099Z" fill="white"/>
    <path d="M189.958 311.218C189.851 311.218 189.637 311.325 189.53 311.432C189.423 311.539 186.646 315.705 189.53 322.009C192.415 328.205 197.436 328.74 197.65 328.74C197.757 328.74 197.97 328.74 198.077 328.526C198.184 328.419 200.962 324.252 198.077 317.949C194.979 311.432 190.171 311.218 189.958 311.218ZM193.376 318.804C192.949 319.017 192.522 318.804 192.308 318.376C192.094 317.949 192.308 317.522 192.735 317.308C193.163 317.094 193.59 317.308 193.804 317.735C194.017 318.163 193.804 318.697 193.376 318.804ZM190.171 312.073C190.599 312.18 191.453 312.393 192.522 312.928C192.949 313.141 193.27 313.462 193.804 313.782C191.133 315.171 189.958 318.376 191.24 321.154C192.522 323.932 195.727 325.107 198.505 323.932C198.398 325.855 197.757 327.244 197.543 327.778C196.475 327.564 192.735 326.496 190.492 321.581C188.035 316.56 189.637 313.034 190.171 312.073Z" fill="black"/>
    <path d="M184.509 299.893C184.402 299.893 184.402 299.893 184.296 300C184.189 300.107 182.8 302.244 184.296 305.342C185.791 308.547 188.355 308.761 188.462 308.761C188.569 308.761 188.676 308.761 188.676 308.654C188.783 308.547 190.172 306.41 188.676 303.312C187.18 300 184.723 299.893 184.509 299.893Z" fill="black"/>
    <path d="M183.334 297.009L184.616 292.094L183.12 286.325L179.167 281.838L175.535 280.556C175.535 280.556 173.826 283.547 174.467 287.5C174.894 289.957 176.71 292.842 178.74 295.086C181.091 297.757 183.334 297.009 183.334 297.009Z" fill="white"/>
    <path d="M175.428 280.022C175.321 280.022 175.107 280.128 175 280.235C174.894 280.342 172.116 284.509 175 290.812C177.885 297.009 182.906 297.543 183.12 297.543C183.227 297.543 183.441 297.543 183.547 297.329C183.654 297.222 186.432 293.056 183.547 286.752C180.556 280.342 175.641 280.022 175.428 280.022ZM178.953 287.714C178.526 287.928 178.099 287.714 177.885 287.287C177.671 286.859 177.885 286.432 178.312 286.218C178.74 286.004 179.167 286.218 179.381 286.646C179.594 287.073 179.274 287.607 178.953 287.714ZM175.641 280.983C176.069 281.09 176.924 281.304 177.992 281.838C178.419 282.052 178.74 282.372 179.274 282.693C176.603 284.081 175.428 287.287 176.71 290.064C177.992 292.842 181.197 294.017 183.975 292.842C183.868 294.765 183.227 296.154 183.013 296.688C181.945 296.475 178.206 295.406 175.962 290.492C173.505 285.47 175.107 281.838 175.641 280.983Z" fill="black"/>
    <path d="M170.086 268.804C169.979 268.804 169.979 268.804 169.872 268.91C169.765 269.017 168.377 271.154 169.872 274.252C171.368 277.458 173.932 277.671 174.039 277.671C174.146 277.671 174.253 277.671 174.253 277.564C174.359 277.457 175.748 275.321 174.253 272.222C172.65 268.91 170.193 268.804 170.086 268.804Z" fill="black"/>
    <path d="M168.803 265.919L170.085 261.004L168.59 255.235L164.637 250.748L161.004 249.466C161.004 249.466 159.295 252.457 159.936 256.41C160.363 258.868 162.179 261.752 164.209 263.996C166.56 266.667 168.803 265.919 168.803 265.919Z" fill="white"/>
    <path d="M160.898 248.932C160.791 248.932 160.577 249.039 160.47 249.145C160.363 249.252 157.586 253.419 160.47 259.722C163.355 266.026 168.376 266.453 168.59 266.453C168.697 266.453 168.91 266.453 169.017 266.239C169.124 266.133 171.902 261.966 169.017 255.663C166.026 249.252 161.111 248.932 160.898 248.932ZM164.423 256.624C163.996 256.838 163.568 256.624 163.355 256.197C163.141 255.769 163.355 255.342 163.782 255.128C164.21 254.915 164.637 255.128 164.851 255.556C164.957 255.983 164.744 256.41 164.423 256.624ZM161.111 249.893C161.539 250 162.393 250.214 163.462 250.748C163.889 250.962 164.21 251.282 164.744 251.603C162.073 252.992 160.898 256.197 162.18 258.974C163.462 261.752 166.667 262.927 169.445 261.752C169.338 263.675 168.697 265.064 168.483 265.598C167.415 265.385 163.675 264.316 161.432 259.402C158.974 254.274 160.577 250.748 161.111 249.893Z" fill="black"/>
    <path d="M155.556 237.714C155.449 237.714 155.449 237.714 155.342 237.821C155.235 237.927 153.846 240.064 155.342 243.163C156.838 246.368 159.402 246.581 159.509 246.581C159.615 246.581 159.722 246.581 159.722 246.474C159.829 246.368 161.218 244.231 159.722 241.133C158.12 237.821 155.663 237.714 155.556 237.714Z" fill="black"/>
    <path d="M154.274 234.829L155.556 229.915L154.06 224.145L150.107 219.658L146.475 218.376C146.475 218.376 144.766 221.368 145.407 225.321C145.834 227.778 147.65 230.663 149.68 232.906C152.137 235.577 154.274 234.829 154.274 234.829Z" fill="white"/>
    <path d="M146.368 217.842C146.261 217.842 146.048 217.949 145.941 218.056C145.834 218.163 143.056 222.329 145.941 228.633C148.826 234.936 153.847 235.363 154.061 235.363C154.167 235.363 154.381 235.363 154.488 235.15C154.595 235.043 157.373 230.876 154.488 224.573C151.496 218.163 146.582 217.842 146.368 217.842ZM149.894 225.534C149.467 225.748 149.039 225.534 148.826 225.107C148.612 224.68 148.825 224.252 149.253 224.039C149.68 223.825 150.108 224.039 150.321 224.466C150.428 224.893 150.321 225.321 149.894 225.534ZM146.582 218.697C147.009 218.804 147.864 219.017 148.932 219.551C149.36 219.765 149.68 220.086 150.214 220.406C147.543 221.795 146.368 225 147.65 227.778C148.932 230.556 152.137 231.731 154.915 230.556C154.808 232.479 154.167 233.868 153.954 234.402C152.885 234.188 149.146 233.12 146.902 228.205C144.445 223.184 146.155 219.658 146.582 218.697Z" fill="black"/>
    <path d="M141.026 206.517C140.919 206.517 140.919 206.517 140.812 206.624C140.705 206.731 139.316 208.868 140.812 211.966C142.308 215.171 144.872 215.385 144.979 215.385C145.086 215.385 145.193 215.385 145.193 215.278C145.299 215.171 146.688 213.034 145.193 209.936C143.59 206.731 141.133 206.517 141.026 206.517Z" fill="black"/>
    <path d="M15.4917 253.205L16.6669 248.29L20.7267 243.91L26.2823 241.773L30.1285 242.308C30.1285 242.308 30.2353 245.726 27.778 248.931C26.2823 250.855 23.2908 252.671 20.5131 253.739C16.9874 254.914 15.4917 253.205 15.4917 253.205Z" fill="white"/>
    <path d="M19.9792 244.017C14.5305 248.184 15.0646 253.205 15.0646 253.419C15.0646 253.632 15.1715 253.739 15.3852 253.739C15.5988 253.846 20.1929 255.662 25.6416 251.496C31.0903 247.329 30.5561 242.308 30.5561 242.094C30.5561 241.987 30.4493 241.773 30.3424 241.773C30.1288 241.667 25.6416 239.743 19.9792 244.017ZM23.8253 245.94C24.1458 245.726 24.68 245.726 24.8937 246.047C25.1074 246.367 25.1074 246.902 24.7869 247.115C24.4664 247.329 23.9322 247.329 23.7185 247.008C23.398 246.688 23.5048 246.154 23.8253 245.94ZM25.1074 250.748C20.727 254.06 16.9877 253.312 15.9193 252.991C15.9193 252.457 15.9193 250.855 16.7741 249.145C18.6971 251.496 22.1159 251.923 24.4664 250.107C26.9236 248.29 27.351 244.765 25.5347 242.308C26.0689 242.201 26.6031 242.201 27.0305 242.094C28.2057 242.094 29.0604 242.308 29.4877 242.414C29.7014 243.59 29.4877 247.436 25.1074 250.748Z" fill="black"/>
    <path d="M35.044 235.47C32.2662 237.607 32.4799 240.171 32.5867 240.278C32.5867 240.385 32.6936 240.385 32.6936 240.491C32.8004 240.491 35.1508 241.453 37.9286 239.316C40.7064 237.179 40.4927 234.615 40.3859 234.508C40.3859 234.402 40.2791 234.402 40.2791 234.295C40.1722 234.295 37.9286 233.226 35.044 235.47Z" fill="black"/>
    <path d="M42.7349 232.372L43.9101 227.457L47.9699 223.077L53.5255 220.94L57.3716 221.474C57.3716 221.474 57.4785 224.893 55.0212 228.098C53.5255 230.021 50.534 231.837 47.7562 232.906C44.3374 234.081 42.7349 232.372 42.7349 232.372Z" fill="white"/>
    <path d="M47.2228 223.184C41.7741 227.35 42.3083 232.372 42.3083 232.585C42.3083 232.799 42.4151 232.906 42.6288 232.906C42.8425 233.013 47.4365 234.829 52.8852 230.662C58.3339 226.496 57.7998 221.474 57.7998 221.261C57.7998 221.154 57.6929 220.94 57.5861 220.94C57.3724 220.833 52.8852 218.91 47.2228 223.184ZM51.069 225.107C51.3895 224.893 51.9237 224.893 52.1374 225.214C52.351 225.534 52.351 226.068 52.0305 226.282C51.71 226.496 51.1758 226.496 50.9621 226.175C50.7485 225.855 50.7485 225.32 51.069 225.107ZM52.4579 229.914C48.0775 233.226 44.3382 232.478 43.2698 232.158C43.2698 231.624 43.2698 230.021 44.1245 228.312C46.0476 230.662 49.4664 231.09 51.8168 229.273C54.2741 227.457 54.7015 223.931 52.8852 221.474C53.4194 221.367 53.9536 221.367 54.381 221.261C55.5562 221.261 56.4109 221.474 56.8382 221.581C56.9451 222.756 56.8382 226.602 52.4579 229.914Z" fill="black"/>
    <path d="M62.2872 214.637C59.5094 216.773 59.7231 219.338 59.8299 219.444C59.8299 219.551 59.9367 219.551 59.9367 219.658C60.0436 219.658 62.394 220.62 65.1718 218.483C67.9496 216.346 67.7359 213.782 67.6291 213.675C67.6291 213.568 67.5222 213.568 67.5222 213.461C67.4154 213.461 65.1718 212.393 62.2872 214.637Z" fill="black"/>
    <path d="M69.979 211.538L71.1542 206.624L75.214 202.244L80.7696 200.107L84.6158 200.641C84.6158 200.641 84.7226 204.06 82.2653 207.265C80.7696 209.188 77.7781 211.004 75.0004 212.073C71.5816 213.248 69.979 211.538 69.979 211.538Z" fill="white"/>
    <path d="M74.5729 202.35C69.1242 206.517 69.6584 211.538 69.6584 211.752C69.6584 211.966 69.7652 212.073 69.9789 212.073C70.1926 212.179 74.7866 213.996 80.2353 209.829C85.684 205.662 85.1499 200.641 85.1499 200.427C85.1499 200.32 85.043 200.107 84.9362 200.107C84.6157 200 80.2353 198.077 74.5729 202.35ZM78.3123 204.273C78.6328 204.06 79.167 204.06 79.3806 204.38C79.5943 204.701 79.5943 205.235 79.2738 205.449C78.9533 205.662 78.4191 205.662 78.2054 205.342C77.9917 205.021 77.9917 204.487 78.3123 204.273ZM79.7011 209.081C75.3208 212.393 71.5815 211.645 70.5131 211.325C70.5131 210.79 70.5131 209.188 71.3678 207.478C73.2909 209.829 76.7097 210.256 79.0601 208.44C81.5174 206.624 81.9447 203.098 80.1285 200.641C80.6627 200.534 81.1969 200.534 81.6242 200.427C82.7994 200.427 83.6541 200.641 84.0815 200.748C84.2952 201.923 84.0815 205.769 79.7011 209.081Z" fill="black"/>
    <path d="M89.5308 193.803C86.7531 195.94 86.9667 198.504 87.0736 198.611C87.0736 198.718 87.1804 198.718 87.1804 198.825C87.2872 198.825 89.6377 199.786 92.4154 197.649C95.1932 195.513 94.9795 192.949 94.8727 192.842C94.8727 192.735 94.7659 192.735 94.7659 192.628C94.7659 192.628 92.4154 191.56 89.5308 193.803Z" fill="black"/>
    <path d="M97.3286 190.705L98.5038 185.79L102.564 181.41L108.119 179.273L111.965 179.808C111.965 179.808 112.072 183.226 109.615 186.431C108.119 188.355 105.128 190.171 102.35 191.239C98.9312 192.414 97.3286 190.705 97.3286 190.705Z" fill="white"/>
    <path d="M101.817 181.517C96.3679 185.684 96.9021 190.705 96.9021 190.919C96.9021 191.132 97.0089 191.239 97.2226 191.239C97.4362 191.346 102.03 193.162 107.479 188.996C112.928 184.829 112.394 179.808 112.394 179.594C112.394 179.487 112.287 179.273 112.18 179.273C111.966 179.167 107.479 177.243 101.817 181.517ZM105.663 183.44C105.983 183.226 106.517 183.226 106.731 183.547C106.945 183.867 106.945 184.402 106.624 184.615C106.304 184.829 105.77 184.829 105.556 184.508C105.235 184.188 105.342 183.654 105.663 183.44ZM106.945 188.248C102.564 191.56 98.8251 190.812 97.7568 190.491C97.7568 189.957 97.7568 188.355 98.6115 186.645C100.535 188.996 103.953 189.423 106.304 187.607C108.761 185.79 109.188 182.265 107.372 179.808C107.906 179.701 108.441 179.701 108.868 179.594C110.043 179.594 110.898 179.808 111.325 179.914C111.539 181.09 111.325 184.936 106.945 188.248Z" fill="black"/>
    <path d="M116.881 172.97C114.103 175.107 114.317 177.671 114.424 177.778C114.424 177.885 114.53 177.885 114.53 177.991C114.637 177.991 116.988 178.953 119.766 176.816C122.543 174.679 122.33 172.115 122.223 172.008C122.223 171.902 122.116 171.902 122.116 171.795C122.009 171.795 119.766 170.726 116.881 172.97Z" fill="black"/>
    <path d="M15.7061 90.9187L16.8813 95.8333L20.9411 100.214L26.4967 102.35L30.3428 101.816C30.3428 101.816 30.4496 98.3974 27.9924 95.1922C26.4967 93.2692 23.5052 91.5598 20.6206 90.4914C17.2018 89.2093 15.7061 90.9187 15.7061 90.9187Z" fill="white"/>
    <path d="M30.5557 102.137C30.6625 102.03 30.7694 101.923 30.7694 101.816C30.7694 101.603 31.3036 96.688 25.8549 92.5213C20.2993 88.3547 15.7053 90.2777 15.4916 90.3846C15.3848 90.4914 15.2779 90.5982 15.1711 90.7051C15.1711 90.9188 14.6369 95.8333 20.0856 100C25.9617 104.273 30.4489 102.244 30.5557 102.137ZM23.9318 97.0085C24.1455 96.688 24.6796 96.5812 25.0002 96.9017C25.3207 97.1153 25.4275 97.6495 25.107 97.97C24.8933 98.2906 24.3591 98.3974 24.0386 98.0769C23.7181 97.7564 23.6113 97.329 23.9318 97.0085ZM30.0215 101.389C29.5942 101.496 28.7395 101.816 27.5643 101.709C27.1369 101.709 26.6027 101.603 26.0685 101.603C27.7779 99.1453 27.3506 95.7265 24.8933 93.9102C22.4361 92.094 19.0172 92.5213 17.201 94.8718C16.3463 93.0555 16.2395 91.5598 16.2395 91.0256C17.201 90.7051 21.0472 89.8504 25.4275 93.1623C29.8078 96.4743 30.0215 100.427 30.0215 101.389Z" fill="black"/>
    <path d="M40.5993 109.615C40.7061 109.615 40.7061 109.509 40.7061 109.402C40.7061 109.295 41.0266 106.731 38.142 104.594C35.3642 102.457 32.907 103.419 32.907 103.526C32.8001 103.526 32.8001 103.632 32.8001 103.739C32.8001 103.846 32.4796 106.41 35.3642 108.547C38.2489 110.684 40.5993 109.615 40.5993 109.615Z" fill="black"/>
    <path d="M43.1631 111.538L44.3383 116.453L48.3981 120.833L53.9537 122.97L57.7998 122.436C57.7998 122.436 57.9067 119.017 55.4494 115.812C53.9537 113.889 50.9622 112.179 48.0776 111.111C44.6588 109.829 43.1631 111.538 43.1631 111.538Z" fill="white"/>
    <path d="M58.0137 122.756C58.1206 122.65 58.2274 122.543 58.2274 122.436C58.2274 122.222 58.7616 117.308 53.3129 113.141C47.7573 108.974 43.1633 110.897 42.9496 111.004C42.8428 111.111 42.7359 111.218 42.6291 111.325C42.6291 111.538 42.0949 116.453 47.5436 120.62C53.4197 124.893 57.9069 122.863 58.0137 122.756ZM51.3898 117.628C51.6035 117.308 52.1376 117.201 52.4582 117.521C52.7787 117.842 52.8855 118.269 52.565 118.59C52.3513 118.91 51.8171 119.017 51.4966 118.697C51.1761 118.483 51.0693 117.949 51.3898 117.628ZM57.4795 122.009C57.0522 122.115 56.1975 122.436 55.0223 122.329C54.5949 122.329 54.0607 122.222 53.5265 122.222C55.2359 119.765 54.8086 116.346 52.3513 114.53C49.8941 112.714 46.4753 113.141 44.659 115.491C43.8043 113.675 43.6975 112.179 43.6975 111.645C44.659 111.325 48.5052 110.47 52.8855 113.782C57.2659 117.094 57.4795 121.047 57.4795 122.009Z" fill="black"/>
    <path d="M68.0553 130.128C68.1622 130.128 68.1622 130.021 68.1622 129.914C68.1622 129.808 68.4827 127.244 65.5981 125.107C62.8203 122.97 60.363 123.932 60.363 124.038C60.2562 124.038 60.2562 124.145 60.2562 124.252C60.2562 124.359 59.9357 126.923 62.8203 129.06C65.7049 131.303 67.9485 130.235 68.0553 130.128Z" fill="black"/>
    <path d="M70.5132 132.158L71.6884 137.073L75.7482 141.453L81.3038 143.59L85.1499 143.055C85.1499 143.055 85.2568 139.637 82.7995 136.432C81.3038 134.508 78.3123 132.799 75.4277 131.731C72.1157 130.449 70.5132 132.158 70.5132 132.158Z" fill="white"/>
    <path d="M85.4708 143.376C85.5776 143.269 85.6844 143.162 85.6844 143.055C85.6844 142.842 86.2186 137.927 80.7699 133.761C75.2143 129.594 70.6203 131.517 70.4066 131.624C70.2998 131.731 70.193 131.838 70.0861 131.944C70.0861 132.158 69.5519 137.073 75.0007 141.239C80.8767 145.513 85.2571 143.483 85.4708 143.376ZM78.8468 138.248C79.0605 137.927 79.5947 137.82 79.9152 138.141C80.2357 138.355 80.3425 138.889 80.022 139.209C79.7015 139.53 79.2742 139.637 78.9537 139.316C78.6331 139.102 78.5263 138.568 78.8468 138.248ZM84.9366 142.628C84.5092 142.735 83.6545 143.055 82.4793 142.949C82.0519 142.949 81.5178 142.842 80.9836 142.842C82.693 140.385 82.2656 136.966 79.8084 135.149C77.3511 133.333 73.9323 133.761 72.116 136.111C71.2613 134.295 71.1545 132.799 71.1545 132.265C72.116 131.944 75.9622 131.09 80.3425 134.402C84.616 137.714 84.9366 141.667 84.9366 142.628Z" fill="black"/>
    <path d="M95.5129 150.748C95.6197 150.748 95.6197 150.641 95.6197 150.534C95.6197 150.427 95.9402 147.863 93.0556 145.726C90.2778 143.59 87.8206 144.551 87.8206 144.658C87.7137 144.658 87.7137 144.765 87.7137 144.872C87.7137 144.979 87.3932 147.543 90.2778 149.679C93.1624 151.923 95.406 150.855 95.5129 150.748Z" fill="black"/>
    <path d="M97.9692 152.778L99.1445 157.692L103.204 162.073L108.76 164.209L112.606 163.675C112.606 163.675 112.713 160.256 110.256 157.051C108.76 155.128 105.768 153.419 102.884 152.35C99.5718 151.068 97.9692 152.778 97.9692 152.778Z" fill="white"/>
    <path d="M112.927 163.996C113.034 163.889 113.141 163.782 113.141 163.675C113.141 163.462 113.675 158.547 108.226 154.38C102.671 150.214 98.0769 152.137 97.8632 152.244C97.7563 152.35 97.6495 152.457 97.5427 152.564C97.5427 152.778 97.0085 157.692 102.457 161.859C108.333 166.132 112.714 164.103 112.927 163.996ZM106.303 158.868C106.517 158.547 107.051 158.44 107.372 158.761C107.692 158.974 107.799 159.509 107.479 159.829C107.158 160.15 106.731 160.256 106.41 159.936C106.09 159.722 105.983 159.188 106.303 158.868ZM112.393 163.248C111.966 163.355 111.111 163.675 109.936 163.568C109.508 163.568 108.974 163.462 108.44 163.462C110.15 161.004 109.722 157.585 107.265 155.769C104.808 153.953 101.389 154.38 99.5726 156.731C98.7179 154.915 98.6111 153.419 98.6111 152.885C99.5726 152.564 103.419 151.709 107.799 155.021C112.073 158.333 112.393 162.286 112.393 163.248Z" fill="black"/>
    <path d="M122.97 171.367C123.077 171.367 123.077 171.261 123.077 171.154C123.077 171.047 123.398 168.483 120.513 166.346C117.735 164.209 115.278 165.171 115.278 165.278C115.171 165.278 115.171 165.385 115.171 165.491C115.171 165.598 114.851 168.162 117.735 170.299C120.62 172.543 122.864 171.474 122.97 171.367Z" fill="black"/>
    <path d="M233.014 90.9187L231.839 95.8333L227.779 100.214L222.223 102.35L218.377 101.816C218.377 101.816 218.27 98.3974 220.728 95.1922C222.223 93.2692 225.215 91.5598 228.099 90.4914C231.518 89.2093 233.014 90.9187 233.014 90.9187Z" fill="white"/>
    <path d="M228.419 100C233.975 95.8333 233.44 90.9188 233.334 90.7051C233.334 90.4914 233.227 90.3846 233.013 90.3846C232.799 90.2777 228.205 88.3547 222.65 92.5213C217.094 96.688 217.629 101.603 217.735 101.816C217.735 101.923 217.842 102.137 217.949 102.137C218.27 102.244 222.757 104.273 228.419 100ZM224.68 98.0769C224.359 98.2906 223.825 98.2906 223.611 97.97C223.398 97.6495 223.398 97.1153 223.718 96.9017C224.039 96.688 224.573 96.688 224.787 97.0085C225.107 97.329 225 97.8632 224.68 98.0769ZM223.398 93.1623C227.778 89.8504 231.624 90.7051 232.586 91.0256C232.586 91.5598 232.479 93.1624 231.624 94.8718C229.701 92.5213 226.282 92.094 223.932 93.9102C221.475 95.7265 220.94 99.1453 222.757 101.603C222.223 101.709 221.688 101.709 221.261 101.709C220.086 101.709 219.231 101.496 218.804 101.389C218.697 100.427 218.911 96.4743 223.398 93.1623Z" fill="black"/>
    <path d="M213.354 108.44C216.132 106.303 215.919 103.739 215.919 103.632C215.919 103.526 215.812 103.526 215.812 103.419C215.705 103.419 213.354 102.457 210.577 104.487C207.799 106.624 208.013 109.188 208.013 109.295C208.013 109.402 208.013 109.402 208.119 109.508C208.226 109.615 210.47 110.684 213.354 108.44Z" fill="black"/>
    <path d="M205.662 111.538L204.487 116.453L200.427 120.833L194.872 122.97L191.026 122.436C191.026 122.436 190.919 119.017 193.376 115.812C194.872 113.889 197.863 112.179 200.748 111.111C204.06 109.829 205.662 111.538 205.662 111.538Z" fill="white"/>
    <path d="M201.068 120.62C206.624 116.453 206.089 111.538 205.983 111.325C205.983 111.111 205.876 111.004 205.662 111.004C205.448 110.897 200.854 108.974 195.299 113.141C189.743 117.308 190.277 122.222 190.384 122.436C190.384 122.543 190.491 122.756 190.598 122.756C190.918 122.863 195.299 124.893 201.068 120.62ZM197.222 118.697C196.901 118.91 196.367 118.91 196.154 118.59C195.94 118.269 195.94 117.735 196.26 117.521C196.581 117.308 197.115 117.308 197.329 117.628C197.542 117.949 197.542 118.483 197.222 118.697ZM195.94 113.782C200.32 110.47 204.166 111.325 205.128 111.645C205.128 112.179 205.021 113.782 204.166 115.491C202.243 113.141 198.824 112.714 196.474 114.53C194.017 116.346 193.483 119.765 195.299 122.222C194.765 122.329 194.23 122.329 193.803 122.329C192.628 122.329 191.773 122.115 191.346 122.009C191.239 121.047 191.56 117.094 195.94 113.782Z" fill="black"/>
    <path d="M185.898 129.06C188.676 126.923 188.462 124.359 188.462 124.252C188.462 124.145 188.355 124.145 188.355 124.038C188.248 124.038 185.898 123.077 183.12 125.107C180.342 127.244 180.556 129.808 180.556 129.914C180.556 130.021 180.556 130.021 180.663 130.128C180.77 130.235 183.013 131.303 185.898 129.06Z" fill="black"/>
    <path d="M178.205 132.158L177.03 137.073L172.97 141.453L167.415 143.59L163.569 143.056C163.569 143.056 163.462 139.637 165.919 136.432C167.415 134.509 170.406 132.799 173.291 131.731C176.603 130.449 178.205 132.158 178.205 132.158Z" fill="white"/>
    <path d="M173.611 141.239C179.166 137.073 178.632 132.158 178.525 131.944C178.525 131.731 178.418 131.624 178.205 131.624C177.991 131.517 173.397 129.594 167.841 133.761C162.286 137.927 162.82 142.842 162.927 143.056C162.927 143.162 163.034 143.376 163.14 143.376C163.461 143.483 167.841 145.513 173.611 141.239ZM169.764 139.316C169.444 139.53 168.91 139.53 168.696 139.209C168.482 138.889 168.482 138.355 168.803 138.141C169.123 137.927 169.658 137.927 169.871 138.248C170.192 138.568 170.085 139.103 169.764 139.316ZM168.482 134.402C172.863 131.09 176.709 131.944 177.67 132.265C177.67 132.799 177.564 134.402 176.709 136.111C174.786 133.761 171.367 133.333 169.017 135.15C166.559 136.966 166.025 140.385 167.841 142.842C167.307 142.949 166.773 142.949 166.346 142.949C165.17 142.949 164.316 142.735 163.888 142.628C163.781 141.667 164.102 137.714 168.482 134.402Z" fill="black"/>
    <path d="M158.44 149.68C161.218 147.543 161.005 144.979 161.005 144.872C161.005 144.765 160.898 144.765 160.898 144.658C160.791 144.658 158.44 143.697 155.663 145.727C152.885 147.863 153.099 150.427 153.099 150.534C153.099 150.641 153.099 150.641 153.205 150.748C153.312 150.855 155.556 151.923 158.44 149.68Z" fill="black"/>
    <path d="M150.749 152.778L149.574 157.692L145.514 162.073L139.958 164.209L136.112 163.675C136.112 163.675 136.005 160.256 138.462 157.051C139.958 155.128 142.95 153.419 145.834 152.35C149.146 151.068 150.749 152.778 150.749 152.778Z" fill="white"/>
    <path d="M146.154 161.859C151.71 157.692 151.176 152.778 151.069 152.564C151.069 152.35 150.962 152.244 150.749 152.244C150.535 152.137 145.941 150.214 140.385 154.38C134.83 158.547 135.364 163.462 135.471 163.675C135.471 163.782 135.578 163.996 135.684 163.996C136.005 164.103 140.385 166.132 146.154 161.859ZM142.308 159.936C141.988 160.15 141.454 160.15 141.24 159.829C141.026 159.509 141.026 158.974 141.347 158.761C141.667 158.547 142.201 158.547 142.415 158.868C142.736 159.188 142.629 159.722 142.308 159.936ZM141.026 155.021C145.407 151.709 149.253 152.564 150.214 152.885C150.214 153.419 150.107 155.021 149.253 156.731C147.33 154.38 143.911 153.953 141.56 155.769C139.103 157.585 138.569 161.004 140.385 163.462C139.851 163.568 139.317 163.568 138.89 163.568C137.714 163.568 136.86 163.355 136.432 163.248C136.432 162.286 136.646 158.333 141.026 155.021Z" fill="black"/>
    <path d="M130.983 170.299C133.761 168.162 133.547 165.598 133.547 165.491C133.547 165.385 133.44 165.385 133.44 165.278C133.333 165.278 130.983 164.316 128.205 166.346C125.427 168.483 125.641 171.047 125.641 171.154C125.641 171.261 125.641 171.261 125.748 171.367C125.855 171.474 128.098 172.543 130.983 170.299Z" fill="black"/>
    <path d="M233.333 253.205L232.158 248.291L228.098 243.91L222.543 241.774L218.696 242.308C218.696 242.308 218.59 245.727 221.047 248.932C222.543 250.855 225.534 252.671 228.419 253.633C231.731 255.021 233.333 253.205 233.333 253.205Z" fill="white"/>
    <path d="M218.483 241.987C218.376 241.987 218.269 242.201 218.269 242.308C218.269 242.521 217.735 247.436 223.184 251.603C228.632 255.769 233.333 253.846 233.547 253.846C233.654 253.846 233.761 253.632 233.868 253.526C233.868 253.312 234.402 248.397 228.953 244.231C223.077 239.85 218.697 241.88 218.483 241.987ZM225.107 247.115C224.893 247.436 224.359 247.543 224.038 247.222C223.718 247.009 223.611 246.474 223.932 246.154C224.145 245.833 224.679 245.727 225 246.047C225.321 246.261 225.427 246.795 225.107 247.115ZM219.017 242.628C219.444 242.521 220.299 242.308 221.474 242.308C221.902 242.308 222.436 242.415 222.97 242.415C221.154 244.872 221.688 248.291 224.145 250.214C226.603 252.03 230.021 251.603 231.838 249.252C232.692 251.068 232.799 252.564 232.692 253.098C231.731 253.419 227.885 254.167 223.504 250.962C219.231 247.543 219.017 243.697 219.017 242.628Z" fill="black"/>
    <path d="M208.44 234.509C208.334 234.509 208.334 234.615 208.334 234.722C208.334 234.829 208.013 237.393 210.791 239.53C213.569 241.667 215.919 240.705 216.026 240.705C216.133 240.705 216.133 240.598 216.133 240.491C216.133 240.385 216.453 237.821 213.675 235.684C210.791 233.44 208.547 234.402 208.44 234.509Z" fill="black"/>
    <path d="M205.984 232.479L204.808 227.564L200.749 223.184L195.193 221.047L191.347 221.581C191.347 221.581 191.24 225 193.697 228.205C195.193 230.128 198.184 231.944 201.069 232.906C204.381 234.188 205.984 232.479 205.984 232.479Z" fill="white"/>
    <path d="M191.133 221.154C191.026 221.154 190.919 221.367 190.919 221.474C190.919 221.688 190.385 226.603 195.834 230.769C201.282 234.936 205.983 233.013 206.197 233.013C206.304 233.013 206.411 232.799 206.517 232.692C206.517 232.479 207.052 227.564 201.603 223.397C195.727 219.124 191.346 221.047 191.133 221.154ZM197.757 226.389C197.543 226.709 197.009 226.816 196.688 226.496C196.368 226.282 196.261 225.748 196.582 225.427C196.795 225.107 197.329 225 197.65 225.32C197.97 225.534 198.077 226.068 197.757 226.389ZM191.667 221.902C192.094 221.795 192.949 221.581 194.124 221.581C194.552 221.581 195.086 221.688 195.62 221.688C193.804 224.145 194.338 227.564 196.795 229.487C199.252 231.303 202.671 230.876 204.488 228.526C205.342 230.342 205.449 231.838 205.342 232.372C204.381 232.692 200.535 233.44 196.154 230.235C191.881 226.816 191.667 222.97 191.667 221.902Z" fill="black"/>
    <path d="M181.09 213.782C180.983 213.782 180.983 213.889 180.983 213.996C180.983 214.103 180.663 216.667 183.441 218.803C186.218 220.94 188.569 219.979 188.676 219.979C188.783 219.979 188.783 219.872 188.783 219.765C188.783 219.658 189.103 217.094 186.325 214.957C183.441 212.607 181.197 213.675 181.09 213.782Z" fill="black"/>
    <path d="M178.633 211.752L177.458 206.838L173.398 202.457L167.842 200.321L163.996 200.855C163.996 200.855 163.889 204.274 166.347 207.479C167.842 209.402 170.834 211.218 173.719 212.18C177.03 213.462 178.633 211.752 178.633 211.752Z" fill="white"/>
    <path d="M163.783 200.427C163.676 200.427 163.569 200.641 163.569 200.748C163.569 200.961 163.035 205.876 168.484 210.043C173.932 214.209 178.633 212.286 178.847 212.286C178.954 212.286 179.06 212.073 179.167 211.966C179.167 211.752 179.702 206.838 174.253 202.671C168.377 198.397 163.996 200.32 163.783 200.427ZM170.407 205.662C170.193 205.983 169.659 206.09 169.338 205.769C169.018 205.555 168.911 205.021 169.231 204.701C169.445 204.38 169.979 204.273 170.3 204.594C170.62 204.808 170.727 205.235 170.407 205.662ZM164.317 201.175C164.744 201.068 165.599 200.855 166.774 200.855C167.202 200.855 167.736 200.961 168.27 200.961C166.454 203.419 166.988 206.838 169.445 208.761C171.902 210.577 175.321 210.15 177.137 207.799C177.992 209.615 178.099 211.111 177.992 211.645C177.031 211.966 173.184 212.714 168.804 209.508C164.531 206.09 164.317 202.244 164.317 201.175Z" fill="black"/>
    <path d="M153.739 192.949C153.632 192.949 153.632 193.056 153.632 193.162C153.632 193.269 153.312 195.833 156.09 197.97C158.867 200.107 161.218 199.145 161.325 199.145C161.432 199.145 161.432 199.038 161.432 198.932C161.432 198.825 161.752 196.261 158.974 194.124C156.09 191.88 153.846 192.949 153.739 192.949Z" fill="black"/>
    <path d="M151.282 191.026L150.107 186.111L146.047 181.731L140.492 179.594L136.646 180.128C136.646 180.128 136.539 183.547 138.996 186.752C140.492 188.675 143.483 190.491 146.368 191.453C149.68 192.735 151.282 191.026 151.282 191.026Z" fill="white"/>
    <path d="M136.432 179.701C136.325 179.701 136.218 179.914 136.218 180.021C136.218 180.235 135.684 185.15 141.133 189.316C146.581 193.483 151.282 191.56 151.496 191.56C151.603 191.56 151.709 191.346 151.816 191.239C151.816 191.026 152.35 186.111 146.902 181.944C141.026 177.564 136.538 179.594 136.432 179.701ZM143.056 184.829C142.842 185.15 142.308 185.256 141.987 184.936C141.667 184.722 141.56 184.188 141.88 183.867C142.201 183.547 142.628 183.44 142.949 183.761C143.269 184.081 143.269 184.509 143.056 184.829ZM136.966 180.449C137.393 180.342 138.248 180.128 139.423 180.128C139.85 180.128 140.385 180.235 140.919 180.235C139.103 182.692 139.637 186.111 142.094 188.034C144.551 189.957 147.97 189.423 149.786 187.073C150.641 188.889 150.748 190.385 150.641 190.919C149.68 191.239 145.833 191.987 141.453 188.782C137.18 185.363 136.966 181.41 136.966 180.449Z" fill="black"/>
    <path d="M126.389 172.222C126.282 172.222 126.282 172.329 126.282 172.436C126.282 172.543 125.962 175.107 128.74 177.244C131.517 179.38 133.868 178.419 133.975 178.419C134.081 178.419 134.081 178.312 134.081 178.205C134.081 178.098 134.402 175.534 131.624 173.397C128.74 171.154 126.496 172.222 126.389 172.222Z" fill="black"/>
    <path d="M52.7786 17.094L51.4966 22.0085L52.9923 27.7778L56.9453 32.2649L60.5778 33.547C60.5778 33.547 62.2872 30.5555 61.6462 26.6025C61.2188 24.1453 59.4026 21.2607 57.3727 19.0171C54.9154 16.3461 52.7786 17.094 52.7786 17.094Z" fill="white"/>
    <path d="M60.6841 34.0812C60.7909 34.0812 61.0046 33.9743 61.1114 33.8675C61.2183 33.7607 63.996 29.594 61.1114 23.2906C58.2268 16.9872 53.2054 16.5598 52.9918 16.5598C52.8849 16.5598 52.6713 16.5598 52.5644 16.7735C52.4576 16.8803 49.6798 21.047 52.5644 27.3504C55.5559 33.7607 60.3636 34.0812 60.6841 34.0812ZM57.1584 26.3889C57.5858 26.1752 58.0131 26.3889 58.2268 26.8162C58.4405 27.2436 58.2268 27.6709 57.7995 27.8846C57.3721 28.0983 56.9448 27.8846 56.7311 27.4573C56.6243 27.0299 56.7311 26.6026 57.1584 26.3889ZM60.4704 33.1196C60.0431 33.0128 59.1884 32.7991 58.12 32.2649C57.6926 32.0513 57.3721 31.7308 56.8379 31.4102C59.5089 30.0214 60.6841 26.8162 59.402 24.0384C58.12 21.2607 54.9149 20.0855 52.1371 21.2607C52.2439 19.3376 52.8849 17.9487 53.0986 17.4145C54.167 17.6282 57.9063 18.6966 60.1499 23.6111C62.5003 28.7393 60.8978 32.2649 60.4704 33.1196Z" fill="black"/>
    <path d="M66.0262 45.2991C66.1331 45.2991 66.1331 45.2991 66.2399 45.1923C66.3467 45.0854 67.7356 42.9487 66.2399 39.8504C64.7442 36.7521 62.1801 36.4316 62.0732 36.4316C61.9664 36.4316 61.8596 36.4316 61.8596 36.5384C61.7527 36.6453 60.3638 38.782 61.8596 41.8803C63.3553 45.1923 65.9194 45.2991 66.0262 45.2991Z" fill="black"/>
    <path d="M67.3084 48.1837L66.0264 53.0982L67.5221 58.8675L71.4751 63.3547L75.1076 64.6367C75.1076 64.6367 76.817 61.6453 76.1759 57.6923C75.7486 55.235 73.9324 52.3504 71.9024 50.1068C69.4452 47.4359 67.3084 48.1837 67.3084 48.1837Z" fill="white"/>
    <path d="M75.1074 65.1709C75.2143 65.1709 75.4279 65.0641 75.5348 64.9572C75.6416 64.8504 78.4194 60.6837 75.5348 54.3803C72.6502 48.0769 67.6288 47.6495 67.4151 47.6495C67.3083 47.6495 67.0946 47.6495 66.9878 47.8632C66.8809 47.97 64.1031 52.1367 66.9878 58.4401C70.0861 64.8504 74.8938 65.1709 75.1074 65.1709ZM71.6886 57.4786C72.116 57.2649 72.5433 57.4786 72.757 57.9059C72.9707 58.3333 72.757 58.7606 72.3296 58.9743C71.9023 59.188 71.4749 58.9743 71.2613 58.547C71.0476 58.1196 71.2613 57.6923 71.6886 57.4786ZM74.8937 64.3162C74.4664 64.2094 73.6117 63.9957 72.5433 63.4615C72.116 63.2478 71.7955 62.9273 71.2613 62.6068C73.9322 61.2179 75.1074 58.0128 73.8254 55.235C72.5433 52.4572 69.3382 51.282 66.5604 52.4572C66.6673 50.5342 67.3083 49.1453 67.522 48.6111C68.5903 48.8248 72.3296 49.8931 74.5732 54.8077C77.0305 59.829 75.4279 63.3547 74.8937 64.3162Z" fill="black"/>
    <path d="M80.5565 76.4958C80.6633 76.4958 80.6633 76.4958 80.7702 76.3889C80.877 76.2821 82.2659 74.1453 80.7702 71.047C79.2744 67.8419 76.7103 67.6282 76.6035 67.6282C76.4967 67.6282 76.3898 67.6282 76.3898 67.7351C76.283 67.8419 74.8941 69.9787 76.3898 73.077C77.8856 76.2821 80.4497 76.4958 80.5565 76.4958Z" fill="black"/>
    <path d="M81.7308 79.3803L80.4487 84.2948L81.9445 90.064L85.8974 94.5512L89.5299 95.8333C89.5299 95.8333 91.2393 92.8418 90.5983 88.8888C90.171 86.4315 88.3547 83.5469 86.3248 81.3033C83.9744 78.5256 81.7308 79.3803 81.7308 79.3803Z" fill="white"/>
    <path d="M89.6367 96.2606C89.7436 96.2606 89.9572 96.1538 90.0641 96.047C90.1709 95.9401 92.9487 91.7734 90.0641 85.47C87.1795 79.2734 82.1581 78.7393 81.9444 78.7393C81.8376 78.7393 81.6239 78.7393 81.5171 78.9529C81.4102 79.0598 78.6324 83.2264 81.5171 89.5299C84.5085 95.9401 89.423 96.2606 89.6367 96.2606ZM86.2179 88.5683C86.6453 88.3546 87.0726 88.5683 87.2863 88.9957C87.5 89.423 87.2863 89.8504 86.8589 90.0641C86.4316 90.2777 86.0042 90.064 85.7906 89.6367C85.5769 89.3162 85.7906 88.782 86.2179 88.5683ZM89.423 95.4059C88.9957 95.2991 88.141 95.0854 87.0726 94.5512C86.6453 94.3376 86.3248 94.017 85.7906 93.6965C88.4615 92.3076 89.6367 89.1025 88.3547 86.3247C87.0726 83.547 83.8675 82.3717 81.0897 83.547C81.1965 81.6239 81.8376 80.235 82.0513 79.7008C83.1196 79.9145 86.8589 80.9829 89.1025 85.8974C91.5598 90.9187 89.9572 94.4444 89.423 95.4059Z" fill="black"/>
    <path d="M94.9798 107.585C95.0867 107.585 95.0867 107.585 95.1935 107.479C95.3004 107.372 96.6892 105.235 95.1935 102.137C93.6978 98.9316 91.1337 98.718 91.0268 98.718C90.92 98.718 90.8132 98.718 90.8132 98.8248C90.7063 98.9316 89.3174 101.068 90.8132 104.167C92.4157 107.372 94.873 107.585 94.9798 107.585Z" fill="black"/>
    <path d="M96.2615 110.47L94.9795 115.385L96.4752 121.154L100.428 125.641L104.061 126.923C104.061 126.923 105.77 123.932 105.129 119.979C104.702 117.521 102.885 114.637 100.856 112.393C98.5051 109.615 96.2615 110.47 96.2615 110.47Z" fill="white"/>
    <path d="M104.167 127.457C104.274 127.457 104.488 127.35 104.595 127.244C104.702 127.137 107.479 122.97 104.595 116.667C101.71 110.47 96.6889 109.936 96.4752 109.936C96.3683 109.936 96.1547 109.936 96.0478 110.15C95.941 110.256 93.1632 114.423 96.0478 120.727C99.0393 127.137 103.954 127.457 104.167 127.457ZM100.642 119.765C101.069 119.551 101.497 119.765 101.71 120.192C101.924 120.62 101.71 121.047 101.283 121.261C100.856 121.474 100.428 121.261 100.214 120.833C100.108 120.406 100.321 119.872 100.642 119.765ZM103.954 126.496C103.526 126.389 102.672 126.175 101.603 125.641C101.176 125.427 100.856 125.107 100.321 124.786C102.992 123.397 104.167 120.192 102.885 117.415C101.603 114.637 98.3982 113.462 95.6205 114.637C95.7273 112.714 96.3683 111.325 96.582 110.791C97.6504 111.004 101.39 112.073 103.633 116.987C106.091 122.009 104.488 125.641 103.954 126.496Z" fill="black"/>
    <path d="M109.509 138.675C109.616 138.675 109.616 138.675 109.723 138.568C109.83 138.462 111.219 136.325 109.723 133.226C108.227 130.128 105.663 129.808 105.556 129.808C105.449 129.808 105.342 129.808 105.342 129.915C105.236 130.021 103.847 132.158 105.342 135.256C106.945 138.568 109.402 138.675 109.509 138.675Z" fill="black"/>
    <path d="M196.903 16.5598L198.185 21.4744L196.69 27.2436L192.737 31.7308L189.104 33.0128C189.104 33.0128 187.395 30.0214 188.036 26.0684C188.463 23.6111 190.28 20.7265 192.309 18.4829C194.767 15.7051 196.903 16.5598 196.903 16.5598Z" fill="white"/>
    <path d="M197.116 26.7094C200.001 20.5128 197.223 16.3462 197.116 16.1325C197.01 16.0257 196.903 15.9188 196.689 15.9188C196.475 15.9188 191.561 16.453 188.569 22.6496C185.578 28.8462 188.463 33.0128 188.569 33.2265C188.676 33.3334 188.783 33.4402 188.997 33.4402C189.21 33.4402 194.125 33.1197 197.116 26.7094ZM192.843 26.8163C192.629 27.2436 192.202 27.3504 191.775 27.2436C191.347 27.1368 191.24 26.6026 191.347 26.1752C191.561 25.7479 191.988 25.641 192.416 25.7479C192.95 25.9616 193.057 26.3889 192.843 26.8163ZM189.424 23.0769C191.775 18.1624 195.514 17.094 196.475 16.8804C196.796 17.4146 197.437 18.6966 197.437 20.7265C194.659 19.5513 191.454 20.7265 190.172 23.5043C188.89 26.2821 190.065 29.594 192.736 30.8761C192.309 31.1966 191.881 31.5171 191.454 31.7308C190.386 32.265 189.531 32.4787 189.104 32.5855C188.783 31.624 187.074 28.0983 189.424 23.0769Z" fill="black"/>
    <path d="M187.821 41.2393C189.317 38.0342 187.928 35.8974 187.821 35.8974C187.821 35.7906 187.714 35.7906 187.607 35.7906C187.5 35.7906 184.936 36.0043 183.441 39.2094C181.945 42.4145 183.334 44.5513 183.441 44.5513C183.441 44.6581 183.547 44.6581 183.654 44.6581C183.761 44.7649 186.218 44.5513 187.821 41.2393Z" fill="black"/>
    <path d="M182.373 47.6495L183.655 52.5641L182.159 58.3333L178.206 62.8205L174.574 64.1025C174.574 64.1025 172.864 61.1111 173.505 57.1581C173.933 54.7008 175.749 51.8162 177.779 49.5726C180.236 46.7949 182.373 47.6495 182.373 47.6495Z" fill="white"/>
    <path d="M182.586 57.7991C185.47 51.6026 182.693 47.4359 182.586 47.2222C182.479 47.1154 182.372 47.0085 182.158 47.0085C181.945 47.0085 177.03 47.5427 174.039 53.7393C171.047 59.9359 173.932 64.1026 174.039 64.3162C174.145 64.4231 174.252 64.5299 174.466 64.5299C174.787 64.5299 179.594 64.3162 182.586 57.7991ZM178.419 57.906C178.205 58.3333 177.778 58.4402 177.351 58.3333C176.923 58.1197 176.816 57.6923 176.923 57.265C177.137 56.8376 177.564 56.7308 177.992 56.8376C178.419 57.0513 178.526 57.5855 178.419 57.906ZM174.893 54.2735C177.244 49.359 180.983 48.2906 181.945 48.0769C182.265 48.6111 182.906 49.8932 182.906 51.9231C180.128 50.7479 176.923 51.9231 175.641 54.7009C174.359 57.4786 175.534 60.7906 178.205 62.0726C177.778 62.3932 177.351 62.7137 176.923 62.9274C175.855 63.4615 175 63.6752 174.573 63.782C174.252 62.7137 172.65 59.188 174.893 54.2735Z" fill="black"/>
    <path d="M173.291 72.436C174.787 69.2308 173.398 67.0941 173.291 67.0941C173.291 66.9872 173.184 66.9872 173.077 66.9872C172.971 66.9872 170.407 67.2009 168.911 70.406C167.415 73.6112 168.804 75.7479 168.911 75.7479C168.911 75.8548 169.018 75.8548 169.125 75.8548C169.231 75.8548 171.795 75.7479 173.291 72.436Z" fill="black"/>
    <path d="M167.949 78.7393L169.231 83.6538L167.736 89.423L163.783 93.9102L160.15 95.1922C160.15 95.1922 158.441 92.2008 159.082 88.2478C159.509 85.7905 161.325 82.9059 163.355 80.6623C165.706 77.9914 167.949 78.7393 167.949 78.7393Z" fill="white"/>
    <path d="M168.163 88.8889C171.048 82.6923 168.27 78.5256 168.163 78.3119C168.056 78.2051 167.95 78.0983 167.736 78.0983C167.522 78.0983 162.608 78.6325 159.616 84.829C156.732 91.0256 159.509 95.1923 159.616 95.406C159.723 95.5128 159.83 95.6196 160.044 95.6196C160.257 95.7265 165.065 95.406 168.163 88.8889ZM163.89 89.1025C163.676 89.5299 163.249 89.6367 162.821 89.5299C162.394 89.4231 162.287 88.8889 162.394 88.4615C162.501 88.0342 163.035 87.9273 163.462 88.0342C163.89 88.141 164.103 88.6752 163.89 89.1025ZM160.471 85.3632C162.821 80.4487 166.561 79.3803 167.522 79.1666C167.843 79.7008 168.484 80.9829 168.484 83.0128C165.706 81.8376 162.501 83.0128 161.219 85.7906C159.937 88.5684 161.112 91.8803 163.783 93.1624C163.356 93.4829 162.928 93.8034 162.501 94.0171C161.432 94.5513 160.578 94.7649 160.15 94.8718C159.723 93.9102 158.12 90.2778 160.471 85.3632Z" fill="black"/>
    <path d="M158.761 103.526C160.257 100.321 158.868 98.1838 158.761 98.1838C158.761 98.077 158.654 98.077 158.547 98.077C158.44 98.077 155.876 98.2906 154.381 101.496C152.885 104.701 154.274 106.838 154.381 106.838C154.381 106.944 154.487 106.944 154.594 106.944C154.808 106.944 157.265 106.838 158.761 103.526Z" fill="black"/>
    <path d="M153.419 109.829L154.701 114.744L153.205 120.513L149.252 125L145.619 126.282C145.619 126.282 143.91 123.291 144.551 119.338C144.978 116.88 146.795 113.996 148.825 111.752C151.175 109.081 153.419 109.829 153.419 109.829Z" fill="white"/>
    <path d="M153.632 120.086C156.517 113.889 153.739 109.722 153.632 109.509C153.526 109.402 153.419 109.295 153.205 109.295C152.991 109.295 148.077 109.829 145.085 116.026C142.201 122.222 144.979 126.389 145.085 126.603C145.192 126.709 145.299 126.816 145.513 126.816C145.726 126.816 150.641 126.496 153.632 120.086ZM149.359 120.192C149.145 120.62 148.718 120.727 148.291 120.62C147.863 120.513 147.756 119.979 147.863 119.551C147.97 119.124 148.504 119.017 148.932 119.124C149.359 119.338 149.573 119.765 149.359 120.192ZM145.94 116.453C148.291 111.539 152.03 110.47 152.991 110.256C153.312 110.791 153.953 112.073 153.953 114.103C151.175 112.927 147.97 114.103 146.688 116.88C145.406 119.658 146.581 122.97 149.252 124.252C148.825 124.573 148.397 124.893 147.97 125.107C146.902 125.641 146.047 125.855 145.62 125.962C145.192 125 143.59 121.474 145.94 116.453Z" fill="black"/>
    <path d="M144.231 134.615C145.727 131.41 144.338 129.274 144.231 129.274C144.231 129.167 144.124 129.167 144.017 129.167C143.911 129.167 141.346 129.38 139.851 132.585C138.355 135.791 139.744 137.927 139.851 137.927C139.851 138.034 139.958 138.034 140.064 138.034C140.278 138.034 142.735 137.927 144.231 134.615Z" fill="black"/>
    <g opacity="0.2">
        <path opacity="0.2" d="M124.359 141.026C62.8208 141.026 39.8508 179.38 39.1029 180.983C38.355 182.158 38.355 183.761 39.1029 184.936C39.8508 186.539 62.8208 224.893 124.359 224.893C185.898 224.893 208.868 186.539 209.616 184.936C210.257 183.761 210.364 182.372 209.616 181.09C208.761 179.38 187.821 141.026 124.359 141.026Z" fill="black"/>
    </g>
    <path d="M42.7349 169.551L77.4571 141.239L130.128 131.945L180.983 146.688L205.342 171.047C205.342 171.047 187.393 195.94 152.991 205.449C131.944 211.218 101.175 207.586 75.2135 199.68C44.6579 190.385 42.7349 169.551 42.7349 169.551Z" fill="white"/>
    <path d="M124.359 129.273C62.8208 129.273 39.8508 167.628 39.1029 169.231C38.355 170.406 38.355 172.009 39.1029 173.184C39.8508 174.786 62.8208 213.141 124.359 213.141C185.898 213.141 208.868 174.786 209.616 173.184C210.257 172.009 210.364 170.62 209.616 169.338C208.761 167.628 187.821 129.273 124.359 129.273ZM141.346 163.248C145.193 163.248 148.291 166.453 148.291 170.192C148.291 173.932 145.086 177.137 141.346 177.137C137.607 177.137 134.402 173.932 134.402 170.192C134.402 166.453 137.5 163.248 141.346 163.248ZM124.359 205.235C75.6414 205.235 52.8849 178.846 47.3294 171.261C50.3208 167.094 58.8678 156.731 74.4661 148.718C75.214 175.427 97.2226 197.222 124.359 197.222C151.496 197.222 173.718 175.214 174.252 148.291C178.846 150.641 182.693 153.098 185.791 155.235C194.338 161.645 199.359 168.056 201.603 171.261C196.047 178.632 173.398 205.235 124.359 205.235Z" fill="black"/>
    <path d="M124.253 234.402L137.501 211.325H111.005L124.253 234.402Z" fill="black"/>
    <path d="M124.893 276.068C67.8416 276.068 21.4741 229.701 21.4741 172.65C21.4741 115.598 67.8416 69.2308 124.893 69.2308C181.944 69.2308 228.312 115.598 228.312 172.65C228.312 229.701 181.944 276.068 124.893 276.068ZM124.893 71.3676C69.0169 71.3676 23.6109 116.774 23.6109 172.65C23.6109 228.526 69.0169 273.932 124.893 273.932C180.769 273.932 226.175 228.526 226.175 172.65C226.175 116.774 180.769 71.3676 124.893 71.3676Z" fill="black"/>
    <path d="M102.244 72.4359L111.539 64.8505L125.534 62.3932L139.103 66.3462L145.62 72.8633C145.62 72.8633 140.812 79.4872 131.731 82.0513C126.175 83.547 117.949 82.5855 111.004 80.5556C102.778 77.9915 102.244 72.4359 102.244 72.4359Z" fill="white"/>
    <path d="M124.039 61.7522C107.693 61.7522 101.496 72.0086 101.282 72.436C101.069 72.7565 101.069 73.1838 101.282 73.5043C101.496 73.9317 107.586 84.1881 124.039 84.1881C140.492 84.1881 146.581 73.9317 146.795 73.5043C146.902 73.1838 147.009 72.8633 146.795 72.5428C146.475 72.0086 140.919 61.7522 124.039 61.7522ZM128.526 70.8334C129.487 70.8334 130.342 71.6881 130.342 72.6496C130.342 73.6112 129.487 74.4659 128.526 74.4659C127.564 74.4659 126.71 73.6112 126.71 72.6496C126.71 71.6881 127.564 70.8334 128.526 70.8334ZM124.039 81.9445C111.005 81.9445 105.022 74.8932 103.526 72.8633C104.274 71.7949 106.624 69.0172 110.791 66.8804C111.005 74.0385 116.881 79.8078 124.146 79.8078C131.411 79.8078 137.287 73.9317 137.5 66.7736C138.675 67.4146 139.744 68.0556 140.599 68.5898C142.842 70.2992 144.231 72.0086 144.765 72.8633C143.056 74.8932 137.073 81.9445 124.039 81.9445Z" fill="black"/>
    <path d="M102.67 272.436L111.965 264.85L125.961 262.393L139.529 266.346L146.046 272.863C146.046 272.863 141.239 279.487 132.158 282.051C126.602 283.547 118.376 282.586 111.431 280.556C103.205 277.992 102.67 272.436 102.67 272.436Z" fill="white"/>
    <path d="M124.465 261.752C108.119 261.752 101.923 272.009 101.709 272.436C101.495 272.756 101.495 273.184 101.709 273.504C101.923 273.932 108.013 284.188 124.465 284.188C140.918 284.188 147.008 273.932 147.222 273.504C147.329 273.184 147.436 272.863 147.222 272.543C146.901 272.009 141.346 261.752 124.465 261.752ZM128.953 270.833C129.914 270.833 130.769 271.688 130.769 272.65C130.769 273.611 129.914 274.466 128.953 274.466C127.991 274.466 127.136 273.611 127.136 272.65C127.136 271.688 127.991 270.833 128.953 270.833ZM124.465 281.944C111.431 281.944 105.448 274.893 103.953 272.863C104.701 271.795 107.051 269.017 111.218 266.88C111.431 274.038 117.307 279.808 124.572 279.808C131.837 279.808 137.713 273.932 137.927 266.774C139.102 267.415 140.171 268.056 141.025 268.59C143.269 270.299 144.658 272.009 145.192 272.863C143.483 274.893 137.5 281.944 124.465 281.944Z" fill="black"/>
    <path d="M15.3838 171.688L18.6958 169.017L23.7171 168.162L28.5248 169.551L30.8752 171.902C30.8752 171.902 29.1658 174.252 25.8539 175.214C23.824 175.748 20.9393 175.427 18.4821 174.679C15.4906 173.718 15.3838 171.688 15.3838 171.688Z" fill="white"/>
    <path d="M23.0767 167.842C17.2007 167.842 15.0639 171.474 14.9571 171.688C14.8502 171.795 14.8502 171.902 14.9571 172.115C15.0639 172.222 17.2007 175.962 23.0767 175.962C28.9528 175.962 31.0896 172.329 31.1964 172.115C31.3032 172.009 31.3032 171.902 31.1964 171.795C31.0896 171.581 29.1665 167.842 23.0767 167.842ZM24.6793 171.154C24.9998 171.154 25.3203 171.474 25.3203 171.795C25.3203 172.115 24.9998 172.436 24.6793 172.436C24.3588 172.436 24.0383 172.115 24.0383 171.795C24.0383 171.474 24.3588 171.154 24.6793 171.154ZM23.0767 175.107C18.4827 175.107 16.2391 172.65 15.7049 171.902C16.0255 171.474 16.7733 170.513 18.269 169.765C18.3759 172.329 20.4058 174.359 22.9699 174.359C25.534 174.359 27.6708 172.222 27.6708 169.765C28.0981 169.979 28.4186 170.192 28.7391 170.406C29.5938 171.047 30.0212 171.581 30.2349 171.902C29.9143 172.543 27.7776 175.107 23.0767 175.107Z" fill="black"/>
    <path d="M219.551 171.688L222.863 169.017L227.885 168.162L232.692 169.551L235.043 171.902C235.043 171.902 233.333 174.252 230.021 175.214C227.991 175.748 225.107 175.427 222.65 174.68C219.765 173.718 219.551 171.688 219.551 171.688Z" fill="white"/>
    <path d="M227.35 167.842C221.474 167.842 219.337 171.474 219.231 171.688C219.124 171.795 219.124 171.902 219.231 172.115C219.337 172.222 221.474 175.962 227.35 175.962C233.226 175.962 235.363 172.329 235.47 172.115C235.577 172.009 235.577 171.902 235.47 171.795C235.363 171.581 233.333 167.842 227.35 167.842ZM228.953 171.154C229.273 171.154 229.594 171.474 229.594 171.795C229.594 172.115 229.273 172.436 228.953 172.436C228.632 172.436 228.312 172.115 228.312 171.795C228.312 171.474 228.525 171.154 228.953 171.154ZM227.35 175.107C222.756 175.107 220.513 172.65 219.978 171.902C220.299 171.474 221.047 170.513 222.542 169.765C222.649 172.329 224.679 174.359 227.243 174.359C229.807 174.359 231.944 172.222 231.944 169.765C232.372 169.979 232.692 170.192 233.013 170.406C233.867 171.047 234.295 171.581 234.508 171.902C234.081 172.543 231.944 175.107 227.35 175.107Z" fill="black"/>
</svg>
