<svg width="250" height="346" viewBox="0 0 250 346" fill="none" xmlns="http://www.w3.org/2000/svg">
    <path d="M223.291 345.085H26.7094C11.9658 345.085 0 333.12 0 318.376V26.7094C0 11.9658 11.9658 0 26.7094 0H223.291C238.034 0 250 11.9658 250 26.7094V318.376C250 333.12 238.034 345.085 223.291 345.085Z" fill="#02D113"/>
    <path d="M215.812 329.06H34.1883C24.1455 329.06 16.0259 320.94 16.0259 310.897V34.188C16.0259 24.1453 24.1455 16.0256 34.1883 16.0256H215.812C225.855 16.0256 233.975 24.1453 233.975 34.188V310.897C233.975 320.94 225.855 329.06 215.812 329.06Z" fill="white"/>
    <path d="M215.812 330.128H34.1878C23.6109 330.128 14.957 321.474 14.957 310.897V34.188C14.957 23.6111 23.6109 14.9573 34.1878 14.9573H215.812C226.389 14.9573 235.042 23.6111 235.042 34.188V310.897C235.042 321.474 226.389 330.128 215.812 330.128ZM34.1878 17.094C24.7861 17.094 17.0938 24.7863 17.0938 34.188V310.897C17.0938 320.299 24.7861 327.991 34.1878 327.991H215.812C225.213 327.991 232.906 320.299 232.906 310.897V34.188C232.906 24.7863 225.213 17.094 215.812 17.094H34.1878Z" fill="black"/>
    <path d="M215.812 325.214H34.1878C26.2818 325.214 19.8716 318.803 19.8716 310.897V34.1881C19.8716 26.2821 26.2818 19.8718 34.1878 19.8718H215.812C223.718 19.8718 230.128 26.2821 230.128 34.1881V310.897C230.128 318.803 223.718 325.214 215.812 325.214ZM34.1878 20.7265C26.7092 20.7265 20.7263 26.8163 20.7263 34.1881V310.897C20.7263 318.376 26.816 324.359 34.1878 324.359H215.812C223.29 324.359 229.273 318.269 229.273 310.897V34.1881C229.273 26.7094 223.184 20.7265 215.812 20.7265H34.1878Z" fill="black"/>
    <path d="M107.266 324.573L114.851 318.376L126.283 316.346L137.394 319.551L142.736 324.893C142.736 324.893 138.783 330.342 131.304 332.372C126.71 333.654 119.979 332.799 114.317 331.09C107.693 329.06 107.266 324.573 107.266 324.573Z" fill="white"/>
    <path d="M125 315.812C111.646 315.812 106.624 324.145 106.411 324.466C106.197 324.679 106.197 325.107 106.411 325.32C106.624 325.641 111.539 333.974 125 333.974C138.355 333.974 143.377 325.641 143.59 325.32C143.697 325.107 143.804 324.786 143.59 324.466C143.377 324.145 138.889 315.812 125 315.812ZM128.74 323.184C129.595 323.184 130.236 323.932 130.236 324.679C130.236 325.427 129.488 326.175 128.74 326.175C127.992 326.175 127.244 325.427 127.244 324.679C127.244 323.932 127.885 323.184 128.74 323.184ZM125 332.372C114.424 332.372 109.402 326.602 108.227 325C108.868 324.038 110.791 321.795 114.103 320.085C114.317 325.961 119.018 330.662 125 330.662C130.877 330.662 135.791 325.855 135.898 319.979C136.859 320.513 137.714 321.047 138.462 321.474C140.385 322.863 141.453 324.252 141.881 325C140.599 326.602 135.684 332.372 125 332.372Z" fill="black"/>
    <path d="M93.1636 324.893L95.3003 323.184L98.6123 322.649L101.817 323.611L103.313 325.107C103.313 325.107 102.245 326.709 100.108 327.243C98.826 327.564 96.9029 327.35 95.3003 326.923C93.3772 326.175 93.1636 324.893 93.1636 324.893Z" fill="white"/>
    <path d="M98.2911 322.329C94.4449 322.329 93.0561 324.679 92.9492 324.786C92.9492 324.893 92.9492 325 92.9492 325C92.9492 325.107 94.4449 327.457 98.2911 327.457C102.137 327.457 103.526 325.107 103.633 325C103.633 324.893 103.633 324.786 103.633 324.786C103.526 324.679 102.244 322.329 98.2911 322.329ZM99.3595 324.466C99.5732 324.466 99.7868 324.679 99.7868 324.893C99.7868 325.107 99.5732 325.32 99.3595 325.32C99.1458 325.32 98.9321 325.107 98.9321 324.893C98.9321 324.679 99.1458 324.466 99.3595 324.466ZM98.2911 327.03C95.2996 327.03 93.8039 325.427 93.4834 324.893C93.6971 324.679 94.2313 324.038 95.1928 323.504C95.1928 325.214 96.5817 326.496 98.2911 326.496C100.001 326.496 101.389 325.107 101.389 323.397C101.71 323.504 101.924 323.718 102.137 323.825C102.671 324.252 102.992 324.573 103.099 324.786C102.778 325.427 101.389 327.03 98.2911 327.03Z" fill="black"/>
    <path d="M146.689 324.893L148.826 323.184L152.138 322.649L155.343 323.611L156.839 325.107C156.839 325.107 155.77 326.709 153.633 327.243C152.351 327.564 150.428 327.35 148.826 326.923C146.796 326.175 146.689 324.893 146.689 324.893Z" fill="white"/>
    <path d="M151.71 322.329C147.864 322.329 146.475 324.679 146.368 324.786C146.368 324.893 146.368 325 146.368 325C146.368 325.107 147.864 327.457 151.71 327.457C155.556 327.457 156.945 325.107 157.052 325C157.052 324.893 157.052 324.786 157.052 324.786C156.945 324.679 155.663 322.329 151.71 322.329ZM152.778 324.466C152.992 324.466 153.206 324.679 153.206 324.893C153.206 325.107 152.992 325.32 152.778 325.32C152.565 325.32 152.351 325.107 152.351 324.893C152.351 324.679 152.565 324.466 152.778 324.466ZM151.71 327.03C148.719 327.03 147.223 325.427 146.902 324.893C147.116 324.679 147.65 324.038 148.612 323.504C148.612 325.214 150.001 326.496 151.71 326.496C153.419 326.496 154.808 325.107 154.808 323.397C155.129 323.504 155.343 323.718 155.556 323.825C156.09 324.252 156.411 324.573 156.518 324.786C156.197 325.427 154.808 327.03 151.71 327.03Z" fill="black"/>
    <path d="M107.266 19.9788L114.851 13.7822L126.283 11.7523L137.394 14.9574L142.736 20.2993C142.736 20.2993 138.783 25.748 131.304 27.778C126.71 29.06 119.979 28.2053 114.317 26.4959C107.693 24.466 107.266 19.9788 107.266 19.9788Z" fill="white"/>
    <path d="M125 11.218C111.646 11.218 106.624 19.5514 106.411 19.8719C106.197 20.0855 106.197 20.5129 106.411 20.7266C106.624 21.0471 111.539 29.3804 125 29.3804C138.355 29.3804 143.377 21.0471 143.59 20.7266C143.697 20.5129 143.804 20.1924 143.59 19.8719C143.377 19.5514 138.889 11.218 125 11.218ZM128.74 18.5898C129.595 18.5898 130.236 19.3377 130.236 20.0855C130.236 20.9402 129.488 21.5813 128.74 21.5813C127.992 21.5813 127.244 20.8334 127.244 20.0855C127.137 19.3377 127.885 18.5898 128.74 18.5898ZM125 27.7778C114.424 27.7778 109.402 22.0086 108.227 20.4061C108.868 19.4445 110.791 17.2009 114.103 15.4915C114.317 21.3676 119.018 26.0684 125 26.0684C130.877 26.0684 135.791 21.2608 135.898 15.3847C136.859 15.9189 137.714 16.4531 138.462 16.8804C140.385 18.2693 141.453 19.6582 141.881 20.4061C140.599 22.0086 135.684 27.7778 125 27.7778Z" fill="black"/>
    <path d="M93.1636 20.1923L95.3003 18.4829L98.6123 17.9487L101.817 18.9103L103.313 20.406C103.313 20.406 102.245 22.0086 100.108 22.5427C98.826 22.8633 96.9029 22.6496 95.3003 22.2222C93.3772 21.5812 93.1636 20.1923 93.1636 20.1923Z" fill="white"/>
    <path d="M98.2911 17.7351C94.4449 17.7351 93.0561 20.0855 92.9492 20.1924C92.9492 20.2992 92.9492 20.406 92.9492 20.406C92.9492 20.5129 94.4449 22.8633 98.2911 22.8633C102.137 22.8633 103.526 20.5129 103.633 20.406C103.633 20.2992 103.633 20.1924 103.633 20.1924C103.526 20.0855 102.244 17.7351 98.2911 17.7351ZM99.3595 19.8719C99.5732 19.8719 99.7868 20.0855 99.7868 20.2992C99.7868 20.5129 99.5732 20.7266 99.3595 20.7266C99.1458 20.7266 98.9321 20.5129 98.9321 20.2992C98.9321 20.0855 99.1458 19.8719 99.3595 19.8719ZM98.2911 22.436C95.2996 22.436 93.8039 20.8334 93.4834 20.2992C93.6971 20.0855 94.2313 19.4445 95.1928 18.9103C95.1928 20.6197 96.5817 21.9018 98.2911 21.9018C100.001 21.9018 101.389 20.5129 101.389 18.8035C101.71 18.9103 101.924 19.124 102.137 19.2308C102.671 19.6582 102.992 19.9787 103.099 20.1924C102.778 20.8334 101.389 22.436 98.2911 22.436Z" fill="black"/>
    <path d="M146.689 20.1923L148.826 18.4829L152.138 17.9487L155.343 18.9103L156.839 20.406C156.839 20.406 155.77 22.0086 153.633 22.5427C152.351 22.8633 150.428 22.6496 148.826 22.2222C146.796 21.5812 146.689 20.1923 146.689 20.1923Z" fill="white"/>
    <path d="M151.71 17.7351C147.864 17.7351 146.475 20.0855 146.368 20.1924C146.368 20.2992 146.368 20.406 146.368 20.406C146.368 20.5129 147.864 22.8633 151.71 22.8633C155.556 22.8633 156.945 20.5129 157.052 20.406C157.052 20.2992 157.052 20.1924 157.052 20.1924C156.945 20.0855 155.663 17.7351 151.71 17.7351ZM152.778 19.8719C152.992 19.8719 153.206 20.0855 153.206 20.2992C153.206 20.5129 152.992 20.7266 152.778 20.7266C152.565 20.7266 152.351 20.5129 152.351 20.2992C152.351 20.0855 152.565 19.8719 152.778 19.8719ZM151.71 22.436C148.719 22.436 147.223 20.8334 146.902 20.2992C147.116 20.0855 147.65 19.4445 148.612 18.9103C148.612 20.6197 150.001 21.9018 151.71 21.9018C153.419 21.9018 154.808 20.5129 154.808 18.8035C155.129 18.9103 155.343 19.124 155.556 19.2308C156.09 19.6582 156.411 19.9787 156.518 20.1924C156.197 20.8334 154.808 22.436 151.71 22.436Z" fill="black"/>
</svg>
