<svg width="23" height="16" viewBox="0 0 23 16" fill="none" xmlns="http://www.w3.org/2000/svg">
    <path d="M20.6155 0.00119854C20.2197 0.0137624 19.8443 0.180116 19.5691 0.464951C15.7918 4.25043 11.7485 8.58803 7.97468 12.4161L2.58774 7.9805C2.43699 7.83277 2.25717 7.718 2.05969 7.64349C1.86221 7.56898 1.6514 7.53636 1.44064 7.54768C1.22987 7.559 1.02377 7.61403 0.83541 7.70927C0.647051 7.8045 0.480555 7.93785 0.346495 8.10088C0.212436 8.2639 0.113742 8.45303 0.0566827 8.65623C-0.000376928 8.85944 -0.0145558 9.07229 0.0150466 9.28127C0.044649 9.49025 0.117386 9.6908 0.228638 9.87016C0.339889 10.0495 0.487225 10.2038 0.661288 10.3232L7.13037 15.6507C7.42208 15.892 7.79325 16.0159 8.17144 15.9984C8.54962 15.9808 8.90768 15.8229 9.17574 15.5555C13.2659 11.4566 17.7055 6.65396 21.7334 2.61737C21.9553 2.40308 22.1069 2.12642 22.168 1.82404C22.2292 1.52167 22.197 1.20786 22.0758 0.924175C21.9546 0.640489 21.75 0.400327 21.4893 0.235502C21.2285 0.0706772 20.9238 -0.0110394 20.6155 0.00119854Z" fill="#002539"/>
</svg>
