<svg width="128" height="128" viewBox="0 0 128 128" fill="none" xmlns="http://www.w3.org/2000/svg">
    <g filter="url(#filter0_d)">
        <circle cx="61" cy="60" r="55.5" stroke="#002539" stroke-width="5"/>
    </g>
    <g filter="url(#filter1_d)">
        <path fill-rule="evenodd" clip-rule="evenodd" d="M99.4669 100.744C97.0556 95.5563 94.9645 91.9593 89.4846 88.2386C92.0246 85.3386 96.9046 79.1286 97.7046 73.4986C97.7645 73.0573 97.7645 72.6099 97.7046 72.1686V71.8386C97.6806 71.7467 97.6505 71.6565 97.6146 71.5686C97.4237 70.7518 97.0435 69.9914 96.5046 69.3486C94.5946 67.0686 90.6146 65.7686 85.6346 64.9986C86.2252 62.8549 86.5278 60.6422 86.5346 58.4186C86.5159 56.8629 86.3485 55.3125 86.0346 53.7886C91.8046 51.7886 95.9246 49.3286 97.2946 47.3386C97.6038 46.9539 97.81 46.497 97.894 46.0107C97.9779 45.5243 97.9369 45.0247 97.7746 44.5586C97.6966 44.3475 97.5727 44.1564 97.4119 43.9991C97.251 43.8417 97.0573 43.722 96.8446 43.6486C93.9423 42.6613 90.9663 41.9056 87.9446 41.3886L86.5846 41.1186C82.4946 16.9186 75.9446 16.2486 73.6446 16.0186C73.5057 15.9937 73.3635 15.9937 73.2246 16.0186C69.4076 16.2472 64.3949 19.5685 61.9485 21.1895L61.9046 21.2186L61.4546 21.5186L60.9946 21.2186L60.9507 21.1894C58.3303 19.4424 53.4932 16.2175 49.6846 16.0186C49.5018 15.9984 49.3174 15.9984 49.1346 16.0186C46.9546 16.2386 40.4046 16.9086 36.3246 41.1086L34.9646 41.3786C31.9429 41.8955 28.9668 42.6513 26.0646 43.6386C25.8519 43.712 25.6581 43.8317 25.4973 43.9891C25.3365 44.1464 25.2126 44.3376 25.1346 44.5486C24.9704 45.0144 24.9283 45.5145 25.0123 46.0012C25.0964 46.4878 25.3037 46.9449 25.6146 47.3286C26.9246 49.2386 30.7546 51.5386 36.1346 53.5186C35.8054 55.1279 35.6379 56.766 35.6346 58.4086C35.6431 60.6695 35.9524 62.9193 36.5546 65.0986C31.9846 65.8986 28.2346 67.2286 26.4546 69.3386C25.9223 69.9843 25.546 70.744 25.3546 71.5586C25.3142 71.6448 25.2839 71.7354 25.2646 71.8286V72.1586C25.2146 72.6005 25.2146 73.0467 25.2646 73.4886C26.0746 79.1186 30.9546 85.3286 33.4946 88.2286C27.5637 92.249 25.5986 96.125 22.9199 102.02L26.5529 101.112C28.8558 96.2844 30.8951 93.3543 36.5246 89.8686C36.7209 89.744 36.8866 89.5768 37.0095 89.3795C37.1324 89.1822 37.2093 88.9597 37.2346 88.7286C37.2641 88.4944 37.2419 88.2565 37.1693 88.0319C37.0967 87.8072 36.9756 87.6013 36.8146 87.4286C34.0116 84.4719 31.6231 81.1482 29.7146 77.5486C32.0615 78.5842 34.4692 79.4758 36.9246 80.2186L36.959 80.23C46.0531 83.228 57.3483 86.9517 60.2646 97.2786C60.3379 97.5592 60.4949 97.8108 60.7145 98.0001C60.9342 98.1894 61.2062 98.3075 61.4946 98.3386C61.7833 98.3054 62.0555 98.1868 62.2764 97.998C62.4973 97.8091 62.6568 97.5586 62.7346 97.2786C65.6509 86.9517 76.946 83.228 86.0401 80.23L86.0746 80.2186C88.5293 79.4742 90.9371 78.5826 93.2846 77.5486C91.3761 81.1482 88.9876 84.4719 86.1846 87.4286C86.0217 87.6001 85.8995 87.8059 85.8268 88.0309C85.7541 88.2558 85.7329 88.4943 85.7646 88.7286C85.7877 88.9603 85.8638 89.1836 85.9869 89.3813C86.11 89.5789 86.2768 89.7457 86.4746 89.8686C91.7277 93.0819 93.8423 95.8734 95.9789 100.163L99.4669 100.744ZM94.8246 72.5686C94.8018 72.1451 94.6401 71.741 94.3646 71.4186V71.3886C93.0446 69.8186 89.6446 68.6386 84.6546 67.9386C83.3638 71.1203 81.4444 74.0089 79.0114 76.4316C76.5784 78.8543 73.6817 80.7613 70.4946 82.0386C70.9426 82.1608 71.3906 82.3029 71.8333 82.4433C71.934 82.4752 72.0345 82.5071 72.1346 82.5386C76.3323 80.4038 80.7133 78.6501 85.2246 77.2986C89.5846 75.8686 94.4846 74.2586 94.8246 72.5686ZM68.5506 84.7586C63.8236 83.6843 58.9206 83.6398 54.1746 84.6286C57.2203 86.6642 59.7256 89.4097 61.4746 92.6286C63.1706 89.4773 65.5972 86.7786 68.5506 84.7586ZM49.6346 19.0786H49.4346V19.0686C43.8246 19.6386 40.6746 33.5786 39.2546 42.1886C48.5046 47.4386 74.8846 47.6686 83.6746 42.4886C82.2846 33.9286 79.1246 19.6486 73.4546 19.0786H73.2546C70.2346 19.3586 65.6046 22.4286 63.6046 23.7586C62.9746 24.1786 62.5046 24.4786 62.2746 24.6086C62.0344 24.7161 61.7771 24.7804 61.5146 24.7986C61.1872 24.8112 60.8624 24.7352 60.5746 24.5786C60.3926 24.4924 59.9537 24.2043 59.3546 23.8111L59.2746 23.7586C57.2846 22.4286 52.6346 19.3586 49.6346 19.0786ZM37.9746 43.8886C37.1946 44.0586 36.3846 44.2186 35.5146 44.3886C33.128 44.8112 30.77 45.3823 28.4546 46.0986C31.1646 48.8486 44.6346 54.7886 61.3846 54.8486H61.4446C78.1846 54.7586 91.6346 48.8786 94.3346 46.0886C92.0379 45.3882 89.7001 44.8305 87.3346 44.4186L85.1646 43.9786C80.6946 46.8786 71.5946 48.3086 62.3046 48.3086C52.7846 48.3086 43.0946 46.8186 38.0446 43.8886C38.0216 43.8941 37.9976 43.8941 37.9746 43.8886ZM61.0646 66.4486C72.7146 66.4486 78.0646 60.1486 79.3946 58.3886H79.4146C78.8379 57.5689 78.185 56.8055 77.4646 56.1086C75.7246 56.5086 73.9179 56.8419 72.0446 57.1086C71.1716 59.3215 69.6502 61.2188 67.6799 62.5518C65.7095 63.8847 63.3823 64.5911 61.0035 64.5781C58.6247 64.5651 56.3053 63.8335 54.3497 62.4791C52.394 61.1247 50.8934 59.2109 50.0446 56.9886C48.2779 56.7153 46.5679 56.3986 44.9146 56.0386C44.1306 56.7546 43.4143 57.5412 42.7746 58.3886C44.0646 60.1886 49.4146 66.4486 61.0646 66.4486ZM66.2169 59.2483C66.5237 58.9645 66.7121 58.5753 66.7446 58.1586H66.7646C66.75 57.9933 66.7095 57.8313 66.6446 57.6786C66.5489 57.686 66.4531 57.6934 66.3572 57.7009C65.4112 57.7744 64.457 57.8486 63.4946 57.8486C63.4641 57.9496 63.444 58.0535 63.4346 58.1586C63.467 58.5753 63.6554 58.9645 63.9622 59.2483C64.269 59.5322 64.6716 59.6898 65.0896 59.6898C65.5076 59.6898 65.9101 59.5322 66.2169 59.2483ZM40.8646 57.9186C41.3949 57.0476 42.0259 56.2421 42.7446 55.5186H42.7346C41.5146 55.1986 40.2446 54.8486 39.0846 54.4886C38.848 55.7752 38.7276 57.0805 38.7246 58.3886C38.7206 61.4804 39.3585 64.5393 40.5978 67.3718C41.8371 70.2044 43.6508 72.7488 45.9242 74.8442C48.1976 76.9395 50.8812 78.5402 53.8052 79.5449C56.7292 80.5496 59.8299 80.9363 62.9111 80.6808C65.9923 80.4252 68.9869 79.5329 71.7054 78.0602C74.4239 76.5876 76.8072 74.5667 78.7043 72.1254C80.6015 69.6842 81.9712 66.8757 82.7269 63.8777C83.4826 60.8797 83.6079 57.7575 83.0946 54.7086C81.9846 55.0486 80.8446 55.3586 79.6446 55.6586C80.2929 56.3603 80.8567 57.1356 81.3246 57.9686C81.4056 58.1047 81.4484 58.2602 81.4484 58.4186C81.4484 58.577 81.4056 58.7325 81.3246 58.8686L81.3203 58.8757C81.0345 59.3488 75.604 68.3386 61.0946 68.3386C46.5046 68.3386 41.0546 59.2486 40.8646 58.8686C40.7712 58.7278 40.7215 58.5626 40.7215 58.3936C40.7215 58.2247 40.7712 58.0595 40.8646 57.9186ZM28.5946 71.3686C28.3191 71.691 28.1574 72.0952 28.1346 72.5186L28.1246 72.5386C28.5146 74.2286 33.3646 75.8386 37.7346 77.2586C42.1345 78.5854 46.4134 80.2849 50.5246 82.3386C50.6766 82.2946 50.8286 82.2474 50.9805 82.2002C51.2086 82.1294 51.4366 82.0586 51.6646 81.9986C48.4936 80.7292 45.6099 78.8358 43.1844 76.431C40.7589 74.0261 38.8411 71.1586 37.5446 67.9986C32.9646 68.7386 29.8446 69.8786 28.5946 71.3686Z" fill="#002539"/>
    </g>
    <defs>
        <filter id="filter0_d" x="0" y="0" width="128" height="128" filterUnits="userSpaceOnUse" color-interpolation-filters="sRGB">
            <feFlood flood-opacity="0" result="BackgroundImageFix"/>
            <feColorMatrix in="SourceAlpha" type="matrix" values="0 0 0 0 0 0 0 0 0 0 0 0 0 0 0 0 0 0 127 0"/>
            <feOffset dx="3" dy="4"/>
            <feGaussianBlur stdDeviation="3"/>
            <feColorMatrix type="matrix" values="0 0 0 0 0 0 0 0 0 0 0 0 0 0 0 0 0 0 0.25 0"/>
            <feBlend mode="normal" in2="BackgroundImageFix" result="effect1_dropShadow"/>
            <feBlend mode="normal" in="SourceGraphic" in2="effect1_dropShadow" result="shape"/>
        </filter>
        <filter id="filter1_d" x="18.9199" y="13.9999" width="88.547" height="98.0201" filterUnits="userSpaceOnUse" color-interpolation-filters="sRGB">
            <feFlood flood-opacity="0" result="BackgroundImageFix"/>
            <feColorMatrix in="SourceAlpha" type="matrix" values="0 0 0 0 0 0 0 0 0 0 0 0 0 0 0 0 0 0 127 0"/>
            <feOffset dx="2" dy="4"/>
            <feGaussianBlur stdDeviation="3"/>
            <feColorMatrix type="matrix" values="0 0 0 0 0 0 0 0 0 0 0 0 0 0 0 0 0 0 0.25 0"/>
            <feBlend mode="normal" in2="BackgroundImageFix" result="effect1_dropShadow"/>
            <feBlend mode="normal" in="SourceGraphic" in2="effect1_dropShadow" result="shape"/>
        </filter>
    </defs>
</svg>
