<svg width="152" height="152" viewBox="0 0 152 152" fill="none" xmlns="http://www.w3.org/2000/svg">
    <g opacity="0.5">
        <g filter="url(#filter1_d)">
            <path d="M46.3 110C42.7 110 39.9 107.1 39.9 103.6V66.7L39.6 66.4C36.6 64.2 35 61 35 57.4C35 53.9 36.6 50.6 39.5 48.4L39.8 48.1V40.4C39.9 36.9 42.7 34 46.3 34C49.9 34 52.7 36.9 52.7 40.4V48.2L53 48.5C55.9 50.7 57.5 54 57.5 57.5C57.5 61 55.9 64.3 53 66.5L52.7 66.8V103.7C52.7 107.1 49.8 110 46.3 110ZM43 103.6C43 105.4 44.5 106.9 46.3 106.9C48.1 106.9 49.6 105.4 49.6 103.6V68.3L48.6 68.5C47.9 68.7 47.1 68.7 46.3 68.7C45.5 68.7 44.8 68.6 44 68.5L43 68.3V103.6ZM46.3 49.3C45.4 49.3 44.5 49.5 43.6 49.8C42.8 50.1 42.1 50.5 41.4 51C40.7 51.5 40.2 52.1 39.7 52.7C39.3 53.3 38.9 54 38.6 54.7C38.6 54.8 38.5 54.9 38.5 55C38.2 55.9 38.1 56.7 38.1 57.4C38.1 58.1 38.2 58.9 38.5 59.7V59.8C38.5 59.9 38.6 60 38.6 60.1C38.9 60.9 39.2 61.5 39.6 62.1L39.7 62.2C40.1 62.8 40.7 63.4 41.3 63.9C42 64.4 42.7 64.8 43.5 65.1C44.4 65.4 45.3 65.6 46.2 65.6C47.1 65.6 48 65.4 48.9 65.1C49.7 64.8 50.4 64.4 51.1 63.9C51.7 63.4 52.3 62.8 52.8 62.2C53.2 61.6 53.6 61 53.9 60.2C53.9 60.1 54 60 54 59.9C54.3 59 54.4 58.2 54.4 57.5C54.4 56.8 54.3 56 54 55.2C54 55.1 53.9 54.9 53.9 54.8C53.6 54 53.3 53.4 52.9 52.8L52.8 52.7C52.4 52.1 51.8 51.5 51.2 51.1L51.1 51C50.5 50.5 49.8 50.2 49 49.9C48.1 49.5 47.2 49.3 46.3 49.3ZM46.3 46.1C47.1 46.1 47.8 46.2 48.6 46.3L49.6 46.5V40.4C49.6 38.6 48.1 37.1 46.3 37.1C44.5 37.2 43 38.6 43 40.4V46.5L44 46.3C44.8 46.2 45.5 46.1 46.3 46.1Z" fill="white"/>
            <path d="M99.7 110C96.1 110 93.3 107.1 93.3 103.6V66.7L93 66.4C90.1 64.2 88.5 61 88.5 57.4C88.5 53.9 90.1 50.6 93 48.4L93.3 48.1V40.4C93.3 36.8 96.2 34 99.7 34C103.3 34 106.1 36.9 106.1 40.4V48.2L106.4 48.5C109.3 50.7 110.9 54 110.9 57.5C110.9 61 109.3 64.3 106.4 66.5L106.1 66.8V103.7C106.1 107.1 103.3 110 99.7 110ZM96.4 103.6C96.4 105.4 97.9 106.9 99.7 106.9C101.5 106.9 103 105.4 103 103.6V68.3L102 68.5C101.3 68.7 100.5 68.7 99.7 68.7C98.9 68.7 98.2 68.6 97.4 68.5L96.4 68.3V103.6ZM99.7 49.3C98.8 49.3 97.9 49.5 97 49.8C96.2 50.1 95.5 50.5 94.8 51C94.1 51.5 93.6 52.1 93.1 52.7C92.7 53.3 92.3 54 92 54.7C92 54.8 91.9 54.9 91.9 55C91.6 55.9 91.5 56.6 91.5 57.4C91.5 58.1 91.6 58.9 91.9 59.7V59.8C91.9 59.9 92 60 92 60.1C92.3 60.8 92.6 61.5 93 62.1L93.1 62.2C93.5 62.8 94.1 63.4 94.7 63.8L94.8 63.9C95.4 64.3 96.1 64.7 96.9 65C97.8 65.3 98.7 65.5 99.6 65.5C100.5 65.5 101.4 65.3 102.3 65C103.1 64.7 103.8 64.3 104.5 63.8C105.2 63.3 105.7 62.7 106.2 62.1C106.6 61.5 107 60.9 107.3 60.1C107.3 60 107.4 59.9 107.4 59.7C107.7 58.8 107.8 58.1 107.8 57.4C107.8 56.7 107.7 55.9 107.4 55.1V55C107.4 54.9 107.3 54.8 107.3 54.7C107 53.9 106.7 53.3 106.3 52.7C105.8 52 105.2 51.4 104.6 51L104.5 50.9C103.9 50.4 103.2 50.1 102.4 49.8C101.5 49.5 100.6 49.3 99.7 49.3ZM99.7 37.2C97.9 37.2 96.4 38.7 96.4 40.5V46.6L97.4 46.4C98.1 46.3 98.9 46.2 99.7 46.2C100.5 46.2 101.2 46.3 102 46.4L103 46.6V40.4C103 38.6 101.5 37.2 99.7 37.2Z" fill="white"/>
            <path d="M72.9998 110C69.3998 110 66.5998 107.1 66.5998 103.6V95.8L66.2998 95.5C63.3998 93.3 61.7998 90.1 61.7998 86.5C61.7998 83 63.3998 79.7 66.2998 77.5L66.5998 77.2V40.4C66.5998 36.9 69.3998 34 72.9998 34C76.5998 34 79.3998 36.9 79.3998 40.4V77.3L79.6998 77.6C82.5998 79.8 84.1998 83.1 84.1998 86.6C84.1998 90.1 82.5998 93.4 79.6998 95.6L79.3998 95.9V103.7C79.3998 107.1 76.5998 110 72.9998 110ZM69.6998 103.6C69.6998 105.4 71.1998 106.9 72.9998 106.9C74.7998 106.9 76.2998 105.4 76.2998 103.6V97.5L75.2998 97.7C74.5998 97.9 73.7998 97.9 72.9998 97.9C72.1998 97.9 71.4998 97.8 70.6998 97.7L69.6998 97.5V103.6ZM68.0998 80.1C67.4998 80.6 66.8998 81.1 66.3998 81.8C65.9998 82.4 65.5998 83.1 65.2998 83.8C65.2998 83.9 65.1998 84 65.1998 84.1C64.8998 85 64.7998 85.8 64.7998 86.5C64.7998 87.2 64.8998 88 65.1998 88.8C65.2998 89 65.2998 89.1 65.2998 89.2C65.5998 90 65.8998 90.6 66.2998 91.2L66.3998 91.3C66.7998 91.9 67.3998 92.5 67.9998 93C68.6998 93.5 69.3998 93.9 70.1998 94.2C71.0998 94.5 71.9998 94.7 72.8998 94.7C73.7998 94.7 74.6998 94.5 75.5998 94.2C76.3998 93.9 77.0998 93.5 77.7998 93L77.8998 92.9C78.4998 92.5 78.9998 91.9 79.4998 91.3C79.8998 90.7 80.2998 90.1 80.5998 89.3C80.5998 89.2 80.6998 89.1 80.6998 89C80.9998 88.1 81.0998 87.4 81.0998 86.6C81.0998 85.9 80.9998 85.2 80.6998 84.3C80.5998 84.1 80.5998 84 80.5998 83.9C80.2998 83.1 79.9998 82.5 79.5998 81.9L79.4998 81.8C79.0998 81.2 78.4998 80.6 77.8998 80.2C77.1998 79.7 76.4998 79.3 75.6998 79C74.7998 78.7 73.8998 78.5 72.9998 78.5C72.0998 78.5 71.1998 78.7 70.2998 79C69.4998 79.2 68.7998 79.6 68.0998 80.1L68.4998 80.5L68.0998 80.1ZM72.9998 37.2C71.1998 37.2 69.6998 38.7 69.6998 40.5V75.8L70.6998 75.6C71.3998 75.4 72.1998 75.4 72.9998 75.4C73.6998 75.4 74.4998 75.5 75.2998 75.6L76.2998 75.8V40.4C76.2998 38.6 74.7998 37.2 72.9998 37.2Z" fill="white"/>
        </g>
    </g>
    <defs>
        <filter id="filter1_d" x="31" y="32" width="88" height="88" filterUnits="userSpaceOnUse" color-interpolation-filters="sRGB">
            <feFlood flood-opacity="0" result="BackgroundImageFix"/>
            <feColorMatrix in="SourceAlpha" type="matrix" values="0 0 0 0 0 0 0 0 0 0 0 0 0 0 0 0 0 0 127 0"/>
            <feOffset dx="2" dy="4"/>
            <feGaussianBlur stdDeviation="3"/>
            <feColorMatrix type="matrix" values="0 0 0 0 0 0 0 0 0 0 0 0 0 0 0 0 0 0 0.25 0"/>
            <feBlend mode="normal" in2="BackgroundImageFix" result="effect1_dropShadow"/>
            <feBlend mode="normal" in="SourceGraphic" in2="effect1_dropShadow" result="shape"/>
        </filter>
    </defs>
</svg>
