<svg width="318" height="361" viewBox="0 0 318 361" fill="none" xmlns="http://www.w3.org/2000/svg">
    <g filter="url(#filter0_d)">
        <path d="M225.882 233.071L226.029 232.866C233.421 222.52 230.646 210.521 218.88 201.122L221.521 197.427C226.019 199.246 231.357 197.851 234.306 193.725L245.38 178.226C248.827 173.402 247.702 166.645 242.878 163.198C241.502 162.215 239.96 161.64 238.414 161.373L238.31 151.407C239.457 151.017 240.548 150.401 241.519 149.607C243.748 147.789 245.127 145.208 245.409 142.34C245.691 139.471 244.844 136.664 243.026 134.435L230.992 119.728C230.399 118.994 229.693 118.334 228.933 117.792C225.012 114.99 219.686 115.153 215.92 118.168L204.116 109.734C205.748 105.194 204.176 100.102 200.256 97.3008C199.475 96.7434 198.643 96.3033 197.736 95.9659L179.923 89.3464C177.225 88.3488 174.295 88.4569 171.673 89.6531C169.051 90.8493 167.056 92.99 166.058 95.6881C165.621 96.8641 165.413 98.1105 165.395 99.3072L155.933 102.438C155.173 101.027 154.135 99.7893 152.76 98.8065C147.915 95.345 141.178 96.4848 137.731 101.309L126.687 116.766C123.738 120.892 124.148 126.395 127.327 130.061L124.687 133.756C111.983 125.671 99.7112 126.919 92.3186 137.265L92.172 137.47C77.8447 137.776 64.4637 144.742 56.1471 156.381C41.6701 176.642 46.3758 204.905 66.6368 219.382C86.8979 233.859 115.16 229.153 129.637 208.892C137.954 197.253 140.223 182.316 135.8 168.674L135.946 168.469C143.339 158.123 140.563 146.124 128.778 136.71L131.418 133.015C135.916 134.834 141.255 133.439 144.203 129.313L155.262 113.835C156.67 111.864 157.284 109.574 157.217 107.324L166.503 104.223C167.265 105.76 168.397 107.127 169.875 108.183C170.655 108.74 171.488 109.18 172.394 109.518L190.207 116.137C192.905 117.135 195.835 117.027 198.458 115.83C199.516 115.347 200.449 114.649 201.279 113.878L212.837 122.136C212.376 123.171 212.018 124.279 211.903 125.438C211.621 128.306 212.469 131.113 214.287 133.342L226.321 148.05C226.934 148.798 227.62 149.443 228.4 150.001C229.857 151.042 231.538 151.685 233.239 151.908L233.314 161.698C231.164 162.363 229.216 163.7 227.808 165.671L216.763 181.128C213.815 185.255 214.225 190.757 217.403 194.423L214.763 198.118C202.059 190.033 189.788 191.281 182.395 201.627L182.248 201.832C167.909 202.067 154.514 209.054 146.197 220.694C145.684 221.412 145.261 222.134 144.804 222.861C144.76 222.922 144.71 222.949 144.681 222.99C144.622 223.072 144.604 223.183 144.546 223.266C132.183 243.301 137.268 269.818 156.687 283.694C176.948 298.171 205.21 293.465 219.687 273.204C228.051 261.629 230.32 246.693 225.882 233.071ZM79.8378 200.907C69.7586 193.705 67.4204 179.662 74.6223 169.582C81.8241 159.503 95.8672 157.165 105.946 164.367C116.026 171.569 118.364 185.612 111.162 195.691C103.96 205.77 89.917 208.108 79.8378 200.907ZM71.6965 216.64L79.0304 206.376C89.6113 212.572 103.024 210.9 111.771 202.607L122.137 210.014C109.184 223.89 87.9871 226.823 71.6965 216.64ZM131.826 165.556L130.169 167.876L130.611 169.122C135.047 181.532 133.144 195.304 125.531 205.958C125.487 206.02 125.423 206.067 125.379 206.129L115.115 198.795C115.159 198.733 115.224 198.686 115.268 198.625C124.083 186.287 121.217 169.077 108.88 160.261C96.5427 151.446 79.332 154.312 70.5167 166.649C62.2001 178.288 64.3004 194.27 74.9248 203.443L67.5909 213.707C51.3155 200.465 47.8878 176.62 60.2527 159.315C67.8653 148.661 80.2783 142.398 93.4704 142.553L94.7931 142.568L96.4506 140.248C104.239 129.348 115.583 134.042 121.759 137.897L119.324 141.305C116.644 140.63 113.713 141.606 112.027 143.967C109.812 147.066 110.533 151.395 113.632 153.61C116.732 155.825 121.061 155.104 123.276 152.005C124.977 149.623 124.937 146.555 123.43 144.238L125.864 140.831C131.498 145.445 139.615 154.656 131.826 165.556ZM151.163 110.937L140.118 126.394C138.812 128.221 136.615 129.039 134.533 128.699L137.54 124.49C138.347 123.361 138.083 121.778 136.954 120.971C135.825 120.164 134.241 120.428 133.434 121.557L130.428 125.765C129.431 123.905 129.493 121.562 130.798 119.735L141.843 104.278C143.676 101.712 147.266 101.114 149.832 102.947C150.304 103.285 150.677 103.675 151.005 104.127L145.06 106.111C143.723 106.551 143.018 107.97 143.458 109.308C143.637 109.839 143.959 110.255 144.391 110.563C145.027 111.018 145.848 111.171 146.655 110.91L151.999 109.116C151.831 109.74 151.573 110.362 151.163 110.937ZM196.379 111.275C194.986 111.923 193.437 111.964 191.991 111.427L174.178 104.808C173.022 104.385 172.09 103.564 171.442 102.605L175.795 101.157C177.132 100.717 177.836 99.2974 177.396 97.9599C176.942 96.643 175.537 95.9183 174.2 96.3581L170.774 97.5072C170.789 97.4867 170.783 97.4515 170.798 97.431C171.334 95.9851 172.393 94.8503 173.787 94.2023C175.18 93.5544 176.728 93.5136 178.174 94.0505L195.988 100.67C196.472 100.861 196.926 101.092 197.337 101.386C198.999 102.574 199.853 104.548 199.676 106.53L196.802 104.477C195.673 103.67 194.09 103.934 193.283 105.063C192.476 106.192 192.74 107.776 193.869 108.583L197.071 110.871C196.842 111.017 196.614 111.164 196.379 111.275ZM230.246 144.901L218.211 130.193C217.235 128.999 216.807 127.515 216.933 125.993C216.963 125.735 217.027 125.471 217.092 125.207L218.837 126.454C219.966 127.26 221.549 126.997 222.356 125.868C223.163 124.739 222.899 123.155 221.77 122.348L220.354 121.336C222.172 120.527 224.316 120.694 225.979 121.883C226.389 122.176 226.756 122.531 227.093 122.927L239.128 137.634C240.104 138.828 240.532 140.312 240.406 141.834C240.279 143.357 239.514 144.732 238.32 145.708C238.305 145.729 238.27 145.735 238.255 145.755L238.232 142.142C238.221 140.769 237.074 139.64 235.681 139.637C234.273 139.654 233.179 140.795 233.176 142.188L233.216 146.775C232.078 146.458 231.02 145.857 230.246 144.901ZM220.875 184.097L231.919 168.64C232.33 168.065 232.835 167.619 233.386 167.238L233.441 172.89C233.435 173.723 233.866 174.465 234.502 174.919C234.913 175.213 235.432 175.398 235.992 175.395C237.4 175.377 238.494 174.237 238.497 172.844L238.448 166.576C238.967 166.761 239.472 166.966 239.944 167.304C242.51 169.137 243.108 172.727 241.274 175.293L230.229 190.75C228.924 192.577 226.727 193.395 224.645 193.055L227.652 188.847C228.458 187.718 228.195 186.134 227.066 185.327C225.937 184.52 224.353 184.784 223.546 185.913L220.539 190.121C219.528 188.282 219.569 185.924 220.875 184.097ZM147.577 228.223L157.944 235.63C152.953 246.607 155.711 259.802 164.987 267.825L157.653 278.089C142.776 265.971 138.682 244.968 147.577 228.223ZM170.36 265.556C170.231 265.433 170.152 265.283 170.008 265.181C169.864 265.078 169.697 265.052 169.539 264.969C159.826 257.688 157.62 243.895 164.719 233.959C171.921 223.88 185.964 221.542 196.043 228.744C206.123 235.945 208.461 249.989 201.259 260.068C194.16 270.003 180.381 272.406 170.36 265.556ZM161.794 281.017L169.127 270.753C181.248 277.832 197.048 274.641 205.365 263.001C214.18 250.664 211.314 233.453 198.977 224.638C186.64 215.823 169.429 218.688 160.614 231.026C160.57 231.087 160.546 231.163 160.502 231.225L150.238 223.891C150.282 223.83 150.306 223.753 150.35 223.692C157.962 213.038 170.375 206.775 183.553 206.95L184.875 206.965L186.533 204.645C194.322 193.745 205.665 198.44 211.862 202.309L209.427 205.717C206.767 205.056 203.816 206.018 202.129 208.379C199.915 211.478 200.635 215.807 203.735 218.022C206.835 220.237 211.164 219.516 213.379 216.416C215.08 214.035 215.04 210.967 213.533 208.65L215.967 205.243C221.615 209.836 229.718 219.067 221.944 229.947L220.286 232.267L220.729 233.513C225.164 245.923 223.262 259.696 215.649 270.35C203.264 287.64 179.594 292.124 161.794 281.017Z" fill="white"/>
    </g>
    <g filter="url(#filter1_d)">
        <path d="M283.875 86.875C276.841 86.875 271.125 81.1587 271.125 74.125C271.125 72.9562 270.169 72 269 72C267.831 72 266.875 72.9562 266.875 74.125C266.875 81.1587 261.159 86.875 254.125 86.875C252.956 86.875 252 87.8313 252 89C252 90.1688 252.956 91.125 254.125 91.125C261.159 91.125 266.875 96.8412 266.875 103.875C266.875 105.044 267.831 106 269 106C270.169 106 271.125 105.044 271.125 103.875C271.125 96.8412 276.841 91.125 283.875 91.125C285.044 91.125 286 90.1688 286 89C286 87.8313 285.044 86.875 283.875 86.875ZM269 95.6513C267.449 92.8675 265.132 90.5513 262.349 89C265.132 87.4487 267.449 85.1325 269 82.3488C270.551 85.1325 272.868 87.4487 275.651 89C272.868 90.5513 270.551 92.8675 269 95.6513Z" fill="#00AEE5"/>
    </g>
    <g filter="url(#filter2_d)">
        <path d="M34.875 248.875C27.8412 248.875 22.125 243.159 22.125 236.125C22.125 234.956 21.1688 234 20 234C18.8313 234 17.875 234.956 17.875 236.125C17.875 243.159 12.1587 248.875 5.125 248.875C3.95625 248.875 3 249.831 3 251C3 252.169 3.95625 253.125 5.125 253.125C12.1587 253.125 17.875 258.841 17.875 265.875C17.875 267.044 18.8313 268 20 268C21.1688 268 22.125 267.044 22.125 265.875C22.125 258.841 27.8412 253.125 34.875 253.125C36.0438 253.125 37 252.169 37 251C37 249.831 36.0438 248.875 34.875 248.875ZM20 257.651C18.4487 254.868 16.1325 252.551 13.3488 251C16.1325 249.449 18.4487 247.132 20 244.349C21.5513 247.132 23.8675 249.449 26.6513 251C23.8675 252.551 21.5513 254.868 20 257.651Z" fill="#00AEE5"/>
    </g>
    <g opacity="0.5" filter="url(#filter3_d)">
        <path d="M283.875 265.875C276.841 265.875 271.125 260.159 271.125 253.125C271.125 251.956 270.169 251 269 251C267.831 251 266.875 251.956 266.875 253.125C266.875 260.159 261.159 265.875 254.125 265.875C252.956 265.875 252 266.831 252 268C252 269.169 252.956 270.125 254.125 270.125C261.159 270.125 266.875 275.841 266.875 282.875C266.875 284.044 267.831 285 269 285C270.169 285 271.125 284.044 271.125 282.875C271.125 275.841 276.841 270.125 283.875 270.125C285.044 270.125 286 269.169 286 268C286 266.831 285.044 265.875 283.875 265.875ZM269 274.651C267.449 271.868 265.132 269.551 262.349 268C265.132 266.449 267.449 264.132 269 261.349C270.551 264.132 272.868 266.449 275.651 268C272.868 269.551 270.551 271.868 269 274.651Z" fill="#00AEE5"/>
    </g>
    <g filter="url(#filter4_d)">
        <path d="M175.875 331.875C168.841 331.875 163.125 326.159 163.125 319.125C163.125 317.956 162.169 317 161 317C159.831 317 158.875 317.956 158.875 319.125C158.875 326.159 153.159 331.875 146.125 331.875C144.956 331.875 144 332.831 144 334C144 335.169 144.956 336.125 146.125 336.125C153.159 336.125 158.875 341.841 158.875 348.875C158.875 350.044 159.831 351 161 351C162.169 351 163.125 350.044 163.125 348.875C163.125 341.841 168.841 336.125 175.875 336.125C177.044 336.125 178 335.169 178 334C178 332.831 177.044 331.875 175.875 331.875ZM161 340.651C159.449 337.868 157.132 335.551 154.349 334C157.132 332.449 159.449 330.132 161 327.349C162.551 330.132 164.868 332.449 167.651 334C164.868 335.551 162.551 337.868 161 340.651Z" fill="#00AEE5"/>
    </g>
    <g filter="url(#filter5_d)">
        <path d="M93.875 33.875C86.8412 33.875 81.125 28.1587 81.125 21.125C81.125 19.9562 80.1688 19 79 19C77.8313 19 76.875 19.9562 76.875 21.125C76.875 28.1587 71.1587 33.875 64.125 33.875C62.9562 33.875 62 34.8313 62 36C62 37.1688 62.9562 38.125 64.125 38.125C71.1587 38.125 76.875 43.8412 76.875 50.875C76.875 52.0438 77.8313 53 79 53C80.1688 53 81.125 52.0438 81.125 50.875C81.125 43.8412 86.8412 38.125 93.875 38.125C95.0438 38.125 96 37.1688 96 36C96 34.8313 95.0438 33.875 93.875 33.875ZM79 42.6513C77.4487 39.8675 75.1325 37.5513 72.3488 36C75.1325 34.4487 77.4487 32.1325 79 29.3488C80.5513 32.1325 82.8675 34.4487 85.6513 36C82.8675 37.5513 80.5513 39.8675 79 42.6513Z" fill="#00AEE5"/>
    </g>
    <g filter="url(#filter6_d)">
        <path d="M292.938 113.438C289.421 113.438 286.562 110.579 286.562 107.062C286.562 106.478 286.084 106 285.5 106C284.916 106 284.438 106.478 284.438 107.062C284.438 110.579 281.579 113.438 278.062 113.438C277.478 113.438 277 113.916 277 114.5C277 115.084 277.478 115.562 278.062 115.562C281.579 115.562 284.438 118.421 284.438 121.938C284.438 122.522 284.916 123 285.5 123C286.084 123 286.562 122.522 286.562 121.938C286.562 118.421 289.421 115.562 292.938 115.562C293.522 115.562 294 115.084 294 114.5C294 113.916 293.522 113.438 292.938 113.438ZM285.5 117.826C284.724 116.434 283.566 115.276 282.174 114.5C283.566 113.724 284.724 112.566 285.5 111.174C286.276 112.566 287.434 113.724 288.826 114.5C287.434 115.276 286.276 116.434 285.5 117.826Z" fill="#00AEE5"/>
    </g>
    <g opacity="0.5" filter="url(#filter7_d)">
        <path d="M47.9375 73.4375C44.4206 73.4375 41.5625 70.5794 41.5625 67.0625C41.5625 66.4781 41.0844 66 40.5 66C39.9156 66 39.4375 66.4781 39.4375 67.0625C39.4375 70.5794 36.5794 73.4375 33.0625 73.4375C32.4781 73.4375 32 73.9156 32 74.5C32 75.0844 32.4781 75.5625 33.0625 75.5625C36.5794 75.5625 39.4375 78.4206 39.4375 81.9375C39.4375 82.5219 39.9156 83 40.5 83C41.0844 83 41.5625 82.5219 41.5625 81.9375C41.5625 78.4206 44.4206 75.5625 47.9375 75.5625C48.5219 75.5625 49 75.0844 49 74.5C49 73.9156 48.5219 73.4375 47.9375 73.4375ZM40.5 77.8256C39.7244 76.4338 38.5662 75.2756 37.1744 74.5C38.5662 73.7244 39.7244 72.5662 40.5 71.1744C41.2756 72.5662 42.4338 73.7244 43.8256 74.5C42.4338 75.2756 41.2756 76.4338 40.5 77.8256Z" fill="#00AEE5"/>
    </g>
    <g filter="url(#filter8_d)">
        <path d="M77.9375 105.438C74.4206 105.438 71.5625 102.579 71.5625 99.0625C71.5625 98.4781 71.0844 98 70.5 98C69.9156 98 69.4375 98.4781 69.4375 99.0625C69.4375 102.579 66.5794 105.438 63.0625 105.438C62.4781 105.438 62 105.916 62 106.5C62 107.084 62.4781 107.562 63.0625 107.562C66.5794 107.562 69.4375 110.421 69.4375 113.938C69.4375 114.522 69.9156 115 70.5 115C71.0844 115 71.5625 114.522 71.5625 113.938C71.5625 110.421 74.4206 107.562 77.9375 107.562C78.5219 107.562 79 107.084 79 106.5C79 105.916 78.5219 105.438 77.9375 105.438ZM70.5 109.826C69.7244 108.434 68.5662 107.276 67.1744 106.5C68.5662 105.724 69.7244 104.566 70.5 103.174C71.2756 104.566 72.4338 105.724 73.8256 106.5C72.4338 107.276 71.2756 108.434 70.5 109.826Z" fill="#00AEE5"/>
    </g>
    <g filter="url(#filter9_d)">
        <path d="M239.938 298.438C236.421 298.438 233.562 295.579 233.562 292.062C233.562 291.478 233.084 291 232.5 291C231.916 291 231.438 291.478 231.438 292.062C231.438 295.579 228.579 298.438 225.062 298.438C224.478 298.438 224 298.916 224 299.5C224 300.084 224.478 300.562 225.062 300.562C228.579 300.562 231.438 303.421 231.438 306.938C231.438 307.522 231.916 308 232.5 308C233.084 308 233.562 307.522 233.562 306.938C233.562 303.421 236.421 300.562 239.938 300.562C240.522 300.562 241 300.084 241 299.5C241 298.916 240.522 298.438 239.938 298.438ZM232.5 302.826C231.724 301.434 230.566 300.276 229.174 299.5C230.566 298.724 231.724 297.566 232.5 296.174C233.276 297.566 234.434 298.724 235.826 299.5C234.434 300.276 233.276 301.434 232.5 302.826Z" fill="#00AEE5"/>
    </g>
    <g opacity="0.5" filter="url(#filter10_d)">
        <path d="M164.938 65.4375C161.421 65.4375 158.562 62.5794 158.562 59.0625C158.562 58.4781 158.084 58 157.5 58C156.916 58 156.438 58.4781 156.438 59.0625C156.438 62.5794 153.579 65.4375 150.062 65.4375C149.478 65.4375 149 65.9156 149 66.5C149 67.0844 149.478 67.5625 150.062 67.5625C153.579 67.5625 156.438 70.4206 156.438 73.9375C156.438 74.5219 156.916 75 157.5 75C158.084 75 158.562 74.5219 158.562 73.9375C158.562 70.4206 161.421 67.5625 164.938 67.5625C165.522 67.5625 166 67.0844 166 66.5C166 65.9156 165.522 65.4375 164.938 65.4375ZM157.5 69.8256C156.724 68.4338 155.566 67.2756 154.174 66.5C155.566 65.7244 156.724 64.5662 157.5 63.1744C158.276 64.5662 159.434 65.7244 160.826 66.5C159.434 67.2756 158.276 68.4338 157.5 69.8256Z" fill="#00AEE5"/>
    </g>
    <g filter="url(#filter11_d)">
        <path d="M30.9375 170.438C27.4206 170.438 24.5625 167.579 24.5625 164.062C24.5625 163.478 24.0844 163 23.5 163C22.9156 163 22.4375 163.478 22.4375 164.062C22.4375 167.579 19.5794 170.438 16.0625 170.438C15.4781 170.438 15 170.916 15 171.5C15 172.084 15.4781 172.562 16.0625 172.562C19.5794 172.562 22.4375 175.421 22.4375 178.938C22.4375 179.522 22.9156 180 23.5 180C24.0844 180 24.5625 179.522 24.5625 178.938C24.5625 175.421 27.4206 172.562 30.9375 172.562C31.5219 172.562 32 172.084 32 171.5C32 170.916 31.5219 170.438 30.9375 170.438ZM23.5 174.826C22.7244 173.434 21.5662 172.276 20.1744 171.5C21.5662 170.724 22.7244 169.566 23.5 168.174C24.2756 169.566 25.4338 170.724 26.8256 171.5C25.4338 172.276 24.2756 173.434 23.5 174.826Z" fill="#00AEE5"/>
    </g>
    <g opacity="0.5" filter="url(#filter12_d)">
        <path d="M102.938 289.438C99.4206 289.438 96.5625 286.579 96.5625 283.062C96.5625 282.478 96.0844 282 95.5 282C94.9156 282 94.4375 282.478 94.4375 283.062C94.4375 286.579 91.5794 289.438 88.0625 289.438C87.4781 289.438 87 289.916 87 290.5C87 291.084 87.4781 291.562 88.0625 291.562C91.5794 291.562 94.4375 294.421 94.4375 297.938C94.4375 298.522 94.9156 299 95.5 299C96.0844 299 96.5625 298.522 96.5625 297.938C96.5625 294.421 99.4206 291.562 102.938 291.562C103.522 291.562 104 291.084 104 290.5C104 289.916 103.522 289.438 102.938 289.438ZM95.5 293.826C94.7244 292.434 93.5662 291.276 92.1744 290.5C93.5662 289.724 94.7244 288.566 95.5 287.174C96.2756 288.566 97.4338 289.724 98.8256 290.5C97.4338 291.276 96.2756 292.434 95.5 293.826Z" fill="#00AEE5"/>
    </g>
    <g filter="url(#filter13_d)">
        <path d="M307.938 195.438C304.421 195.438 301.562 192.579 301.562 189.062C301.562 188.478 301.084 188 300.5 188C299.916 188 299.438 188.478 299.438 189.062C299.438 192.579 296.579 195.438 293.062 195.438C292.478 195.438 292 195.916 292 196.5C292 197.084 292.478 197.562 293.062 197.562C296.579 197.562 299.438 200.421 299.438 203.938C299.438 204.522 299.916 205 300.5 205C301.084 205 301.562 204.522 301.562 203.938C301.562 200.421 304.421 197.562 307.938 197.562C308.522 197.562 309 197.084 309 196.5C309 195.916 308.522 195.438 307.938 195.438ZM300.5 199.826C299.724 198.434 298.566 197.276 297.174 196.5C298.566 195.724 299.724 194.566 300.5 193.174C301.276 194.566 302.434 195.724 303.826 196.5C302.434 197.276 301.276 198.434 300.5 199.826Z" fill="#00AEE5"/>
    </g>
    <g filter="url(#filter14_d)">
        <path d="M193.938 9.4375C190.421 9.4375 187.562 6.57937 187.562 3.0625C187.562 2.47812 187.084 2 186.5 2C185.916 2 185.438 2.47812 185.438 3.0625C185.438 6.57937 182.579 9.4375 179.062 9.4375C178.478 9.4375 178 9.91563 178 10.5C178 11.0844 178.478 11.5625 179.062 11.5625C182.579 11.5625 185.438 14.4206 185.438 17.9375C185.438 18.5219 185.916 19 186.5 19C187.084 19 187.562 18.5219 187.562 17.9375C187.562 14.4206 190.421 11.5625 193.938 11.5625C194.522 11.5625 195 11.0844 195 10.5C195 9.91563 194.522 9.4375 193.938 9.4375ZM186.5 13.8256C185.724 12.4338 184.566 11.2756 183.174 10.5C184.566 9.72437 185.724 8.56625 186.5 7.17438C187.276 8.56625 188.434 9.72437 189.826 10.5C188.434 11.2756 187.276 12.4338 186.5 13.8256Z" fill="#00AEE5"/>
    </g>
    <g filter="url(#filter15_d)">
        <path d="M46.9375 292.438C43.4206 292.438 40.5625 289.579 40.5625 286.062C40.5625 285.478 40.0844 285 39.5 285C38.9156 285 38.4375 285.478 38.4375 286.062C38.4375 289.579 35.5794 292.438 32.0625 292.438C31.4781 292.438 31 292.916 31 293.5C31 294.084 31.4781 294.562 32.0625 294.562C35.5794 294.562 38.4375 297.421 38.4375 300.938C38.4375 301.522 38.9156 302 39.5 302C40.0844 302 40.5625 301.522 40.5625 300.938C40.5625 297.421 43.4206 294.562 46.9375 294.562C47.5219 294.562 48 294.084 48 293.5C48 292.916 47.5219 292.438 46.9375 292.438ZM39.5 296.826C38.7244 295.434 37.5662 294.276 36.1744 293.5C37.5662 292.724 38.7244 291.566 39.5 290.174C40.2756 291.566 41.4338 292.724 42.8256 293.5C41.4338 294.276 40.2756 295.434 39.5 296.826Z" fill="#00AEE5"/>
    </g>
    <defs>
        <filter id="filter0_d" x="26.8916" y="47.1025" width="278.435" height="272.867" filterUnits="userSpaceOnUse" color-interpolation-filters="sRGB">
            <feFlood flood-opacity="0" result="BackgroundImageFix"/>
            <feColorMatrix in="SourceAlpha" type="matrix" values="0 0 0 0 0 0 0 0 0 0 0 0 0 0 0 0 0 0 127 0"/>
            <feOffset dx="3" dy="4"/>
            <feGaussianBlur stdDeviation="3"/>
            <feColorMatrix type="matrix" values="0 0 0 0 0 0 0 0 0 0 0 0 0 0 0 0 0 0 0.25 0"/>
            <feBlend mode="normal" in2="BackgroundImageFix" result="effect1_dropShadow"/>
            <feBlend mode="normal" in="SourceGraphic" in2="effect1_dropShadow" result="shape"/>
        </filter>
        <filter id="filter1_d" x="249" y="70" width="46" height="46" filterUnits="userSpaceOnUse" color-interpolation-filters="sRGB">
            <feFlood flood-opacity="0" result="BackgroundImageFix"/>
            <feColorMatrix in="SourceAlpha" type="matrix" values="0 0 0 0 0 0 0 0 0 0 0 0 0 0 0 0 0 0 127 0"/>
            <feOffset dx="3" dy="4"/>
            <feGaussianBlur stdDeviation="3"/>
            <feColorMatrix type="matrix" values="0 0 0 0 0 0 0 0 0 0 0 0 0 0 0 0 0 0 0.25 0"/>
            <feBlend mode="normal" in2="BackgroundImageFix" result="effect1_dropShadow"/>
            <feBlend mode="normal" in="SourceGraphic" in2="effect1_dropShadow" result="shape"/>
        </filter>
        <filter id="filter2_d" x="0" y="232" width="46" height="46" filterUnits="userSpaceOnUse" color-interpolation-filters="sRGB">
            <feFlood flood-opacity="0" result="BackgroundImageFix"/>
            <feColorMatrix in="SourceAlpha" type="matrix" values="0 0 0 0 0 0 0 0 0 0 0 0 0 0 0 0 0 0 127 0"/>
            <feOffset dx="3" dy="4"/>
            <feGaussianBlur stdDeviation="3"/>
            <feColorMatrix type="matrix" values="0 0 0 0 0 0 0 0 0 0 0 0 0 0 0 0 0 0 0.25 0"/>
            <feBlend mode="normal" in2="BackgroundImageFix" result="effect1_dropShadow"/>
            <feBlend mode="normal" in="SourceGraphic" in2="effect1_dropShadow" result="shape"/>
        </filter>
        <filter id="filter3_d" x="249" y="249" width="46" height="46" filterUnits="userSpaceOnUse" color-interpolation-filters="sRGB">
            <feFlood flood-opacity="0" result="BackgroundImageFix"/>
            <feColorMatrix in="SourceAlpha" type="matrix" values="0 0 0 0 0 0 0 0 0 0 0 0 0 0 0 0 0 0 127 0"/>
            <feOffset dx="3" dy="4"/>
            <feGaussianBlur stdDeviation="3"/>
            <feColorMatrix type="matrix" values="0 0 0 0 0 0 0 0 0 0 0 0 0 0 0 0 0 0 0.25 0"/>
            <feBlend mode="normal" in2="BackgroundImageFix" result="effect1_dropShadow"/>
            <feBlend mode="normal" in="SourceGraphic" in2="effect1_dropShadow" result="shape"/>
        </filter>
        <filter id="filter4_d" x="141" y="315" width="46" height="46" filterUnits="userSpaceOnUse" color-interpolation-filters="sRGB">
            <feFlood flood-opacity="0" result="BackgroundImageFix"/>
            <feColorMatrix in="SourceAlpha" type="matrix" values="0 0 0 0 0 0 0 0 0 0 0 0 0 0 0 0 0 0 127 0"/>
            <feOffset dx="3" dy="4"/>
            <feGaussianBlur stdDeviation="3"/>
            <feColorMatrix type="matrix" values="0 0 0 0 0 0 0 0 0 0 0 0 0 0 0 0 0 0 0.25 0"/>
            <feBlend mode="normal" in2="BackgroundImageFix" result="effect1_dropShadow"/>
            <feBlend mode="normal" in="SourceGraphic" in2="effect1_dropShadow" result="shape"/>
        </filter>
        <filter id="filter5_d" x="59" y="17" width="46" height="46" filterUnits="userSpaceOnUse" color-interpolation-filters="sRGB">
            <feFlood flood-opacity="0" result="BackgroundImageFix"/>
            <feColorMatrix in="SourceAlpha" type="matrix" values="0 0 0 0 0 0 0 0 0 0 0 0 0 0 0 0 0 0 127 0"/>
            <feOffset dx="3" dy="4"/>
            <feGaussianBlur stdDeviation="3"/>
            <feColorMatrix type="matrix" values="0 0 0 0 0 0 0 0 0 0 0 0 0 0 0 0 0 0 0.25 0"/>
            <feBlend mode="normal" in2="BackgroundImageFix" result="effect1_dropShadow"/>
            <feBlend mode="normal" in="SourceGraphic" in2="effect1_dropShadow" result="shape"/>
        </filter>
        <filter id="filter6_d" x="274" y="104" width="29" height="29" filterUnits="userSpaceOnUse" color-interpolation-filters="sRGB">
            <feFlood flood-opacity="0" result="BackgroundImageFix"/>
            <feColorMatrix in="SourceAlpha" type="matrix" values="0 0 0 0 0 0 0 0 0 0 0 0 0 0 0 0 0 0 127 0"/>
            <feOffset dx="3" dy="4"/>
            <feGaussianBlur stdDeviation="3"/>
            <feColorMatrix type="matrix" values="0 0 0 0 0 0 0 0 0 0 0 0 0 0 0 0 0 0 0.25 0"/>
            <feBlend mode="normal" in2="BackgroundImageFix" result="effect1_dropShadow"/>
            <feBlend mode="normal" in="SourceGraphic" in2="effect1_dropShadow" result="shape"/>
        </filter>
        <filter id="filter7_d" x="29" y="64" width="29" height="29" filterUnits="userSpaceOnUse" color-interpolation-filters="sRGB">
            <feFlood flood-opacity="0" result="BackgroundImageFix"/>
            <feColorMatrix in="SourceAlpha" type="matrix" values="0 0 0 0 0 0 0 0 0 0 0 0 0 0 0 0 0 0 127 0"/>
            <feOffset dx="3" dy="4"/>
            <feGaussianBlur stdDeviation="3"/>
            <feColorMatrix type="matrix" values="0 0 0 0 0 0 0 0 0 0 0 0 0 0 0 0 0 0 0.25 0"/>
            <feBlend mode="normal" in2="BackgroundImageFix" result="effect1_dropShadow"/>
            <feBlend mode="normal" in="SourceGraphic" in2="effect1_dropShadow" result="shape"/>
        </filter>
        <filter id="filter8_d" x="59" y="96" width="29" height="29" filterUnits="userSpaceOnUse" color-interpolation-filters="sRGB">
            <feFlood flood-opacity="0" result="BackgroundImageFix"/>
            <feColorMatrix in="SourceAlpha" type="matrix" values="0 0 0 0 0 0 0 0 0 0 0 0 0 0 0 0 0 0 127 0"/>
            <feOffset dx="3" dy="4"/>
            <feGaussianBlur stdDeviation="3"/>
            <feColorMatrix type="matrix" values="0 0 0 0 0 0 0 0 0 0 0 0 0 0 0 0 0 0 0.25 0"/>
            <feBlend mode="normal" in2="BackgroundImageFix" result="effect1_dropShadow"/>
            <feBlend mode="normal" in="SourceGraphic" in2="effect1_dropShadow" result="shape"/>
        </filter>
        <filter id="filter9_d" x="221" y="289" width="29" height="29" filterUnits="userSpaceOnUse" color-interpolation-filters="sRGB">
            <feFlood flood-opacity="0" result="BackgroundImageFix"/>
            <feColorMatrix in="SourceAlpha" type="matrix" values="0 0 0 0 0 0 0 0 0 0 0 0 0 0 0 0 0 0 127 0"/>
            <feOffset dx="3" dy="4"/>
            <feGaussianBlur stdDeviation="3"/>
            <feColorMatrix type="matrix" values="0 0 0 0 0 0 0 0 0 0 0 0 0 0 0 0 0 0 0.25 0"/>
            <feBlend mode="normal" in2="BackgroundImageFix" result="effect1_dropShadow"/>
            <feBlend mode="normal" in="SourceGraphic" in2="effect1_dropShadow" result="shape"/>
        </filter>
        <filter id="filter10_d" x="146" y="56" width="29" height="29" filterUnits="userSpaceOnUse" color-interpolation-filters="sRGB">
            <feFlood flood-opacity="0" result="BackgroundImageFix"/>
            <feColorMatrix in="SourceAlpha" type="matrix" values="0 0 0 0 0 0 0 0 0 0 0 0 0 0 0 0 0 0 127 0"/>
            <feOffset dx="3" dy="4"/>
            <feGaussianBlur stdDeviation="3"/>
            <feColorMatrix type="matrix" values="0 0 0 0 0 0 0 0 0 0 0 0 0 0 0 0 0 0 0.25 0"/>
            <feBlend mode="normal" in2="BackgroundImageFix" result="effect1_dropShadow"/>
            <feBlend mode="normal" in="SourceGraphic" in2="effect1_dropShadow" result="shape"/>
        </filter>
        <filter id="filter11_d" x="12" y="161" width="29" height="29" filterUnits="userSpaceOnUse" color-interpolation-filters="sRGB">
            <feFlood flood-opacity="0" result="BackgroundImageFix"/>
            <feColorMatrix in="SourceAlpha" type="matrix" values="0 0 0 0 0 0 0 0 0 0 0 0 0 0 0 0 0 0 127 0"/>
            <feOffset dx="3" dy="4"/>
            <feGaussianBlur stdDeviation="3"/>
            <feColorMatrix type="matrix" values="0 0 0 0 0 0 0 0 0 0 0 0 0 0 0 0 0 0 0.25 0"/>
            <feBlend mode="normal" in2="BackgroundImageFix" result="effect1_dropShadow"/>
            <feBlend mode="normal" in="SourceGraphic" in2="effect1_dropShadow" result="shape"/>
        </filter>
        <filter id="filter12_d" x="84" y="280" width="29" height="29" filterUnits="userSpaceOnUse" color-interpolation-filters="sRGB">
            <feFlood flood-opacity="0" result="BackgroundImageFix"/>
            <feColorMatrix in="SourceAlpha" type="matrix" values="0 0 0 0 0 0 0 0 0 0 0 0 0 0 0 0 0 0 127 0"/>
            <feOffset dx="3" dy="4"/>
            <feGaussianBlur stdDeviation="3"/>
            <feColorMatrix type="matrix" values="0 0 0 0 0 0 0 0 0 0 0 0 0 0 0 0 0 0 0.25 0"/>
            <feBlend mode="normal" in2="BackgroundImageFix" result="effect1_dropShadow"/>
            <feBlend mode="normal" in="SourceGraphic" in2="effect1_dropShadow" result="shape"/>
        </filter>
        <filter id="filter13_d" x="289" y="186" width="29" height="29" filterUnits="userSpaceOnUse" color-interpolation-filters="sRGB">
            <feFlood flood-opacity="0" result="BackgroundImageFix"/>
            <feColorMatrix in="SourceAlpha" type="matrix" values="0 0 0 0 0 0 0 0 0 0 0 0 0 0 0 0 0 0 127 0"/>
            <feOffset dx="3" dy="4"/>
            <feGaussianBlur stdDeviation="3"/>
            <feColorMatrix type="matrix" values="0 0 0 0 0 0 0 0 0 0 0 0 0 0 0 0 0 0 0.25 0"/>
            <feBlend mode="normal" in2="BackgroundImageFix" result="effect1_dropShadow"/>
            <feBlend mode="normal" in="SourceGraphic" in2="effect1_dropShadow" result="shape"/>
        </filter>
        <filter id="filter14_d" x="175" y="0" width="29" height="29" filterUnits="userSpaceOnUse" color-interpolation-filters="sRGB">
            <feFlood flood-opacity="0" result="BackgroundImageFix"/>
            <feColorMatrix in="SourceAlpha" type="matrix" values="0 0 0 0 0 0 0 0 0 0 0 0 0 0 0 0 0 0 127 0"/>
            <feOffset dx="3" dy="4"/>
            <feGaussianBlur stdDeviation="3"/>
            <feColorMatrix type="matrix" values="0 0 0 0 0 0 0 0 0 0 0 0 0 0 0 0 0 0 0.25 0"/>
            <feBlend mode="normal" in2="BackgroundImageFix" result="effect1_dropShadow"/>
            <feBlend mode="normal" in="SourceGraphic" in2="effect1_dropShadow" result="shape"/>
        </filter>
        <filter id="filter15_d" x="28" y="283" width="29" height="29" filterUnits="userSpaceOnUse" color-interpolation-filters="sRGB">
            <feFlood flood-opacity="0" result="BackgroundImageFix"/>
            <feColorMatrix in="SourceAlpha" type="matrix" values="0 0 0 0 0 0 0 0 0 0 0 0 0 0 0 0 0 0 127 0"/>
            <feOffset dx="3" dy="4"/>
            <feGaussianBlur stdDeviation="3"/>
            <feColorMatrix type="matrix" values="0 0 0 0 0 0 0 0 0 0 0 0 0 0 0 0 0 0 0.25 0"/>
            <feBlend mode="normal" in2="BackgroundImageFix" result="effect1_dropShadow"/>
            <feBlend mode="normal" in="SourceGraphic" in2="effect1_dropShadow" result="shape"/>
        </filter>
    </defs>
</svg>
