<svg width="191" height="288" viewBox="0 0 191 288" fill="none" xmlns="http://www.w3.org/2000/svg">
    <path opacity="0.2" d="M1.5 82.5L66.5 174.5L70.5 182L78.5 184.5L93 189.5L108.5 188L120 182L122.5 177.5L189 80L175 89L110 106.5L36.5 99.5L1.5 82.5Z" fill="white"/>
    <path fill-rule="evenodd" clip-rule="evenodd" d="M66.9827 107.451C74.014 108.355 81.2379 108.893 88.4429 109.033C100.628 109.269 112.888 108.393 124.877 106.426C127.903 105.926 132.614 104.932 135.549 104.312C136.095 104.197 136.58 104.095 136.981 104.011C137.185 103.97 137.36 103.934 137.513 103.904C137.898 103.827 138.132 103.78 138.285 103.745C145.818 101.983 153.36 99.7704 160.618 97.1816C174.844 91.9455 185.861 85.4282 189.41 80.0646C190.062 79.2557 190.478 78.2833 190.63 77.2528C190.809 76.2228 190.697 75.1607 190.345 74.2264C190.219 73.8794 190.013 73.584 189.752 73.3404C189.492 73.0969 189.178 72.9053 188.835 72.7927C181.198 70.3657 173.31 68.5169 165.357 67.3028L160.657 66.4697L160.466 65.3796C148.674 2.62962 131.906 1.25498 126.398 0.803469L126.394 0.803106L126.05 0.769943C125.944 0.767889 125.812 0.765323 125.493 0.812141C115.833 1.55241 102.887 10.4703 96.5484 14.8523L94.507 16.2702L92.2556 14.8486C85.3981 10.4493 72.6248 2.27851 62.8793 1.95715L62.509 1.92347C62.2663 1.91877 62.0454 1.93673 61.806 1.95619C61.7841 1.95798 61.762 1.95977 61.7398 1.96156C56.3216 2.59854 39.8535 4.58483 30.4155 67.7086L30.262 68.7921L25.5518 69.8138C17.6786 71.3307 9.87312 73.4583 2.34769 76.1744C2.02726 76.3007 1.70528 76.5065 1.46174 76.7667C1.2182 77.027 1.02662 77.3413 0.9145 77.6571C0.604124 78.6316 0.530611 79.6901 0.723018 80.7008C0.915425 81.7115 1.37375 82.6744 2.125 83.5634C5.55619 88.3732 15.7802 94.0832 29.4939 98.8539C31.4948 99.5286 33.6016 100.205 35.8414 100.858L35.8419 100.832L37.2911 101.257C39.8997 102.023 42.9845 102.825 46.7296 103.746L50.3702 104.585C51.1353 104.759 51.9004 104.932 52.6926 105.08C57.0484 105.933 61.6177 106.711 66.2431 107.33L66.9827 107.451ZM144.35 77.3007C127.794 82.9394 108.371 85.0126 89.9058 84.6248C66.8379 84.1405 44.9775 79.8082 31.7598 73.5447C30.1036 73.9265 28.3873 74.2973 26.5704 74.6829C20.2663 75.9122 13.9269 77.5913 7.7933 79.5924L5.31285 80.4188L7.18517 82.257C14.8313 89.719 48.8284 103.468 89.3835 104.254C91.5556 104.296 93.7548 104.313 95.9814 104.276C139.885 103.219 176.017 87.4633 183.973 78.9523L185.758 77.0524L183.255 76.3414C177.088 74.579 170.755 73.2108 164.441 72.2139L158.077 71.0306L158.062 71.0408L158.213 71.3197C157.002 71.9742 155.764 72.6016 154.499 73.2026C151.664 74.7046 148.247 76.0778 144.35 77.3007ZM156.023 69.0878L155.926 68.551C150.876 40.6024 141.617 7.00745 126.298 5.7566L125.609 5.76975C117.05 6.68796 104.731 15.2106 99.4199 18.8844L99.3848 18.9086C97.7733 20.0169 96.5919 20.8155 96.0019 21.175C95.681 21.3278 95.1751 21.4505 94.6708 21.4937L94.6178 21.4927C93.9556 21.4799 93.4543 21.3641 93.0351 21.1175C92.5624 20.8964 91.2009 20.0485 89.8923 19.2017C84.9719 16.0324 72.6698 8.16221 64.1592 7.01681L62.333 6.90192C47.193 8.72845 39.177 42.2271 35.1144 69.9991L34.9609 71.0826L35.9313 71.6049C37.7608 72.5988 39.8438 73.5275 42.1557 74.3865C50.9955 77.2517 62.0208 79.4626 74.0159 80.6637C78.7603 81.0705 83.7486 81.3293 88.9249 81.4296C98.9584 81.6241 108.707 81.1919 117.646 80.2236C131.675 78.423 145.041 74.8603 156.023 69.0878Z" fill="white"/>
    <path d="M114.024 185.898L123.896 179.849L124.21 188.148L123.012 198.89L117.527 202.251L109.848 206.956L107.43 210.864L109.848 239L109.848 264.5L104.666 274.838L95.9997 280L84.1923 274.838L79.491 269.227L78.271 262.393L79.5584 232.794L79.9055 208.017L78.7638 203.258L69.406 197.468L65.6897 192.467L66.6189 178.857L76.9617 185.257L88.8157 189.214L100.703 189.815L114.024 185.898Z" fill="#00AEE5"/>
    <path d="M77.7166 264.533C77.8119 269.988 81.2811 280.367 93.7012 280.57C98.3946 280.647 102.22 279.284 105.084 276.512C108.563 273.146 109.912 268.35 110.008 265.01L110.917 210.011C110.911 209.15 111.355 208.296 112.282 207.399C113.595 206.129 115.695 204.923 117.817 203.697C120.052 202.401 122.37 201.045 124.089 199.382C125.797 197.729 126.645 195.979 126.677 194.053L126.963 176.529L126.82 176.527L126.931 175.391C126.956 175.084 126.993 174.746 126.998 174.398C127.153 164.95 113.419 157.304 95.742 157.025C84.0393 156.834 73.3365 160.051 67.7852 165.424C65.2751 167.853 63.9706 170.528 63.924 173.377L63.6029 193.011C63.5326 197.315 67.4553 199.388 71.2661 201.409C75.1993 203.472 78.909 205.408 78.6286 209.391L77.7166 264.533ZM106.629 252.87L105.847 253.041C103.944 253.471 101.569 253.873 99.925 254.134L98.7329 254.319L98.9943 238.333L99.8978 238.245C101.93 238.053 103.852 237.746 105.622 237.324L106.888 237.027L106.629 252.87ZM67.5006 173.425C67.5308 171.58 68.4842 169.689 70.2757 167.956C75.15 163.238 84.8723 160.425 95.6733 160.601C103.175 160.724 110.212 162.284 115.477 164.995C120.57 167.61 123.466 171.019 123.412 174.339C123.381 176.204 122.418 178.085 120.626 179.819C117.272 183.064 111.307 185.53 104.258 186.583L104.084 186.611C104.174 186.1 104.244 185.568 104.253 185.014C104.336 179.952 100.294 175.755 95.2116 175.672C90.1288 175.589 85.9519 179.651 85.8692 184.714C85.8608 185.226 85.9139 185.74 86.0083 186.233C75.1757 184.231 67.4118 178.856 67.5006 173.425ZM88.4721 184.756C88.5415 181.139 91.541 178.236 95.1586 178.285C98.7863 178.344 101.689 181.344 101.63 184.972C101.62 185.586 101.433 186.352 101.259 186.964C99.3497 187.138 97.3291 187.218 95.2282 187.194C93.0762 187.158 90.9978 187.012 89.0238 186.744L88.7476 186.708C88.5736 186.07 88.4711 185.443 88.4721 184.756ZM67.1795 193.059L67.3696 181.439L68.9975 182.808C74.7205 187.617 84.5023 190.575 95.1699 190.76C105.848 190.934 115.711 188.287 121.598 183.679L123.27 182.363L123.08 193.984C123.065 194.927 122.578 195.841 121.578 196.809C120.204 198.139 118.072 199.376 116.002 200.572C113.933 201.768 111.594 203.124 109.906 204.757C108.969 205.664 108.319 206.576 107.914 207.533L107.732 207.991L107.258 208.127C99.4636 210.265 90.2713 210.125 82.6638 207.725L82.1131 207.552L81.9891 206.986C80.9655 202.51 76.5552 200.163 72.9476 198.248C69.33 196.323 67.1369 195.037 67.1795 193.059ZM83.4296 211.663C90.6151 213.544 98.8539 213.699 106.045 212.084L107.301 211.797L106.948 233.338L106.207 233.531C103.366 234.284 100.314 234.736 97.155 234.848C96.7242 234.862 96.3113 235.04 95.9989 235.342C95.6552 235.675 95.4529 236.133 95.4553 236.614L95.1329 256.331C95.1245 256.843 95.3419 257.339 95.7256 257.694C96.0992 258.038 96.5988 258.2 97.1741 258.127C97.4617 258.091 101.704 257.556 105.335 256.785L106.579 256.528L106.443 264.87C106.442 264.931 106.303 270.269 102.627 273.828C100.419 275.965 97.4392 277.013 93.7706 276.953C82.1088 276.762 81.3551 265.813 81.3046 264.51L82.1744 211.325L83.4296 211.663Z" fill="white"/>
</svg>
