<svg width="59" height="96" viewBox="0 0 59 96" fill="none" xmlns="http://www.w3.org/2000/svg">
    <mask id="mask0" mask-type="alpha" maskUnits="userSpaceOnUse" x="0" y="0" width="59" height="96">
        <path d="M29.5 11.9403C18.1784 11.9403 14.0324 18.9453 13.873 19.2637C13.7135 19.4229 13.7135 19.7413 13.873 20.0597C14.0324 20.3781 18.1784 27.3831 29.5 27.3831C40.8216 27.3831 44.9676 20.3781 45.127 20.0597C45.2865 19.9005 45.2865 19.5821 45.127 19.4229C45.127 19.1045 41.1406 11.9403 29.5 11.9403ZM32.6892 18.3085C33.327 18.3085 33.9649 18.9453 33.9649 19.5821C33.9649 20.2189 33.327 20.8557 32.6892 20.8557C32.0514 20.8557 31.4135 20.2189 31.4135 19.5821C31.4135 18.9453 31.8919 18.3085 32.6892 18.3085ZM29.5 25.9503C20.5703 25.9503 16.4243 21.1741 15.3081 19.7413C15.7865 18.9453 17.3811 17.0348 20.2514 15.602C20.4108 20.5373 24.3973 24.5174 29.5 24.5174C34.6027 24.5174 38.5892 20.5373 38.7487 15.602C39.546 16.0796 40.3433 16.5572 40.8216 16.8756C42.4162 17.9901 43.373 19.2637 43.6919 19.7413C42.7351 21.0149 38.5892 25.9503 29.5 25.9503Z" fill="#002539"/>
        <path d="M29.5 39.3234C18.6567 39.3234 9.72702 30.408 9.72702 19.5821C9.72702 8.75622 18.6567 0 29.5 0C40.3432 0 49.273 8.91542 49.273 19.7413C49.273 30.5672 40.3432 39.3234 29.5 39.3234ZM29.5 2.38806C19.9324 2.38806 12.1189 10.1891 12.1189 19.7413C12.1189 29.2935 19.9324 37.0945 29.5 37.0945C39.0676 37.0945 46.8811 29.2935 46.8811 19.7413C46.8811 10.1891 39.0676 2.38806 29.5 2.38806Z" fill="#002539"/>
        <path d="M29.5 96C13.2351 96 0 82.7861 0 66.5473C0 50.3085 13.2351 37.0945 29.5 37.0945C45.7649 37.0945 59 50.3085 59 66.5473C59 82.7861 45.7649 96 29.5 96ZM29.5 39.4826C14.5108 39.4826 2.39189 51.5821 2.39189 66.5473C2.39189 81.5125 14.5108 93.612 29.5 93.612C44.4892 93.612 56.6081 81.5125 56.6081 66.5473C56.6081 51.5821 44.4892 39.4826 29.5 39.4826Z" fill="#002539"/>
    </mask>
    <g mask="url(#mask0)">
        <circle cx="29" cy="27" r="41" fill="#002539"/>
    </g>
</svg>
