<svg width="82" height="82" viewBox="0 0 82 82" fill="none" xmlns="http://www.w3.org/2000/svg">
    <g>
        <path fill-rule="evenodd" clip-rule="evenodd" d="M70.0001 72.4821C68.1902 68.588 66.6207 65.8883 62.5077 63.0957C64.4141 60.919 68.0769 56.258 68.6773 52.0324C68.7223 51.7012 68.7223 51.3654 68.6773 51.0341V50.7864C68.6593 50.7175 68.6367 50.6498 68.6097 50.5838C68.4665 49.9708 68.1811 49.4 67.7766 48.9176C66.3431 47.2063 63.3558 46.2305 59.618 45.6526C60.0613 44.0436 60.2885 42.3828 60.2936 40.7139C60.2795 39.5462 60.1539 38.3826 59.9183 37.2388C64.249 35.7377 67.3413 33.8913 68.3696 32.3977C68.6017 32.109 68.7564 31.766 68.8195 31.401C68.8825 31.036 68.8517 30.6609 68.7299 30.3111C68.6713 30.1527 68.5783 30.0093 68.4576 29.8912C68.3369 29.773 68.1915 29.6832 68.0318 29.6281C65.8535 28.8871 63.6198 28.3199 61.3518 27.9319L60.3311 27.7292C57.2613 9.56563 52.3451 9.06275 50.6188 8.89012C50.5146 8.87143 50.4078 8.87143 50.3036 8.89012C47.4386 9.06171 43.6764 11.5546 41.8401 12.7712L41.8072 12.793L41.4695 13.0182L41.1242 12.793L41.0913 12.7711C39.1245 11.4599 35.494 9.03939 32.6353 8.89012C32.4981 8.87493 32.3597 8.87493 32.2225 8.89012C30.5863 9.05524 25.6701 9.55811 22.6078 27.7217L21.5871 27.9243C19.3191 28.3123 17.0854 28.8796 14.9071 29.6206C14.7474 29.6757 14.602 29.7656 14.4813 29.8837C14.3606 30.0018 14.2676 30.1452 14.209 30.3036C14.0858 30.6532 14.0542 31.0286 14.1173 31.3939C14.1804 31.7591 14.336 32.1022 14.5693 32.3902C15.5525 33.8238 18.4272 35.5501 22.4652 37.0362C22.2182 38.244 22.0924 39.4735 22.0899 40.7064C22.0963 42.4034 22.3285 44.092 22.7804 45.7277C19.3504 46.3281 16.5358 47.3264 15.1998 48.91C14.8003 49.3947 14.5178 49.9649 14.3742 50.5763C14.3439 50.641 14.3212 50.709 14.3066 50.779V51.0266C14.2691 51.3583 14.2691 51.6932 14.3066 52.0249C14.9146 56.2506 18.5773 60.9115 20.4837 63.0882C16.0323 66.1057 14.5574 69.0148 12.5469 73.4393L15.2737 72.7576C17.0021 69.1345 18.5328 66.9353 22.758 64.3191C22.9053 64.2256 23.0296 64.1001 23.1219 63.952C23.2141 63.8039 23.2719 63.6369 23.2908 63.4634C23.313 63.2876 23.2963 63.1091 23.2419 62.9405C23.1874 62.7719 23.0965 62.6173 22.9756 62.4877C20.8718 60.2685 19.0791 57.7739 17.6466 55.0722C19.4081 55.8494 21.2153 56.5187 23.0582 57.0762L23.084 57.0847C29.9097 59.3349 38.3874 62.1297 40.5763 69.8807C40.6313 70.0913 40.7491 70.2802 40.914 70.4223C41.0789 70.5644 41.2831 70.653 41.4995 70.6763C41.7162 70.6514 41.9205 70.5624 42.0863 70.4207C42.2521 70.2789 42.3718 70.0909 42.4301 69.8807C44.619 62.1297 53.0967 59.3349 59.9224 57.0847L59.9483 57.0762C61.7907 56.5174 63.5979 55.8482 65.3598 55.0722C63.9274 57.7739 62.1347 60.2685 60.0308 62.4877C59.9086 62.6164 59.8169 62.7709 59.7623 62.9397C59.7078 63.1086 59.6918 63.2876 59.7156 63.4634C59.733 63.6374 59.7901 63.805 59.8824 63.9533C59.9748 64.1017 60.1001 64.2268 60.2485 64.3191C64.1913 66.7309 65.7784 68.8261 67.3821 72.0457L70.0001 72.4821ZM66.5157 51.3344C66.4986 51.0165 66.3772 50.7132 66.1704 50.4712V50.4487C65.1797 49.2703 62.6278 48.3847 58.8825 47.8593C57.9137 50.2473 56.4731 52.4154 54.6469 54.2338C52.8208 56.0522 50.6466 57.4835 48.2545 58.4422C48.5909 58.5339 48.9272 58.6406 49.2595 58.746C49.3351 58.7699 49.4104 58.7938 49.4854 58.8175C52.6361 57.2152 55.9243 55.8989 59.3103 54.8845C62.5828 53.8112 66.2605 52.6028 66.5157 51.3344ZM46.7955 60.4837C43.2476 59.6774 39.5675 59.644 36.0053 60.3861C38.2914 61.914 40.1718 63.9746 41.4845 66.3906C42.7574 64.0254 44.5787 61.9999 46.7955 60.4837ZM32.5978 11.1868H32.4477V11.1793C28.237 11.6071 25.8728 22.07 24.807 28.5323C31.7497 32.4727 51.5495 32.6454 58.1469 28.7575C57.1036 22.3327 54.7319 11.6147 50.4762 11.1868H50.3261C48.0594 11.397 44.5843 13.7012 43.0832 14.6995C42.6103 15.0147 42.2575 15.2399 42.0849 15.3374C41.9046 15.4181 41.7115 15.4664 41.5145 15.48C41.2687 15.4895 41.025 15.4325 40.809 15.3149C40.6724 15.2502 40.343 15.034 39.8933 14.7389L39.8332 14.6995C38.3396 13.7012 34.8495 11.397 32.5978 11.1868ZM23.8463 29.8083C23.2608 29.9359 22.6529 30.056 21.9999 30.1835C20.2086 30.5007 18.4388 30.9294 16.7009 31.467C18.7349 33.531 28.845 37.9894 41.4169 38.0344H41.4619C54.0263 37.9669 64.1214 33.5536 66.1479 31.4595C64.4241 30.9338 62.6695 30.5152 60.894 30.2061L59.2653 29.8758C55.9103 32.0524 49.0801 33.1257 42.1074 33.1257C34.9621 33.1257 27.6892 32.0074 23.8988 29.8083C23.8816 29.8124 23.8635 29.8124 23.8463 29.8083ZM41.1767 46.7409C49.9208 46.7409 53.9363 42.0124 54.9345 40.6914H54.9496C54.5167 40.0762 54.0266 39.5032 53.486 38.9801C52.18 39.2804 50.824 39.5305 49.4179 39.7307C48.7627 41.3916 47.6208 42.8157 46.1419 43.8161C44.6631 44.8166 42.9164 45.3467 41.1309 45.337C39.3455 45.3273 37.6046 44.7781 36.1368 43.7616C34.6689 42.745 33.5426 41.3086 32.9056 39.6406C31.5796 39.4355 30.2961 39.1978 29.0552 38.9276C28.4668 39.465 27.9291 40.0554 27.449 40.6914C28.4172 42.0424 32.4327 46.7409 41.1767 46.7409ZM45.0439 41.3367C45.2741 41.1236 45.4156 40.8315 45.4399 40.5188H45.4549C45.444 40.3947 45.4136 40.2731 45.3649 40.1585C45.293 40.164 45.2211 40.1696 45.1491 40.1752C44.4391 40.2304 43.7229 40.2861 43.0006 40.2861C42.9777 40.3619 42.9626 40.4399 42.9556 40.5188C42.9799 40.8315 43.1213 41.1236 43.3516 41.3367C43.5819 41.5497 43.884 41.6681 44.1978 41.6681C44.5115 41.6681 44.8136 41.5497 45.0439 41.3367ZM26.0154 40.3386C26.4134 39.6849 26.8871 39.0803 27.4264 38.5373H27.4189C26.5032 38.2971 25.55 38.0344 24.6794 37.7642C24.5018 38.7299 24.4114 39.7096 24.4092 40.6914C24.4062 43.012 24.885 45.3079 25.8151 47.4339C26.7453 49.5599 28.1066 51.4696 29.8129 53.0423C31.5193 54.615 33.5335 55.8164 35.7281 56.5705C37.9228 57.3246 40.25 57.6149 42.5626 57.4231C44.8753 57.2313 47.1229 56.5615 49.1633 55.4562C51.2037 54.3509 52.9925 52.8341 54.4165 51.0017C55.8404 49.1694 56.8685 47.0615 57.4357 44.8113C58.0029 42.5611 58.0969 40.2177 57.7116 37.9293C56.8785 38.1845 56.0228 38.4172 55.1222 38.6424C55.6088 39.1691 56.032 39.751 56.3831 40.3762C56.4439 40.4783 56.476 40.595 56.476 40.7139C56.476 40.8328 56.4439 40.9495 56.3831 41.0517L56.3799 41.057C56.1654 41.4121 52.0894 48.1595 41.1993 48.1595C30.2486 48.1595 26.158 41.3369 26.0154 41.0517C25.9453 40.946 25.908 40.822 25.908 40.6952C25.908 40.5684 25.9453 40.4444 26.0154 40.3386ZM16.806 50.4337C16.5992 50.6757 16.4779 50.979 16.4607 51.2968L16.4532 51.3119C16.7459 52.5803 20.3862 53.7887 23.6661 54.8545C26.9685 55.8503 30.1801 57.1259 33.2658 58.6673C33.3799 58.6343 33.494 58.5989 33.6081 58.5635C33.7792 58.5103 33.9503 58.4572 34.1215 58.4122C31.7415 57.4594 29.577 56.0383 27.7565 54.2333C25.9361 52.4283 24.4966 50.2761 23.5235 47.9043C20.086 48.4597 17.7442 49.3154 16.806 50.4337Z" fill="#002539"/>
    </g>
</svg>
