<svg width="15" height="25" viewBox="0 0 15 25" fill="none" xmlns="http://www.w3.org/2000/svg">
    <mask id="mask0" mask-type="alpha" maskUnits="userSpaceOnUse" x="0" y="0" width="15" height="25">
        <path fill-rule="evenodd" clip-rule="evenodd" d="M11.8088 0.498838L0.478733 11.3765C-0.159578 11.9884 -0.159578 13.01 0.478733 13.6244L11.8088 24.4996C12.5036 25.1668 13.6006 25.1668 14.2954 24.4996C15.0305 23.7934 15.0305 22.6173 14.2954 21.9099L4.80618 12.8002C4.63404 12.6355 4.63404 12.3629 4.80618 12.1983L14.2954 3.08852C15.0305 2.38236 15.0305 1.20626 14.2954 0.498838C13.9474 0.167117 13.5 0 13.0527 0C12.6041 0 12.1568 0.167117 11.8088 0.498838Z" fill="white"/>
    </mask>
    <g mask="url(#mask0)">
        <path fill-rule="evenodd" clip-rule="evenodd" d="M11.8088 0.498838L0.478733 11.3765C-0.159578 11.9884 -0.159578 13.01 0.478733 13.6244L11.8088 24.4996C12.5036 25.1668 13.6006 25.1668 14.2954 24.4996C15.0305 23.7934 15.0305 22.6173 14.2954 21.9099L4.80618 12.8002C4.63404 12.6355 4.63404 12.3629 4.80618 12.1983L14.2954 3.08852C15.0305 2.38236 15.0305 1.20626 14.2954 0.498838C13.9474 0.167117 13.5 0 13.0527 0C12.6041 0 12.1568 0.167117 11.8088 0.498838Z" fill="#3DD0FF"/>
    </g>
</svg>
