<svg width="128" height="128" viewBox="0 0 128 128" fill="none" xmlns="http://www.w3.org/2000/svg">
    <g filter="url(#filter0_d)">
        <circle cx="61" cy="60" r="55.5" stroke="#002539" stroke-width="5"/>
    </g>
    <g filter="url(#filter1_d)">
        <path d="M76.6304 82.6656C74.7766 81.6358 72.5109 80.7089 69.8333 80.194L69.1124 79.988L69.5243 79.3701C71.996 75.4566 74.2617 71.5431 76.2184 67.9386C80.7498 59.1848 82.9125 52.1817 82.9125 46.7234C82.9125 34.571 73.0258 24.7874 60.7705 24.7874C48.5151 24.7874 38.6284 34.5711 38.6284 46.6204C38.6284 52.0787 40.7911 59.0818 45.3225 67.8356C47.2793 71.5431 49.442 75.3536 52.0166 79.2671L52.4286 79.885L51.7077 80.091C48.927 80.7089 46.6613 81.5328 44.9106 82.5627C42.9538 83.6955 40.6881 85.6522 40.6881 88.4329C40.6881 89.8747 41.409 91.3165 42.6449 92.5523C43.7777 93.6852 45.2195 94.5091 47.0733 95.333C50.7808 96.8777 55.6212 97.7016 60.7705 97.7016C65.9198 97.7016 70.7601 96.8777 74.4676 95.333C76.4244 94.5091 77.8662 93.5822 78.896 92.5523C80.1319 91.3165 80.8528 89.8747 80.8528 88.4329C80.8528 85.7552 78.5871 83.7985 76.6304 82.6656ZM48.1032 66.3938C43.9837 58.4639 41.718 51.4608 41.718 46.6204C41.718 36.3218 50.2659 27.8769 60.7705 27.8769C71.2751 27.8769 79.8229 36.3218 79.8229 46.6204C79.8229 51.3578 77.5572 58.4639 73.4378 66.3938C70.4512 72.264 66.2287 78.8551 61.1824 85.7552L60.7705 86.3731L60.3585 85.7552C55.2092 78.8551 51.0898 72.367 48.1032 66.3938ZM76.7333 90.4926C76.0124 91.2135 74.6736 92.0374 73.2318 92.6553C70.0392 93.9941 65.4048 94.818 60.7705 94.818C56.1361 94.818 51.5017 93.9941 48.3091 92.6553C46.7643 92.0374 45.5285 91.2135 44.8076 90.4926C44.0867 89.7717 43.7777 89.2568 43.7777 88.5359C43.7777 87.9179 44.0867 86.6821 46.4554 85.3433C48.3091 84.2104 50.9868 83.3865 53.9734 82.8716L54.2823 82.7686L54.4883 83.0776C56.3421 85.7552 57.9898 88.0209 59.5346 90.1836C59.8436 90.5956 60.2555 90.8016 60.7705 90.8016C61.0794 90.8016 61.3884 90.6986 61.6973 90.4926C61.8003 90.3896 61.9033 90.2866 62.0063 90.1836C63.5511 88.1239 65.1989 85.7552 67.0526 83.0776L67.2586 82.7686L67.5676 82.8716C70.5542 83.3865 73.2318 84.3134 75.0856 85.3433C77.4542 86.6821 77.7632 87.9179 77.7632 88.5359C77.7632 89.1538 77.4542 89.7717 76.7333 90.4926Z" fill="#002539"/>
        <path d="M60.7703 36.6307C55.1061 36.6307 50.4717 41.2651 50.4717 46.9294C50.4717 52.5936 55.1061 57.228 60.7703 57.228C66.4346 57.228 71.0689 52.5936 71.0689 46.9294C71.0689 41.2651 66.4346 36.6307 60.7703 36.6307ZM60.7703 54.1384C56.8568 54.1384 53.5613 50.9458 53.5613 46.9294C53.5613 43.0159 56.7538 39.7203 60.7703 39.7203C64.6838 39.7203 67.9793 42.9129 67.9793 46.9294C67.9793 50.8428 64.6838 54.1384 60.7703 54.1384Z" fill="#002539"/>
    </g>
    <defs>
        <filter id="filter0_d" x="0" y="0" width="128" height="128" filterUnits="userSpaceOnUse" color-interpolation-filters="sRGB">
            <feFlood flood-opacity="0" result="BackgroundImageFix"/>
            <feColorMatrix in="SourceAlpha" type="matrix" values="0 0 0 0 0 0 0 0 0 0 0 0 0 0 0 0 0 0 127 0"/>
            <feOffset dx="3" dy="4"/>
            <feGaussianBlur stdDeviation="3"/>
            <feColorMatrix type="matrix" values="0 0 0 0 0 0 0 0 0 0 0 0 0 0 0 0 0 0 0.25 0"/>
            <feBlend mode="normal" in2="BackgroundImageFix" result="effect1_dropShadow"/>
            <feBlend mode="normal" in="SourceGraphic" in2="effect1_dropShadow" result="shape"/>
        </filter>
        <filter id="filter1_d" x="34.6284" y="22.7874" width="56.2841" height="84.9143" filterUnits="userSpaceOnUse" color-interpolation-filters="sRGB">
            <feFlood flood-opacity="0" result="BackgroundImageFix"/>
            <feColorMatrix in="SourceAlpha" type="matrix" values="0 0 0 0 0 0 0 0 0 0 0 0 0 0 0 0 0 0 127 0"/>
            <feOffset dx="2" dy="4"/>
            <feGaussianBlur stdDeviation="3"/>
            <feColorMatrix type="matrix" values="0 0 0 0 0 0 0 0 0 0 0 0 0 0 0 0 0 0 0.25 0"/>
            <feBlend mode="normal" in2="BackgroundImageFix" result="effect1_dropShadow"/>
            <feBlend mode="normal" in="SourceGraphic" in2="effect1_dropShadow" result="shape"/>
        </filter>
    </defs>
</svg>
