<svg width="88" height="88" viewBox="0 0 88 88" fill="none" xmlns="http://www.w3.org/2000/svg">
    <g filter="url(#filter0_d)">
        <path d="M15.3 78C11.7 78 8.9 75.1 8.9 71.6V34.7L8.6 34.4C5.6 32.2 4 29 4 25.4C4 21.9 5.6 18.6 8.5 16.4L8.8 16.1V8.4C8.9 4.9 11.7 2 15.3 2C18.9 2 21.7 4.9 21.7 8.4V16.2L22 16.5C24.9 18.7 26.5 22 26.5 25.5C26.5 29 24.9 32.3 22 34.5L21.7 34.8V71.7C21.7 75.1 18.8 78 15.3 78Z" fill="#002539"/>
        <path d="M68.7 78C65.1 78 62.3 75.1 62.3 71.6V34.7L62 34.4C59.1 32.2 57.5 29 57.5 25.4C57.5 21.9 59.1 18.6 62 16.4L62.3 16.1V8.4C62.3 4.8 65.2 2 68.7 2C72.3 2 75.1 4.9 75.1 8.4V16.2L75.4 16.5C78.3 18.7 79.9 22 79.9 25.5C79.9 29 78.3 32.3 75.4 34.5L75.1 34.8V71.7C75.1 75.1 72.3 78 68.7 78Z" fill="#002539"/>
        <path d="M41.9998 78C38.3998 78 35.5998 75.1 35.5998 71.6V63.8L35.2998 63.5C32.3998 61.3 30.7998 58.1 30.7998 54.5C30.7998 51 32.3998 47.7 35.2998 45.5L35.5998 45.2V8.4C35.5998 4.9 38.3998 2 41.9998 2C45.5998 2 48.3998 4.9 48.3998 8.4V45.3L48.6998 45.6C51.5998 47.8 53.1998 51.1 53.1998 54.6C53.1998 58.1 51.5998 61.4 48.6998 63.6L48.3998 63.9V71.7C48.3998 75.1 45.5998 78 41.9998 78Z" fill="#002539"/>
        <path d="M15.3 78C11.7 78 8.9 75.1 8.9 71.6V34.7L8.6 34.4C5.6 32.2 4 29 4 25.4C4 21.9 5.6 18.6 8.5 16.4L8.8 16.1V8.4C8.9 4.9 11.7 2 15.3 2C18.9 2 21.7 4.9 21.7 8.4V16.2L22 16.5C24.9 18.7 26.5 22 26.5 25.5C26.5 29 24.9 32.3 22 34.5L21.7 34.8V71.7C21.7 75.1 18.8 78 15.3 78ZM12 71.6C12 73.4 13.5 74.9 15.3 74.9C17.1 74.9 18.6 73.4 18.6 71.6V36.3L17.6 36.5C16.9 36.7 16.1 36.7 15.3 36.7C14.5 36.7 13.8 36.6 13 36.5L12 36.3V71.6ZM15.3 17.3C14.4 17.3 13.5 17.5 12.6 17.8C11.8 18.1 11.1 18.5 10.4 19C9.7 19.5 9.2 20.1 8.7 20.7C8.3 21.3 7.9 22 7.6 22.7C7.6 22.8 7.5 22.9 7.5 23C7.2 23.9 7.1 24.7 7.1 25.4C7.1 26.1 7.2 26.9 7.5 27.7V27.8C7.5 27.9 7.6 28 7.6 28.1C7.9 28.9 8.2 29.5 8.6 30.1L8.7 30.2C9.1 30.8 9.7 31.4 10.3 31.9C11 32.4 11.7 32.8 12.5 33.1C13.4 33.4 14.3 33.6 15.2 33.6C16.1 33.6 17 33.4 17.9 33.1C18.7 32.8 19.4 32.4 20.1 31.9C20.7 31.4 21.3 30.8 21.8 30.2C22.2 29.6 22.6 29 22.9 28.2C22.9 28.1 23 28 23 27.9C23.3 27 23.4 26.2 23.4 25.5C23.4 24.8 23.3 24 23 23.2C23 23.1 22.9 22.9 22.9 22.8C22.6 22 22.3 21.4 21.9 20.8L21.8 20.7C21.4 20.1 20.8 19.5 20.2 19.1L20.1 19C19.5 18.5 18.8 18.2 18 17.9C17.1 17.5 16.2 17.3 15.3 17.3ZM15.3 14.1C16.1 14.1 16.8 14.2 17.6 14.3L18.6 14.5V8.4C18.6 6.6 17.1 5.1 15.3 5.1C13.5 5.2 12 6.6 12 8.4V14.5L13 14.3C13.8 14.2 14.5 14.1 15.3 14.1Z" fill="white"/>
        <path d="M68.7 78C65.1 78 62.3 75.1 62.3 71.6V34.7L62 34.4C59.1 32.2 57.5 29 57.5 25.4C57.5 21.9 59.1 18.6 62 16.4L62.3 16.1V8.4C62.3 4.8 65.2 2 68.7 2C72.3 2 75.1 4.9 75.1 8.4V16.2L75.4 16.5C78.3 18.7 79.9 22 79.9 25.5C79.9 29 78.3 32.3 75.4 34.5L75.1 34.8V71.7C75.1 75.1 72.3 78 68.7 78ZM65.4 71.6C65.4 73.4 66.9 74.9 68.7 74.9C70.5 74.9 72 73.4 72 71.6V36.3L71 36.5C70.3 36.7 69.5 36.7 68.7 36.7C67.9 36.7 67.2 36.6 66.4 36.5L65.4 36.3V71.6ZM68.7 17.3C67.8 17.3 66.9 17.5 66 17.8C65.2 18.1 64.5 18.5 63.8 19C63.1 19.5 62.6 20.1 62.1 20.7C61.7 21.3 61.3 22 61 22.7C61 22.8 60.9 22.9 60.9 23C60.6 23.9 60.5 24.6 60.5 25.4C60.5 26.1 60.6 26.9 60.9 27.7V27.8C60.9 27.9 61 28 61 28.1C61.3 28.8 61.6 29.5 62 30.1L62.1 30.2C62.5 30.8 63.1 31.4 63.7 31.8L63.8 31.9C64.4 32.3 65.1 32.7 65.9 33C66.8 33.3 67.7 33.5 68.6 33.5C69.5 33.5 70.4 33.3 71.3 33C72.1 32.7 72.8 32.3 73.5 31.8C74.2 31.3 74.7 30.7 75.2 30.1C75.6 29.5 76 28.9 76.3 28.1C76.3 28 76.4 27.9 76.4 27.7C76.7 26.8 76.8 26.1 76.8 25.4C76.8 24.7 76.7 23.9 76.4 23.1V23C76.4 22.9 76.3 22.8 76.3 22.7C76 21.9 75.7 21.3 75.3 20.7C74.8 20 74.2 19.4 73.6 19L73.5 18.9C72.9 18.4 72.2 18.1 71.4 17.8C70.5 17.5 69.6 17.3 68.7 17.3ZM68.7 5.2C66.9 5.2 65.4 6.7 65.4 8.5V14.6L66.4 14.4C67.1 14.3 67.9 14.2 68.7 14.2C69.5 14.2 70.2 14.3 71 14.4L72 14.6V8.4C72 6.6 70.5 5.2 68.7 5.2Z" fill="white"/>
        <path d="M41.9998 78C38.3998 78 35.5998 75.1 35.5998 71.6V63.8L35.2998 63.5C32.3998 61.3 30.7998 58.1 30.7998 54.5C30.7998 51 32.3998 47.7 35.2998 45.5L35.5998 45.2V8.4C35.5998 4.9 38.3998 2 41.9998 2C45.5998 2 48.3998 4.9 48.3998 8.4V45.3L48.6998 45.6C51.5998 47.8 53.1998 51.1 53.1998 54.6C53.1998 58.1 51.5998 61.4 48.6998 63.6L48.3998 63.9V71.7C48.3998 75.1 45.5998 78 41.9998 78ZM38.6998 71.6C38.6998 73.4 40.1998 74.9 41.9998 74.9C43.7998 74.9 45.2998 73.4 45.2998 71.6V65.5L44.2998 65.7C43.5998 65.9 42.7998 65.9 41.9998 65.9C41.1998 65.9 40.4998 65.8 39.6998 65.7L38.6998 65.5V71.6ZM37.0998 48.1C36.4998 48.6 35.8998 49.1 35.3998 49.8C34.9998 50.4 34.5998 51.1 34.2998 51.8C34.2998 51.9 34.1998 52 34.1998 52.1C33.8998 53 33.7998 53.8 33.7998 54.5C33.7998 55.2 33.8998 56 34.1998 56.8C34.2998 57 34.2998 57.1 34.2998 57.2C34.5998 58 34.8998 58.6 35.2998 59.2L35.3998 59.3C35.7998 59.9 36.3998 60.5 36.9998 61C37.6998 61.5 38.3998 61.9 39.1998 62.2C40.0998 62.5 40.9998 62.7 41.8998 62.7C42.7998 62.7 43.6998 62.5 44.5998 62.2C45.3998 61.9 46.0998 61.5 46.7998 61L46.8998 60.9C47.4998 60.5 47.9998 59.9 48.4998 59.3C48.8998 58.7 49.2998 58.1 49.5998 57.3C49.5998 57.2 49.6998 57.1 49.6998 57C49.9998 56.1 50.0998 55.4 50.0998 54.6C50.0998 53.9 49.9998 53.2 49.6998 52.3C49.5998 52.1 49.5998 52 49.5998 51.9C49.2998 51.1 48.9998 50.5 48.5998 49.9L48.4998 49.8C48.0998 49.2 47.4998 48.6 46.8998 48.2C46.1998 47.7 45.4998 47.3 44.6998 47C43.7998 46.7 42.8998 46.5 41.9998 46.5C41.0998 46.5 40.1998 46.7 39.2998 47C38.4998 47.2 37.7998 47.6 37.0998 48.1L37.4998 48.5L37.0998 48.1ZM41.9998 5.2C40.1998 5.2 38.6998 6.7 38.6998 8.5V43.8L39.6998 43.6C40.3998 43.4 41.1998 43.4 41.9998 43.4C42.6998 43.4 43.4998 43.5 44.2998 43.6L45.2998 43.8V8.4C45.2998 6.6 43.7998 5.2 41.9998 5.2Z" fill="white"/>
    </g>
    <defs>
        <filter id="filter0_d" x="0" y="0" width="88" height="88" filterUnits="userSpaceOnUse" color-interpolation-filters="sRGB">
            <feFlood flood-opacity="0" result="BackgroundImageFix"/>
            <feColorMatrix in="SourceAlpha" type="matrix" values="0 0 0 0 0 0 0 0 0 0 0 0 0 0 0 0 0 0 127 0"/>
            <feOffset dx="2" dy="4"/>
            <feGaussianBlur stdDeviation="3"/>
            <feColorMatrix type="matrix" values="0 0 0 0 0 0 0 0 0 0 0 0 0 0 0 0 0 0 0.25 0"/>
            <feBlend mode="normal" in2="BackgroundImageFix" result="effect1_dropShadow"/>
            <feBlend mode="normal" in="SourceGraphic" in2="effect1_dropShadow" result="shape"/>
        </filter>
    </defs>
</svg>
