<svg width="85" height="83" viewBox="0 0 85 83" fill="none" xmlns="http://www.w3.org/2000/svg">
    <path d="M83.095 29.7356C75.2085 20.6217 67.3219 11.4326 59.4353 2.31871C57.7829 0.36036 55.5296 -0.31753 52.9759 0.134396C41.2587 2.31871 29.6167 4.57834 17.9746 6.83798C15.0453 7.44055 13.0925 9.09761 12.116 12.0351C8.28541 23.3333 4.30458 34.5562 0.473969 45.8543C-0.277132 48.0386 0.0233084 50.223 1.4504 52.0307C3.02771 54.0643 4.68013 56.0227 6.40766 57.981C12.792 65.3625 19.2515 72.744 25.6358 80.1255C27.2882 82.0085 29.3913 82.7617 31.7949 82.3098C35.8508 81.6319 39.8316 80.8033 43.8876 79.9748C51.7741 78.3931 59.7358 76.8113 67.6223 75.2296C70.2512 74.7023 71.9036 73.1206 72.8049 70.5597C76.26 60.4666 79.7902 50.4489 83.2452 40.3559C83.9212 38.4729 84.447 36.5145 84.8977 35.0834C84.7474 32.7485 84.2968 31.0914 83.095 29.7356ZM22.7065 9.17293C32.0202 7.36523 41.2587 5.63284 50.5724 3.82513C51.023 3.74981 51.5488 3.74981 52.0746 3.67449C54.7034 3.90045 57.182 4.65366 58.9847 6.76266C65.2188 13.9182 71.453 21.0737 77.612 28.3045C79.5648 30.5641 78.8888 32.4472 75.8844 33.0497C69.1245 34.4055 62.3646 35.6107 55.6047 36.9664C53.5017 37.343 51.3235 37.7196 49.2204 38.1716C45.3147 39.0001 41.9347 38.0209 39.3059 35.0081C33.1468 28.0032 27.0629 20.923 20.979 13.9182C19.1764 11.7339 19.9275 9.70018 22.7065 9.17293ZM29.4664 73.4219C28.49 76.1334 26.6123 76.51 24.7345 74.3257C20.1528 68.9779 15.496 63.6301 10.9143 58.2823C9.56228 56.7006 8.13519 55.0435 6.7081 53.4618C4.90546 51.4281 4.07925 49.0931 4.00414 45.9297C4.15436 45.3271 4.30458 44.2726 4.68013 43.2934C7.60942 34.7068 10.5387 26.0449 13.5431 17.4583C13.6182 17.157 13.7684 16.8557 13.8436 16.5544C14.8951 14.2195 16.6226 13.8428 18.3502 15.8012C24.6594 23.1073 30.9686 30.3382 37.2028 37.7196C39.3059 40.2052 39.8316 43.2934 38.7801 46.4569C35.7006 55.4954 32.546 64.4587 29.4664 73.4219ZM80.0155 39.452C78.288 44.6492 76.5604 49.771 74.7578 54.9682C73.4809 58.7342 72.1289 62.5003 70.8521 66.191C69.425 70.0324 66.7961 72.2921 62.8153 73.0453C53.9523 74.7023 45.1644 76.4347 36.3015 78.1671C35.8508 78.2424 35.4001 78.2424 35.2499 78.2424C32.7713 78.2424 31.87 76.8866 32.6962 74.5517C33.6726 71.6142 34.7241 68.6766 35.7757 65.7391C37.7285 60.09 39.6814 54.3656 41.6343 48.7165C43.1365 44.2726 46.2911 42.013 50.8728 41.2597C59.2851 39.7533 67.6974 38.0209 76.0347 36.4392C76.4853 36.3639 76.936 36.2885 77.3866 36.2132C79.4146 35.9119 80.6915 37.4184 80.0155 39.452Z" fill="white"/>
    <path d="M15.9464 25.0658C15.1953 26.6475 15.4206 28.3046 15.9464 29.9617C16.5472 31.7694 17.8992 32.9745 18.9508 32.7485C20.1525 32.5226 20.8285 31.1668 20.8285 29.0578C20.8285 27.3254 20.3779 25.6684 19.0259 24.3879C17.8992 23.3334 16.6224 23.6347 15.9464 25.0658Z" fill="white"/>
    <path d="M22.7059 59.0356C21.8797 60.6926 22.1801 62.2744 22.781 63.8561C23.3819 65.5132 24.6587 66.7183 25.7854 66.4924C26.912 66.3417 27.6631 64.9106 27.6631 62.8016C27.7382 61.3705 27.2876 59.7888 26.1609 58.5083C24.9592 57.2279 23.457 57.5291 22.7059 59.0356Z" fill="white"/>
    <path d="M64.6167 60.994C62.063 61.5212 60.1852 63.0277 59.2839 65.5132C58.683 67.095 59.5092 68.2248 61.1617 68.2248C63.4901 68.2248 66.5696 65.3626 66.7198 63.0276C66.87 61.6719 65.8936 60.6927 64.6167 60.994Z" fill="white"/>
    <path d="M44.9381 64.9107C42.5346 64.9107 39.5302 67.5469 39.3049 69.8819C39.1547 70.9364 39.6053 71.6143 40.732 71.8402C43.1355 72.2922 46.5905 69.6559 46.891 67.095C47.1163 65.5886 46.4403 64.9107 44.9381 64.9107Z" fill="white"/>
    <path d="M51.3234 46.3817C49.1452 46.3817 46.1408 48.8673 45.7652 51.0516C45.4648 52.6333 46.4412 53.6878 47.9434 53.5372C50.1216 53.3112 52.6754 51.1269 53.2763 49.0179C53.7269 47.5115 52.9007 46.3817 51.3234 46.3817Z" fill="white"/>
    <path d="M71.3773 42.5403C69.0489 42.3897 65.9694 45.0259 65.669 47.4362C65.4437 49.0933 66.7205 50.2231 68.2227 49.6205C69.4996 49.0933 70.7013 48.3401 71.7529 47.4362C72.504 46.7583 72.8795 45.5532 73.18 45.1013C73.18 43.2182 72.5791 42.6157 71.3773 42.5403Z" fill="white"/>
    <path d="M34.3481 18.1363C34.7237 18.1363 35.0992 18.1363 35.3997 18.1363C37.2774 17.9103 37.8032 16.7805 36.8268 15.1234C35.3997 12.7885 33.2215 12.2612 30.818 12.4872C28.8651 12.6378 28.114 14.2949 29.3909 15.8766C30.6677 17.383 32.3202 18.1363 34.3481 18.1363Z" fill="white"/>
    <path d="M43.7364 27.8526C41.7835 28.3799 41.3329 29.811 42.6848 31.3174C43.9617 32.7485 45.6892 33.4264 47.7172 33.5017C47.9425 33.5017 48.243 33.5017 48.5434 33.4264C50.5714 33.2004 51.2474 31.7693 49.9705 30.1122C48.7688 28.3799 45.7644 27.25 43.7364 27.8526Z" fill="white"/>
    <path d="M44.0369 16.3286C45.6893 16.5546 46.2902 15.8013 46.816 15.1234C47.1164 14.6715 46.816 13.5417 46.4404 12.9391C45.3138 11.0561 41.6334 10.0016 39.6805 10.8301C38.4037 11.3574 38.1032 12.1859 38.7792 13.4664C39.9059 15.2741 41.7836 16.1026 44.0369 16.3286Z" fill="white"/>
    <path d="M53.8013 25.9696C51.548 26.2709 51.0222 27.5513 52.3742 29.4344C53.576 31.0914 56.9559 32.1459 58.8337 31.5434C60.2608 31.0914 60.7114 29.811 59.8852 28.5305C58.6083 26.7228 56.7306 26.1202 54.4773 25.9696C54.3271 25.8943 54.0266 25.8943 53.8013 25.9696Z" fill="white"/>
    <path d="M68.4479 29.5099C70.1003 28.7567 70.4008 27.5516 69.199 26.1958C67.9221 24.7647 66.1946 24.0868 63.8662 24.0115C63.5657 24.0868 62.8146 24.1621 62.2138 24.4634C61.3876 24.84 61.0871 25.5179 61.3875 26.3464C61.9884 28.7567 66.1195 30.5644 68.4479 29.5099Z" fill="white"/>
    <path d="M55.9054 13.9183C56.8819 13.3157 56.957 12.4872 56.3561 11.5833C55.0792 9.62499 53.2015 8.72113 50.5726 8.64581C50.2722 8.72113 49.5211 8.72113 49.0704 9.09774C48.6197 9.47435 48.094 10.3029 48.1691 10.7548C48.6949 13.6923 53.4268 15.5 55.9054 13.9183Z" fill="white"/>
</svg>
