<svg width="29" height="22" viewBox="0 0 29 22" fill="none" xmlns="http://www.w3.org/2000/svg">
    <path d="M1.71875 0C0.769519 0 0 0.769484 0 1.71875C0 2.66801 0.769519 3.4375 1.71875 3.4375H26.4688C27.418 3.4375 28.1875 2.66801 28.1875 1.71875C28.1875 0.769484 27.418 0 26.4688 0H1.71875ZM1.71875 9.28125C0.769519 9.28125 0 10.0507 0 11C0 11.9492 0.769519 12.7187 1.71875 12.7187H26.4688C27.418 12.7187 28.1875 11.9492 28.1875 11C28.1875 10.0507 27.418 9.28125 26.4688 9.28125H1.71875ZM1.71875 18.5625C0.769519 18.5625 0 19.332 0 20.2812C0 21.2305 0.769519 22 1.71875 22H26.4688C27.418 22 28.1875 21.2305 28.1875 20.2812C28.1875 19.332 27.418 18.5625 26.4688 18.5625H1.71875Z" fill="#3DD0FF"/>
</svg>
